<svg xmlns="http://www.w3.org/2000/svg" fill="none" viewBox="0 0 90 90"><defs><filter id="c" width="170%" height="190%" x="-35%" y="-35%"><feDropShadow dx="-3" dy="-2" flood-color="#fff7e6" flood-opacity=".14" result="light" stdDeviation="4"/><feDropShadow dx="3" dy="6" flood-color="#201409" flood-opacity=".52" in="light" result="drops" stdDeviation="5"/><feGaussianBlur in="SourceAlpha" result="alpha" stdDeviation="4"/><feOffset dx="-4" dy="-5" in="alpha" result="offset"/><feComposite in="offset" in2="SourceAlpha" k2="-1" k3="1" operator="arithmetic" result="mask"/><feFlood flood-color="#fff7e6" flood-opacity=".34" result="color"/><feComposite in="color" in2="mask" operator="in" result="inner"/><feBlend in="inner" in2="drops"/></filter><filter id="e"><feGaussianBlur stdDeviation="5"/></filter><radialGradient id="a" cx="0" cy="0" r="1" gradientTransform="rotate(48 -7.214 38.198)scale(88)"><stop stop-color="#fff7e6" stop-opacity=".62"/><stop offset=".46" stop-color="#d5b98d" stop-opacity=".4"/><stop offset="1" stop-color="#745b3e" stop-opacity=".72"/></radialGradient><linearGradient id="b" x1="12" x2="82" y1="8" y2="90" gradientUnits="userSpaceOnUse"><stop stop-color="#fff" stop-opacity=".88"/><stop offset=".42" stop-color="#fff7e6" stop-opacity=".54"/><stop offset="1" stop-color="#d5b98d" stop-opacity=".14"/></linearGradient><clipPath id="d"><circle cx="45" cy="45" r="38"/></clipPath></defs><circle cx="45" cy="45" r="38" fill="url(#a)" stroke="url(#b)" stroke-width="1.4" filter="url(#c)"/><g clip-path="url(#d)" filter="url(#e)"><ellipse cx="31" cy="24" fill="#fff" opacity=".24" rx="26" ry="17"/><ellipse cx="64" cy="67" fill="#745b3e" opacity=".34" rx="28" ry="22"/></g><path stroke="url(#b)" stroke-linecap="round" stroke-linejoin="round" stroke-width="2.4" d="M60 22a28 28 0 1 1-34 24 17 17 0 1 1 30-6 8 8 0 0 1-6 12m-5-42 2 16M16 40l14 4m10 34 4-16m30-10-14-2"/></svg>