<svg xmlns="http://www.w3.org/2000/svg" viewBox="0 0 90 90" fill="none" shape-rendering="geometricPrecision">
  <defs>
    <radialGradient id="fill" cx="0" cy="0" r="1" gradientTransform="translate(26 18) rotate(48) scale(88)"><stop stop-color="#fff7e6" stop-opacity=".62"/><stop offset=".46" stop-color="#d5b98d" stop-opacity=".4"/><stop offset="1" stop-color="#745b3e" stop-opacity=".72"/></radialGradient>
    <linearGradient id="edge" x1="12" y1="8" x2="82" y2="90" gradientUnits="userSpaceOnUse"><stop stop-color="#fff" stop-opacity=".88"/><stop offset=".42" stop-color="#fff7e6" stop-opacity=".54"/><stop offset="1" stop-color="#d5b98d" stop-opacity=".14"/></linearGradient>
    <filter id="glass" x="-35%" y="-35%" width="170%" height="190%"><feDropShadow dx="-3" dy="-2" stdDeviation="4" flood-color="#fff7e6" flood-opacity=".14" result="light"/><feDropShadow in="light" dx="3" dy="6" stdDeviation="5" flood-color="#201409" flood-opacity=".52" result="drops"/><feGaussianBlur in="SourceAlpha" stdDeviation="4" result="alpha"/><feOffset in="alpha" dx="-4" dy="-5" result="offset"/><feComposite in="offset" in2="SourceAlpha" operator="arithmetic" k2="-1" k3="1" result="mask"/><feFlood flood-color="#fff7e6" flood-opacity=".34" result="color"/><feComposite in="color" in2="mask" operator="in" result="inner"/><feBlend in="inner" in2="drops"/></filter>
    <filter id="blur"><feGaussianBlur stdDeviation="5"/></filter>
    <clipPath id="clip"><circle cx="45" cy="45" r="38"/></clipPath>
  </defs>
  <circle cx="45" cy="45" r="38" fill="url(#fill)" stroke="url(#edge)" stroke-width="1.4" filter="url(#glass)"/>
  <g clip-path="url(#clip)" filter="url(#blur)"><ellipse cx="31" cy="24" rx="26" ry="17" fill="#fff" opacity=".24"/><ellipse cx="64" cy="67" rx="28" ry="22" fill="#745b3e" opacity=".34"/></g>
  <g stroke="url(#edge)" stroke-width="2.4" stroke-linecap="round" stroke-linejoin="round"><path d="M60 22A28 28 0 1 1 26 46a17 17 0 1 1 30-6 8 8 0 0 1-6 12M45 10l2 16M16 40l14 4M40 78l4-16M74 52l-14-2"/></g>
</svg>
