<svg xmlns="http://www.w3.org/2000/svg" fill="none" viewBox="0 0 100 60"><defs><filter id="c" width="170%" height="220%" x="-35%" y="-55%"><feDropShadow dx="-3" dy="-2" flood-color="#fff" flood-opacity=".14" result="light" stdDeviation="4"/><feDropShadow dx="3" dy="6" flood-color="#24170c" flood-opacity=".52" in="light" result="drops" stdDeviation="5"/><feGaussianBlur in="SourceAlpha" result="alpha" stdDeviation="4"/><feOffset dx="-4" dy="-5" in="alpha" result="offset"/><feComposite in="offset" in2="SourceAlpha" k2="-1" k3="1" operator="arithmetic" result="mask"/><feFlood flood-color="#fff" flood-opacity=".34" result="color"/><feComposite in="color" in2="mask" operator="in" result="inner"/><feBlend in="inner" in2="drops"/></filter><filter id="e"><feGaussianBlur stdDeviation="5"/></filter><radialGradient id="b" cx="0" cy="0" r="1" gradientTransform="rotate(48 -7.214 38.198)scale(88)"><stop stop-color="#fff" stop-opacity=".62"/><stop offset=".46" stop-color="#eadcc2" stop-opacity=".4"/><stop offset="1" stop-color="#9b8769" stop-opacity=".72"/></radialGradient><linearGradient id="f" x1="12" x2="82" y1="8" y2="58" gradientUnits="userSpaceOnUse"><stop stop-color="#fff" stop-opacity=".88"/><stop offset=".42" stop-color="#fff" stop-opacity=".54"/><stop offset="1" stop-color="#eadcc2" stop-opacity=".14"/></linearGradient><clipPath id="d"><use href="#a"/></clipPath><path id="a" d="M28 19c-5-6-14-5-15 2-7 4-5 14 4 16-1 9 10 13 16 5h34c6 8 17 4 16-5 9-2 11-12 4-16-1-7-10-8-15-2-4 0-7 4-7 8H35c0-4-3-8-7-8"/></defs><g transform="rotate(-18 50 30)"><use fill="url(#b)" filter="url(#c)" href="#a"/><g clip-path="url(#d)" filter="url(#e)"><ellipse cx="30" cy="17" fill="#fff" opacity=".34" rx="24" ry="10"/><ellipse cx="72" cy="43" fill="#8c7255" opacity=".38" rx="25" ry="12"/></g><use stroke="url(#f)" stroke-width="1.2" href="#a"/><path stroke="#fff" stroke-linecap="round" stroke-width="1.2" d="M35 31h30" opacity=".22"/></g></svg>