<svg xmlns="http://www.w3.org/2000/svg" viewBox="0 0 100 70" fill="none" shape-rendering="geometricPrecision">
  <defs>
    <radialGradient id="fill" cx="0" cy="0" r="1" gradientTransform="translate(26 18) rotate(48) scale(88)"><stop stop-color="#e8fbff" stop-opacity=".62"/><stop offset=".46" stop-color="#72c6df" stop-opacity=".4"/><stop offset="1" stop-color="#24556e" stop-opacity=".72"/></radialGradient>
    <linearGradient id="edge" x1="12" y1="8" x2="82" y2="70" gradientUnits="userSpaceOnUse"><stop stop-color="#fff" stop-opacity=".88"/><stop offset=".42" stop-color="#e8fbff" stop-opacity=".54"/><stop offset="1" stop-color="#72c6df" stop-opacity=".14"/></linearGradient>
    <filter id="glass" x="-35%" y="-45%" width="170%" height="210%"><feDropShadow dx="-3" dy="-2" stdDeviation="4" flood-color="#e8fbff" flood-opacity=".14" result="light"/><feDropShadow in="light" dx="3" dy="6" stdDeviation="5" flood-color="#06151c" flood-opacity=".52" result="drops"/><feGaussianBlur in="SourceAlpha" stdDeviation="4" result="alpha"/><feOffset in="alpha" dx="-4" dy="-5" result="offset"/><feComposite in="offset" in2="SourceAlpha" operator="arithmetic" k2="-1" k3="1" result="mask"/><feFlood flood-color="#e8fbff" flood-opacity=".34" result="color"/><feComposite in="color" in2="mask" operator="in" result="inner"/><feBlend in="inner" in2="drops"/></filter>
    <filter id="blur"><feGaussianBlur stdDeviation="5"/></filter>
    <clipPath id="clip"><path d="M30 66 18 30h22l10 12-2-22 18 6 8 14-16 26H44l-4-22 14 4Z"/></clipPath>
  </defs>
  <g stroke="url(#edge)" stroke-width="1.2" stroke-linejoin="round" filter="url(#glass)"><path d="M30 66 18 30h22Z" fill="url(#fill)"/><path d="m30 66 10-36 10 12Z" fill="#397d98" fill-opacity=".42"/><path d="m58 66-10-46 18 6Z" fill="url(#fill)"/><path d="m58 66 8-40 8 14Z" fill="#397d98" fill-opacity=".46"/><path d="m44 66-4-22 14 4Z" fill="#c9f5ff" fill-opacity=".38"/></g>
  <g clip-path="url(#clip)" filter="url(#blur)"><ellipse cx="42" cy="24" rx="23" ry="13" fill="#e8fbff" opacity=".34"/><ellipse cx="65" cy="62" rx="27" ry="18" fill="#1b5d78" opacity=".38"/></g>
  <path d="m51 25 6 30M21 33l7 24" stroke="#fff" stroke-width="1.5" stroke-linecap="round" opacity=".42"/>
</svg>
