<svg xmlns="http://www.w3.org/2000/svg" fill="none" viewBox="0 0 100 70"><defs><filter id="b" width="170%" height="210%" x="-35%" y="-45%"><feDropShadow dx="-3" dy="-2" flood-color="#e8fbff" flood-opacity=".14" result="light" stdDeviation="4"/><feDropShadow dx="3" dy="6" flood-color="#06151c" flood-opacity=".52" in="light" result="drops" stdDeviation="5"/><feGaussianBlur in="SourceAlpha" result="alpha" stdDeviation="4"/><feOffset dx="-4" dy="-5" in="alpha" result="offset"/><feComposite in="offset" in2="SourceAlpha" k2="-1" k3="1" operator="arithmetic" result="mask"/><feFlood flood-color="#e8fbff" flood-opacity=".34" result="color"/><feComposite in="color" in2="mask" operator="in" result="inner"/><feBlend in="inner" in2="drops"/></filter><filter id="e"><feGaussianBlur stdDeviation="5"/></filter><radialGradient id="c" cx="0" cy="0" r="1" gradientTransform="rotate(48 -7.214 38.198)scale(88)"><stop stop-color="#e8fbff" stop-opacity=".62"/><stop offset=".46" stop-color="#72c6df" stop-opacity=".4"/><stop offset="1" stop-color="#24556e" stop-opacity=".72"/></radialGradient><linearGradient id="a" x1="12" x2="82" y1="8" y2="70" gradientUnits="userSpaceOnUse"><stop stop-color="#fff" stop-opacity=".88"/><stop offset=".42" stop-color="#e8fbff" stop-opacity=".54"/><stop offset="1" stop-color="#72c6df" stop-opacity=".14"/></linearGradient><clipPath id="d"><path d="M30 66 18 30h22l10 12-2-22 18 6 8 14-16 26H44l-4-22 14 4Z"/></clipPath></defs><g stroke="url(#a)" stroke-linejoin="round" stroke-width="1.2" filter="url(#b)"><path fill="url(#c)" d="M30 66 18 30h22Z"/><path fill="#397d98" fill-opacity=".42" d="m30 66 10-36 10 12Z"/><path fill="url(#c)" d="M58 66 48 20l18 6Z"/><path fill="#397d98" fill-opacity=".46" d="m58 66 8-40 8 14Z"/><path fill="#c9f5ff" fill-opacity=".38" d="m44 66-4-22 14 4Z"/></g><g clip-path="url(#d)" filter="url(#e)"><ellipse cx="42" cy="24" fill="#e8fbff" opacity=".34" rx="23" ry="13"/><ellipse cx="65" cy="62" fill="#1b5d78" opacity=".38" rx="27" ry="18"/></g><path stroke="#fff" stroke-linecap="round" stroke-width="1.5" d="m51 25 6 30M21 33l7 24" opacity=".42"/></svg>