<svg xmlns="http://www.w3.org/2000/svg" fill="none" viewBox="0 0 1440 520"><defs><linearGradient id="f" x1="720" x2="720" y1="0" y2="520" gradientUnits="userSpaceOnUse"><stop stop-color="#5c6e86"/><stop offset=".3" stop-color="#4a4f61"/><stop offset=".55" stop-color="#3b3327"/><stop offset="1" stop-color="#201710"/></linearGradient><linearGradient id="g" x1="70" x2="1180" y1="150" y2="370" gradientUnits="userSpaceOnUse"><stop stop-color="#c9ddf5" stop-opacity=".34"/><stop offset=".48" stop-color="#8191aa" stop-opacity=".22"/><stop offset="1" stop-color="#303747" stop-opacity=".58"/></linearGradient><linearGradient id="m" x1="1340" x2="210" y1="250" y2="470" gradientUnits="userSpaceOnUse"><stop stop-color="#f4d8ae" stop-opacity=".42"/><stop offset=".5" stop-color="#9d7d5f" stop-opacity=".3"/><stop offset="1" stop-color="#4e3929" stop-opacity=".72"/></linearGradient><linearGradient id="p" x1="120" x2="1240" y1="330" y2="510" gradientUnits="userSpaceOnUse"><stop stop-color="#d5aa79" stop-opacity=".38"/><stop offset=".5" stop-color="#6f4e35" stop-opacity=".48"/><stop offset="1" stop-color="#2a1d15" stop-opacity=".9"/></linearGradient><linearGradient id="s" x1="1320" x2="280" y1="420" y2="520" gradientUnits="userSpaceOnUse"><stop stop-color="#765037" stop-opacity=".56"/><stop offset=".45" stop-color="#332219" stop-opacity=".86"/><stop offset="1" stop-color="#201710"/></linearGradient><linearGradient id="u" x1="720" x2="720" y1="478" y2="507" gradientUnits="userSpaceOnUse"><stop stop-color="#201710" stop-opacity="0"/><stop offset="1" stop-color="#201710"/></linearGradient><linearGradient id="h" x1="160" x2="1120" y1="170" y2="330" gradientUnits="userSpaceOnUse"><stop stop-color="#fff" stop-opacity=".68"/><stop offset=".4" stop-color="#f6dfbd" stop-opacity=".28"/><stop offset="1" stop-color="#9bb7d6" stop-opacity=".06"/></linearGradient><linearGradient id="k" x1="120" x2="1260" y1="215" y2="290" gradientUnits="userSpaceOnUse"><stop stop-color="#fff" stop-opacity=".06"/><stop offset=".34" stop-color="#dcecff" stop-opacity=".42"/><stop offset=".72" stop-color="#9bb7d6" stop-opacity=".16"/><stop offset="1" stop-color="#fff" stop-opacity=".03"/></linearGradient><linearGradient id="o" x1="1290" x2="160" y1="300" y2="430" gradientUnits="userSpaceOnUse"><stop stop-color="#fff7e8" stop-opacity=".05"/><stop offset=".3" stop-color="#f5dbb7" stop-opacity=".4"/><stop offset=".76" stop-color="#b98960" stop-opacity=".17"/><stop offset="1" stop-color="#fff" stop-opacity=".04"/></linearGradient><linearGradient id="r" x1="100" x2="1270" y1="400" y2="500" gradientUnits="userSpaceOnUse"><stop stop-color="#ffe1bb" stop-opacity=".06"/><stop offset=".38" stop-color="#d2a477" stop-opacity=".34"/><stop offset=".72" stop-color="#6f4930" stop-opacity=".2"/><stop offset="1" stop-color="#fff" stop-opacity=".03"/></linearGradient><linearGradient id="v" x1="-28" x2="28" y1="-112" y2="0" gradientUnits="userSpaceOnUse"><stop stop-color="#d5f4df" stop-opacity=".58"/><stop offset=".34" stop-color="#6ea783" stop-opacity=".42"/><stop offset="1" stop-color="#17392b" stop-opacity=".78"/></linearGradient><linearGradient id="z" x1="-24" x2="22" y1="-110" y2="-4" gradientUnits="userSpaceOnUse"><stop stop-color="#fff" stop-opacity=".82"/><stop offset=".42" stop-color="#baf4cf" stop-opacity=".38"/><stop offset="1" stop-color="#4a7f62" stop-opacity=".12"/></linearGradient><clipPath id="j"><use href="#a"/></clipPath><clipPath id="n"><use href="#b"/></clipPath><clipPath id="q"><use href="#c"/></clipPath><clipPath id="t"><use href="#d"/></clipPath><clipPath id="x"><use href="#e"/></clipPath><path id="a" d="M0 238c45-5 75-18 107-44 29-24 48-44 84-43 43 1 62 29 93 45 37 19 69 13 111 26 54 16 96 7 139-9 39-15 61-41 101-44 45-4 70 14 108 27 48 17 82 6 128 10 55 5 88 21 145 7 47-11 72-40 115-53 47-14 77 6 119 17 46 12 100 4 210 25v318H0Z"/><path id="b" d="M0 337c61-22 102-28 158-21 49 6 82 25 136 19 45-5 74-24 118-22 55 3 83 24 134 13 52-12 77-51 132-57 59-7 90 25 142 31 49 5 83-13 130-2 50 12 76 43 130 40 58-3 86-35 143-39 60-5 107 11 237 2v219H0Z"/><path id="c" d="M0 421c52-11 93-15 137-7 50 10 79 30 132 23 45-6 70-23 116-18 56 7 84 26 137 13 44-11 67-40 115-46 52-7 83 19 130 17 51-2 72-28 122-23 51 5 75 33 128 36 56 4 82-20 132-17 55 3 82 21 131 10 48-10 87-29 180-12v123H0Z"/><path id="d" d="M0 472c54-7 102-13 151-6 43 6 71 17 117 11 48-6 75-20 122-14 43 6 66 20 112 15 44-5 66-27 113-28 48-2 73 19 120 16 48-3 70-21 115-17 47 4 74 21 121 21 49 0 74-16 121-15 50 1 78 15 128 10 50-6 92-20 220-7v62H0Z"/><path id="e" d="M-9 0v-49h-14c-4 0-7-3-7-7v-11.5c0-4.5 3-7.5 6.5-7.5s6.5 3 6.5 7.5v5.5h8v-47c0-5 4-9 9-9s9 4 9 9v37h8v-10c0-4 3-7 6.5-7s6.5 3 6.5 7v21c0 4-3 7-7 7H9V0Z"/><filter id="i" width="124%" height="150%" x="-12%" y="-20%" color-interpolation-filters="sRGB"><feDropShadow dx="0" dy="-3" flood-color="#dcecff" flood-opacity=".12" result="light" stdDeviation="8"/><feDropShadow dx="0" dy="10" flood-color="#0b0705" flood-opacity=".36" in="light" result="drops" stdDeviation="12"/><feGaussianBlur in="SourceAlpha" result="alphaLight" stdDeviation="10"/><feOffset dy="-12" in="alphaLight" result="lightOffset"/><feComposite in="lightOffset" in2="SourceAlpha" k2="-1" k3="1" operator="arithmetic" result="lightMask"/><feFlood flood-color="#fff4de" flood-opacity=".18" result="lightColor"/><feComposite in="lightColor" in2="lightMask" operator="in" result="innerLight"/><feGaussianBlur in="SourceAlpha" result="alphaShadow" stdDeviation="12"/><feOffset dy="13" in="alphaShadow" result="shadowOffset"/><feComposite in="shadowOffset" in2="SourceAlpha" k2="-1" k3="1" operator="arithmetic" result="shadowMask"/><feFlood flood-color="#2b160d" flood-opacity=".32" result="shadowColor"/><feComposite in="shadowColor" in2="shadowMask" operator="in" result="innerShadow"/><feBlend in="innerLight" in2="drops" result="lit"/><feBlend in="innerShadow" in2="lit"/></filter><filter id="w" width="300%" height="180%" x="-100%" y="-35%" color-interpolation-filters="sRGB"><feDropShadow dx="-4" dy="-3" flood-color="#a8f5c6" flood-opacity=".18" result="glow" stdDeviation="5"/><feDropShadow dx="4" dy="8" flood-color="#082618" flood-opacity=".55" in="glow" result="drops" stdDeviation="7"/><feGaussianBlur in="SourceAlpha" result="alpha" stdDeviation="5"/><feOffset dx="-5" dy="-7" in="alpha" result="offset"/><feComposite in="offset" in2="SourceAlpha" k2="-1" k3="1" operator="arithmetic" result="mask"/><feFlood flood-color="#d9ffe8" flood-opacity=".34" result="color"/><feComposite in="color" in2="mask" operator="in" result="inner"/><feBlend in="inner" in2="drops"/></filter><filter id="y" width="220%" height="220%" x="-60%" y="-60%"><feGaussianBlur stdDeviation="7"/></filter><filter id="l" width="120%" height="300%" x="-10%" y="-100%"><feDropShadow dx="0" dy="2" flood-color="#1b0e08" flood-opacity=".28" stdDeviation="2.5"/><feDropShadow dx="0" dy="-1" flood-color="#fff5e5" flood-opacity=".12" stdDeviation="1.5"/></filter></defs><path fill="url(#f)" d="M0 0h1440v520H0z"/><image width="1440" height="230" y="-40" href="/home/small-stars.svg" opacity=".55" preserveAspectRatio="xMidYMin slice"/><image width="34" height="34" x="234" y="18" href="/home/star.svg" opacity=".75"/><image width="30" height="30" x="996" y="8" href="/home/star.svg" opacity=".7"/><image width="22" height="22" x="744" y="74" href="/home/star.svg" opacity=".55"/><use fill="url(#g)" stroke="url(#h)" stroke-width="2" filter="url(#i)" href="#a"/><g stroke="url(#k)" stroke-linecap="round" clip-path="url(#j)" filter="url(#l)"><path stroke-width="1.5" d="M28 235c45-8 71-25 105-44 31-17 57-24 91-16 30 7 48 27 78 34 31 7 59-2 92 8"/><path stroke-width="1.15" d="M52 251c43-9 72-25 108-40 31-13 60-15 91-5 29 10 48 27 79 31 28 4 56-5 88 2" opacity=".78"/><path d="M84 269c49-10 82-26 120-35 37-8 66-2 98 12 35 15 67 13 108 11" opacity=".58"/><path stroke-width="1.55" d="M382 244c50 4 80-5 117-25 35-19 67-34 107-27 37 6 57 30 93 34 38 5 65-9 105-8"/><path stroke-width="1.1" d="M410 263c44 6 78-2 116-20s68-26 104-15c33 10 54 28 88 29 31 1 59-11 96-6" opacity=".72"/><path stroke-width="1.45" d="M746 236c44-4 75 4 111 11 38 8 73 3 108-12 42-19 69-45 113-48 42-3 71 22 110 28 41 7 79-6 124 2"/><path stroke-width="1.05" d="M771 257c42-2 71 8 108 13 40 5 73-3 109-20 37-18 66-32 103-26 35 6 58 27 93 30 38 3 70-12 114-4" opacity=".68"/><path stroke-width=".9" d="M1014 280c34-17 58-34 91-36 37-2 62 22 98 27 42 6 77-8 128 4" opacity=".5"/></g><use fill="url(#m)" stroke="url(#h)" stroke-width="2" filter="url(#i)" href="#b"/><g stroke="url(#o)" stroke-linecap="round" clip-path="url(#n)" filter="url(#l)"><path stroke-width="1.5" d="M22 349c52-15 91-17 135-7 41 10 70 24 113 19 47-5 75-27 120-25"/><path stroke-width="1.05" d="M45 367c45-13 83-12 124-1 37 10 67 22 107 17 42-5 71-24 112-22" opacity=".7"/><path stroke-width="1.55" d="M286 353c43 7 75 4 111-11 37-15 69-34 108-29 39 4 61 32 99 34 36 2 63-18 101-16"/><path stroke-width="1.1" d="M309 375c39 6 72 1 108-14 35-15 65-24 98-14 31 9 53 29 86 29 35 0 62-19 100-14" opacity=".75"/><path stroke-width="1.45" d="M612 326c39-13 67-18 102-8 39 11 60 36 99 39 44 4 72-20 113-16 37 4 61 29 98 31 40 2 68-22 110-21"/><path d="M639 349c35-9 64-9 96 4 33 13 55 32 91 31 39-1 67-20 103-13 34 7 56 29 91 30 36 1 66-18 106-14" opacity=".65"/><path stroke-width="1.3" d="M1007 334c39-12 71-16 108-8 41 8 71 24 114 18 45-6 75-24 124-19"/><path stroke-width=".95" d="M1033 358c37-10 68-9 103 1 37 11 68 21 107 14 40-7 70-20 113-13" opacity=".58"/></g><use fill="url(#p)" stroke="url(#h)" stroke-width="2" filter="url(#i)" href="#c"/><g stroke="url(#r)" stroke-linecap="round" clip-path="url(#q)" filter="url(#l)"><path stroke-width="1.35" d="M18 435c39-8 70-9 104-2 38 8 65 23 104 21 42-2 68-19 108-17"/><path stroke-width=".9" d="M42 450c35-6 63-4 96 4 35 9 63 18 98 13s61-18 98-13" opacity=".62"/><path stroke-width="1.3" d="M303 447c39 5 67 1 99-12 37-15 65-31 102-24 34 7 57 28 93 27 35-1 60-19 98-16"/><path stroke-width=".9" d="M334 463c34 4 62-1 93-13 32-12 61-20 91-11 31 9 53 25 85 23 31-2 58-16 92-11" opacity=".65"/><path stroke-width="1.25" d="M668 436c33-9 60-8 91 3 34 12 57 27 92 26 37-2 60-19 96-15 35 4 58 21 94 21 37 0 64-16 104-11"/><path stroke-width=".95" d="M965 437c35-7 61-5 92 7 34 13 58 23 94 18 37-5 60-21 98-18 37 3 63 18 110 13" opacity=".6"/></g><use fill="url(#s)" stroke="url(#h)" stroke-width="1.5" href="#d"/><g clip-path="url(#t)"><g stroke="url(#r)" stroke-linecap="round" filter="url(#l)"><path stroke-width="1.05" d="M22 484c43-7 75-4 113 4 38 9 70 10 108 1 41-10 72-14 112-6" opacity=".66"/><path d="M306 490c40 4 69-2 102-12 35-10 64-10 99 2 34 12 63 13 100 4" opacity=".62"/><path stroke-width="1.05" d="M574 478c35-7 62-3 94 7 36 11 65 12 102 2 35-10 65-12 104-3" opacity=".65"/><path stroke-width=".95" d="M848 490c37 5 67 0 101-9 36-10 68-8 103 3 39 12 72 9 111 1" opacity=".58"/><path d="M1125 481c36-8 65-5 98 5 35 10 68 12 108 1 31-8 57-10 88-6" opacity=".6"/></g><path fill="url(#u)" d="M0 478h1440v29H0z"/><path fill="#201710" d="M0 506h1440v14H0z"/></g><g transform="matrix(.9 0 0 .9 210 308)"><use fill="url(#v)" filter="url(#w)" href="#e"/><g clip-path="url(#x)" filter="url(#y)"><ellipse cx="-8" cy="-93" fill="#c9f6d8" opacity=".24" rx="15" ry="38"/><ellipse cx="19" cy="-47" fill="#0b4d30" opacity=".48" rx="18" ry="37"/></g><use stroke="url(#z)" stroke-width="1.4" href="#e"/></g><g transform="translate(1170 329)scale(1.15)"><use fill="url(#v)" filter="url(#w)" href="#e"/><g clip-path="url(#x)" filter="url(#y)"><ellipse cx="-8" cy="-93" fill="#c9f6d8" opacity=".24" rx="15" ry="38"/><ellipse cx="19" cy="-47" fill="#0b4d30" opacity=".48" rx="18" ry="37"/></g><use stroke="url(#z)" stroke-width="1.4" href="#e"/></g><g transform="matrix(.7 0 0 .7 640 410)"><use fill="url(#v)" filter="url(#w)" href="#e"/><g clip-path="url(#x)" filter="url(#y)"><ellipse cx="-8" cy="-93" fill="#c9f6d8" opacity=".24" rx="15" ry="38"/><ellipse cx="19" cy="-47" fill="#0b4d30" opacity=".48" rx="18" ry="37"/></g><use stroke="url(#z)" stroke-width="1.4" href="#e"/></g><path fill="#201710" d="M0 519h1440v1H0z"/></svg>