<svg xmlns="http://www.w3.org/2000/svg" viewBox="0 0 1440 520" fill="none">
  <defs>
    <linearGradient id="sky" x1="720" y1="0" x2="720" y2="520" gradientUnits="userSpaceOnUse">
      <stop stop-color="#5c6e86"/>
      <stop offset=".3" stop-color="#4a4f61"/>
      <stop offset=".55" stop-color="#3b3327"/>
      <stop offset="1" stop-color="#201710"/>
    </linearGradient>
    <linearGradient id="far" x1="180" y1="145" x2="980" y2="430" gradientUnits="userSpaceOnUse">
      <stop stop-color="#c9ddf5" stop-opacity=".34"/>
      <stop offset=".48" stop-color="#8191aa" stop-opacity=".22"/>
      <stop offset="1" stop-color="#303747" stop-opacity=".58"/>
    </linearGradient>
    <linearGradient id="mid" x1="240" y1="235" x2="1050" y2="500" gradientUnits="userSpaceOnUse">
      <stop stop-color="#f4d8ae" stop-opacity=".42"/>
      <stop offset=".5" stop-color="#9d7d5f" stop-opacity=".3"/>
      <stop offset="1" stop-color="#4e3929" stop-opacity=".72"/>
    </linearGradient>
    <linearGradient id="near" x1="260" y1="345" x2="1100" y2="540" gradientUnits="userSpaceOnUse">
      <stop stop-color="#d5aa79" stop-opacity=".38"/>
      <stop offset=".5" stop-color="#6f4e35" stop-opacity=".48"/>
      <stop offset="1" stop-color="#2a1d15" stop-opacity=".9"/>
    </linearGradient>
    <linearGradient id="ground" x1="180" y1="430" x2="1180" y2="540" gradientUnits="userSpaceOnUse">
      <stop stop-color="#765037" stop-opacity=".56"/>
      <stop offset=".45" stop-color="#332219" stop-opacity=".86"/>
      <stop offset="1" stop-color="#201710"/>
    </linearGradient>
    <linearGradient id="edge" x1="160" y1="170" x2="1120" y2="330" gradientUnits="userSpaceOnUse">
      <stop stop-color="#fff" stop-opacity=".68"/>
      <stop offset=".4" stop-color="#f6dfbd" stop-opacity=".28"/>
      <stop offset="1" stop-color="#9bb7d6" stop-opacity=".06"/>
    </linearGradient>
    <linearGradient id="cactusFill" x1="-28" y1="-112" x2="28" y2="0" gradientUnits="userSpaceOnUse">
      <stop stop-color="#d5f4df" stop-opacity=".58"/>
      <stop offset=".34" stop-color="#6ea783" stop-opacity=".42"/>
      <stop offset="1" stop-color="#17392b" stop-opacity=".78"/>
    </linearGradient>
    <linearGradient id="cactusEdge" x1="-24" y1="-110" x2="22" y2="-4" gradientUnits="userSpaceOnUse">
      <stop stop-color="#fff" stop-opacity=".82"/>
      <stop offset=".42" stop-color="#baf4cf" stop-opacity=".38"/>
      <stop offset="1" stop-color="#4a7f62" stop-opacity=".12"/>
    </linearGradient>
    <filter id="duneGlass" x="-12%" y="-20%" width="124%" height="150%" color-interpolation-filters="sRGB">
      <feDropShadow dx="0" dy="-3" stdDeviation="8" flood-color="#dcecff" flood-opacity=".12" result="light"/>
      <feDropShadow in="light" dx="0" dy="10" stdDeviation="12" flood-color="#0b0705" flood-opacity=".36" result="drops"/>
      <feGaussianBlur in="SourceAlpha" stdDeviation="10" result="alphaLight"/>
      <feOffset in="alphaLight" dy="-12" result="lightOffset"/>
      <feComposite in="lightOffset" in2="SourceAlpha" operator="arithmetic" k2="-1" k3="1" result="lightMask"/>
      <feFlood flood-color="#fff4de" flood-opacity=".18" result="lightColor"/>
      <feComposite in="lightColor" in2="lightMask" operator="in" result="innerLight"/>
      <feGaussianBlur in="SourceAlpha" stdDeviation="12" result="alphaShadow"/>
      <feOffset in="alphaShadow" dy="13" result="shadowOffset"/>
      <feComposite in="shadowOffset" in2="SourceAlpha" operator="arithmetic" k2="-1" k3="1" result="shadowMask"/>
      <feFlood flood-color="#2b160d" flood-opacity=".32" result="shadowColor"/>
      <feComposite in="shadowColor" in2="shadowMask" operator="in" result="innerShadow"/>
      <feBlend in="innerLight" in2="drops" result="lit"/>
      <feBlend in="innerShadow" in2="lit"/>
    </filter>
    <filter id="cactusGlass" x="-100%" y="-35%" width="300%" height="180%" color-interpolation-filters="sRGB">
      <feDropShadow dx="-4" dy="-3" stdDeviation="5" flood-color="#a8f5c6" flood-opacity=".18" result="glow"/>
      <feDropShadow in="glow" dx="4" dy="8" stdDeviation="7" flood-color="#082618" flood-opacity=".55" result="drops"/>
      <feGaussianBlur in="SourceAlpha" stdDeviation="5" result="alpha"/>
      <feOffset in="alpha" dx="-5" dy="-7" result="offset"/>
      <feComposite in="offset" in2="SourceAlpha" operator="arithmetic" k2="-1" k3="1" result="mask"/>
      <feFlood flood-color="#d9ffe8" flood-opacity=".34" result="color"/>
      <feComposite in="color" in2="mask" operator="in" result="inner"/>
      <feBlend in="inner" in2="drops"/>
    </filter>
    <filter id="softColor" x="-60%" y="-60%" width="220%" height="220%"><feGaussianBlur stdDeviation="7"/></filter>
    <path id="cactus" d="M-9 0v-49h-14c-4 0-7-3-7-7v-11.5c0-4.5 3-7.5 6.5-7.5s6.5 3 6.5 7.5v5.5h8v-47c0-5 4-9 9-9s9 4 9 9v37h8v-10c0-4 3-7 6.5-7s6.5 3 6.5 7v21c0 4-3 7-7 7H9V0Z"/>
    <clipPath id="cactusClip"><use href="#cactus"/></clipPath>
  </defs>
  <rect width="1440" height="520" fill="url(#sky)"/>
  <image href="/home/small-stars.svg" x="0" y="-40" width="1440" height="230" preserveAspectRatio="xMidYMin slice" opacity=".55"/>
  <image href="/home/star.svg" x="234" y="18" width="34" height="34" opacity=".75"/>
  <image href="/home/star.svg" x="996" y="8" width="30" height="30" opacity=".7"/>
  <image href="/home/star.svg" x="744" y="74" width="22" height="22" opacity=".55"/>
  <path d="M0 214C240 156 470 246 720 196c248-48 480 44 720-12v336H0Z" fill="url(#far)" stroke="url(#edge)" stroke-width="2" filter="url(#duneGlass)"/>
  <path d="M0 304c300-52 520 40 782-12 242-46 462 40 658-4v232H0Z" fill="url(#mid)" stroke="url(#edge)" stroke-width="2" filter="url(#duneGlass)"/>
  <path d="M0 404c262-42 502 30 764-8 250-36 468 28 676-4v128H0Z" fill="url(#near)" stroke="url(#edge)" stroke-width="2" filter="url(#duneGlass)"/>
  <path d="M0 462c300-20 620 14 900-6 252-18 400 10 540-4v68H0Z" fill="url(#ground)" stroke="url(#edge)" stroke-width="1.5"/>
  <g transform="translate(210 318) scale(.9)"><use href="#cactus" fill="url(#cactusFill)" filter="url(#cactusGlass)"/><g clip-path="url(#cactusClip)" filter="url(#softColor)"><ellipse cx="-8" cy="-93" rx="15" ry="38" fill="#c9f6d8" opacity=".24"/><ellipse cx="19" cy="-47" rx="18" ry="37" fill="#0b4d30" opacity=".48"/></g><use href="#cactus" fill="none" stroke="url(#cactusEdge)" stroke-width="1.4"/></g>
  <g transform="translate(1170 300) scale(1.15)"><use href="#cactus" fill="url(#cactusFill)" filter="url(#cactusGlass)"/><g clip-path="url(#cactusClip)" filter="url(#softColor)"><ellipse cx="-8" cy="-93" rx="15" ry="38" fill="#c9f6d8" opacity=".24"/><ellipse cx="19" cy="-47" rx="18" ry="37" fill="#0b4d30" opacity=".48"/></g><use href="#cactus" fill="none" stroke="url(#cactusEdge)" stroke-width="1.4"/></g>
  <g transform="translate(640 410) scale(.7)"><use href="#cactus" fill="url(#cactusFill)" filter="url(#cactusGlass)"/><g clip-path="url(#cactusClip)" filter="url(#softColor)"><ellipse cx="-8" cy="-93" rx="15" ry="38" fill="#c9f6d8" opacity=".24"/><ellipse cx="19" cy="-47" rx="18" ry="37" fill="#0b4d30" opacity=".48"/></g><use href="#cactus" fill="none" stroke="url(#cactusEdge)" stroke-width="1.4"/></g>
  <rect y="519" width="1440" height="1" fill="#201710"/>
</svg>
