<svg xmlns="http://www.w3.org/2000/svg" viewBox="0 0 1440 520" fill="none">
  <defs>
    <linearGradient id="sky" x1="720" y1="0" x2="720" y2="520" gradientUnits="userSpaceOnUse">
      <stop stop-color="#5c6e86"/>
      <stop offset=".3" stop-color="#4a4f61"/>
      <stop offset=".55" stop-color="#3b3327"/>
      <stop offset="1" stop-color="#201710"/>
    </linearGradient>
    <linearGradient id="far" x1="70" y1="150" x2="1180" y2="370" gradientUnits="userSpaceOnUse">
      <stop stop-color="#c9ddf5" stop-opacity=".34"/>
      <stop offset=".48" stop-color="#8191aa" stop-opacity=".22"/>
      <stop offset="1" stop-color="#303747" stop-opacity=".58"/>
    </linearGradient>
    <linearGradient id="mid" x1="1340" y1="250" x2="210" y2="470" gradientUnits="userSpaceOnUse">
      <stop stop-color="#f4d8ae" stop-opacity=".42"/>
      <stop offset=".5" stop-color="#9d7d5f" stop-opacity=".3"/>
      <stop offset="1" stop-color="#4e3929" stop-opacity=".72"/>
    </linearGradient>
    <linearGradient id="near" x1="120" y1="330" x2="1240" y2="510" gradientUnits="userSpaceOnUse">
      <stop stop-color="#d5aa79" stop-opacity=".38"/>
      <stop offset=".5" stop-color="#6f4e35" stop-opacity=".48"/>
      <stop offset="1" stop-color="#2a1d15" stop-opacity=".9"/>
    </linearGradient>
    <linearGradient id="ground" x1="1320" y1="420" x2="280" y2="520" gradientUnits="userSpaceOnUse">
      <stop stop-color="#765037" stop-opacity=".56"/>
      <stop offset=".45" stop-color="#332219" stop-opacity=".86"/>
      <stop offset="1" stop-color="#201710"/>
    </linearGradient>
    <linearGradient id="groundBlend" x1="720" y1="478" x2="720" y2="507" gradientUnits="userSpaceOnUse">
      <stop stop-color="#201710" stop-opacity="0"/>
      <stop offset="1" stop-color="#201710"/>
    </linearGradient>
    <linearGradient id="edge" x1="160" y1="170" x2="1120" y2="330" gradientUnits="userSpaceOnUse">
      <stop stop-color="#fff" stop-opacity=".68"/>
      <stop offset=".4" stop-color="#f6dfbd" stop-opacity=".28"/>
      <stop offset="1" stop-color="#9bb7d6" stop-opacity=".06"/>
    </linearGradient>
    <linearGradient id="coolGroove" x1="120" y1="215" x2="1260" y2="290" gradientUnits="userSpaceOnUse">
      <stop stop-color="#fff" stop-opacity=".06"/>
      <stop offset=".34" stop-color="#dcecff" stop-opacity=".42"/>
      <stop offset=".72" stop-color="#9bb7d6" stop-opacity=".16"/>
      <stop offset="1" stop-color="#fff" stop-opacity=".03"/>
    </linearGradient>
    <linearGradient id="warmGroove" x1="1290" y1="300" x2="160" y2="430" gradientUnits="userSpaceOnUse">
      <stop stop-color="#fff7e8" stop-opacity=".05"/>
      <stop offset=".3" stop-color="#f5dbb7" stop-opacity=".4"/>
      <stop offset=".76" stop-color="#b98960" stop-opacity=".17"/>
      <stop offset="1" stop-color="#fff" stop-opacity=".04"/>
    </linearGradient>
    <linearGradient id="deepGroove" x1="100" y1="400" x2="1270" y2="500" gradientUnits="userSpaceOnUse">
      <stop stop-color="#ffe1bb" stop-opacity=".06"/>
      <stop offset=".38" stop-color="#d2a477" stop-opacity=".34"/>
      <stop offset=".72" stop-color="#6f4930" stop-opacity=".2"/>
      <stop offset="1" stop-color="#fff" stop-opacity=".03"/>
    </linearGradient>
    <linearGradient id="cactusFill" x1="-28" y1="-112" x2="28" y2="0" gradientUnits="userSpaceOnUse">
      <stop stop-color="#d5f4df" stop-opacity=".58"/>
      <stop offset=".34" stop-color="#6ea783" stop-opacity=".42"/>
      <stop offset="1" stop-color="#17392b" stop-opacity=".78"/>
    </linearGradient>
    <linearGradient id="cactusEdge" x1="-24" y1="-110" x2="22" y2="-4" gradientUnits="userSpaceOnUse">
      <stop stop-color="#fff" stop-opacity=".82"/>
      <stop offset=".42" stop-color="#baf4cf" stop-opacity=".38"/>
      <stop offset="1" stop-color="#4a7f62" stop-opacity=".12"/>
    </linearGradient>
    <filter id="duneGlass" x="-12%" y="-20%" width="124%" height="150%" color-interpolation-filters="sRGB">
      <feDropShadow dx="0" dy="-3" stdDeviation="8" flood-color="#dcecff" flood-opacity=".12" result="light"/>
      <feDropShadow in="light" dx="0" dy="10" stdDeviation="12" flood-color="#0b0705" flood-opacity=".36" result="drops"/>
      <feGaussianBlur in="SourceAlpha" stdDeviation="10" result="alphaLight"/>
      <feOffset in="alphaLight" dy="-12" result="lightOffset"/>
      <feComposite in="lightOffset" in2="SourceAlpha" operator="arithmetic" k2="-1" k3="1" result="lightMask"/>
      <feFlood flood-color="#fff4de" flood-opacity=".18" result="lightColor"/>
      <feComposite in="lightColor" in2="lightMask" operator="in" result="innerLight"/>
      <feGaussianBlur in="SourceAlpha" stdDeviation="12" result="alphaShadow"/>
      <feOffset in="alphaShadow" dy="13" result="shadowOffset"/>
      <feComposite in="shadowOffset" in2="SourceAlpha" operator="arithmetic" k2="-1" k3="1" result="shadowMask"/>
      <feFlood flood-color="#2b160d" flood-opacity=".32" result="shadowColor"/>
      <feComposite in="shadowColor" in2="shadowMask" operator="in" result="innerShadow"/>
      <feBlend in="innerLight" in2="drops" result="lit"/>
      <feBlend in="innerShadow" in2="lit"/>
    </filter>
    <filter id="cactusGlass" x="-100%" y="-35%" width="300%" height="180%" color-interpolation-filters="sRGB">
      <feDropShadow dx="-4" dy="-3" stdDeviation="5" flood-color="#a8f5c6" flood-opacity=".18" result="glow"/>
      <feDropShadow in="glow" dx="4" dy="8" stdDeviation="7" flood-color="#082618" flood-opacity=".55" result="drops"/>
      <feGaussianBlur in="SourceAlpha" stdDeviation="5" result="alpha"/>
      <feOffset in="alpha" dx="-5" dy="-7" result="offset"/>
      <feComposite in="offset" in2="SourceAlpha" operator="arithmetic" k2="-1" k3="1" result="mask"/>
      <feFlood flood-color="#d9ffe8" flood-opacity=".34" result="color"/>
      <feComposite in="color" in2="mask" operator="in" result="inner"/>
      <feBlend in="inner" in2="drops"/>
    </filter>
    <filter id="softColor" x="-60%" y="-60%" width="220%" height="220%"><feGaussianBlur stdDeviation="7"/></filter>
    <filter id="grooveGlow" x="-10%" y="-100%" width="120%" height="300%"><feDropShadow dx="0" dy="2" stdDeviation="2.5" flood-color="#1b0e08" flood-opacity=".28"/><feDropShadow dx="0" dy="-1" stdDeviation="1.5" flood-color="#fff5e5" flood-opacity=".12"/></filter>
    <path id="farDune" d="M0 238c45-5 75-18 107-44 29-24 48-44 84-43 43 1 62 29 93 45 37 19 69 13 111 26 54 16 96 7 139-9 39-15 61-41 101-44 45-4 70 14 108 27 48 17 82 6 128 10 55 5 88 21 145 7 47-11 72-40 115-53 47-14 77 6 119 17 46 12 100 4 210 25v318H0Z"/>
    <path id="midDune" d="M0 337c61-22 102-28 158-21 49 6 82 25 136 19 45-5 74-24 118-22 55 3 83 24 134 13 52-12 77-51 132-57 59-7 90 25 142 31 49 5 83-13 130-2 50 12 76 43 130 40 58-3 86-35 143-39 60-5 107 11 237 2v219H0Z"/>
    <path id="nearDune" d="M0 421c52-11 93-15 137-7 50 10 79 30 132 23 45-6 70-23 116-18 56 7 84 26 137 13 44-11 67-40 115-46 52-7 83 19 130 17 51-2 72-28 122-23 51 5 75 33 128 36 56 4 82-20 132-17 55 3 82 21 131 10 48-10 87-29 180-12v123H0Z"/>
    <path id="groundDune" d="M0 472c54-7 102-13 151-6 43 6 71 17 117 11 48-6 75-20 122-14 43 6 66 20 112 15 44-5 66-27 113-28 48-2 73 19 120 16 48-3 70-21 115-17 47 4 74 21 121 21 49 0 74-16 121-15 50 1 78 15 128 10 50-6 92-20 220-7v62H0Z"/>
    <clipPath id="farClip"><use href="#farDune"/></clipPath>
    <clipPath id="midClip"><use href="#midDune"/></clipPath>
    <clipPath id="nearClip"><use href="#nearDune"/></clipPath>
    <clipPath id="groundClip"><use href="#groundDune"/></clipPath>
    <path id="cactus" d="M-9 0v-49h-14c-4 0-7-3-7-7v-11.5c0-4.5 3-7.5 6.5-7.5s6.5 3 6.5 7.5v5.5h8v-47c0-5 4-9 9-9s9 4 9 9v37h8v-10c0-4 3-7 6.5-7s6.5 3 6.5 7v21c0 4-3 7-7 7H9V0Z"/>
    <clipPath id="cactusClip"><use href="#cactus"/></clipPath>
  </defs>
  <rect width="1440" height="520" fill="url(#sky)"/>
  <image href="/home/small-stars.svg" x="0" y="-40" width="1440" height="230" preserveAspectRatio="xMidYMin slice" opacity=".55"/>
  <image href="/home/star.svg" x="234" y="18" width="34" height="34" opacity=".75"/>
  <image href="/home/star.svg" x="996" y="8" width="30" height="30" opacity=".7"/>
  <image href="/home/star.svg" x="744" y="74" width="22" height="22" opacity=".55"/>
  <use href="#farDune" fill="url(#far)" stroke="url(#edge)" stroke-width="2" filter="url(#duneGlass)"/>
  <g clip-path="url(#farClip)" fill="none" stroke="url(#coolGroove)" stroke-linecap="round" filter="url(#grooveGlow)">
    <path d="M28 235c45-8 71-25 105-44 31-17 57-24 91-16 30 7 48 27 78 34 31 7 59-2 92 8" stroke-width="1.5"/>
    <path d="M52 251c43-9 72-25 108-40 31-13 60-15 91-5 29 10 48 27 79 31 28 4 56-5 88 2" stroke-width="1.15" opacity=".78"/>
    <path d="M84 269c49-10 82-26 120-35 37-8 66-2 98 12 35 15 67 13 108 11" stroke-width="1" opacity=".58"/>
    <path d="M382 244c50 4 80-5 117-25 35-19 67-34 107-27 37 6 57 30 93 34 38 5 65-9 105-8" stroke-width="1.55"/>
    <path d="M410 263c44 6 78-2 116-20 38-18 68-26 104-15 33 10 54 28 88 29 31 1 59-11 96-6" stroke-width="1.1" opacity=".72"/>
    <path d="M746 236c44-4 75 4 111 11 38 8 73 3 108-12 42-19 69-45 113-48 42-3 71 22 110 28 41 7 79-6 124 2" stroke-width="1.45"/>
    <path d="M771 257c42-2 71 8 108 13 40 5 73-3 109-20 37-18 66-32 103-26 35 6 58 27 93 30 38 3 70-12 114-4" stroke-width="1.05" opacity=".68"/>
    <path d="M1014 280c34-17 58-34 91-36 37-2 62 22 98 27 42 6 77-8 128 4" stroke-width=".9" opacity=".5"/>
  </g>
  <use href="#midDune" fill="url(#mid)" stroke="url(#edge)" stroke-width="2" filter="url(#duneGlass)"/>
  <g clip-path="url(#midClip)" fill="none" stroke="url(#warmGroove)" stroke-linecap="round" filter="url(#grooveGlow)">
    <path d="M22 349c52-15 91-17 135-7 41 10 70 24 113 19 47-5 75-27 120-25" stroke-width="1.5"/>
    <path d="M45 367c45-13 83-12 124-1 37 10 67 22 107 17 42-5 71-24 112-22" stroke-width="1.05" opacity=".7"/>
    <path d="M286 353c43 7 75 4 111-11 37-15 69-34 108-29 39 4 61 32 99 34 36 2 63-18 101-16" stroke-width="1.55"/>
    <path d="M309 375c39 6 72 1 108-14 35-15 65-24 98-14 31 9 53 29 86 29 35 0 62-19 100-14" stroke-width="1.1" opacity=".75"/>
    <path d="M612 326c39-13 67-18 102-8 39 11 60 36 99 39 44 4 72-20 113-16 37 4 61 29 98 31 40 2 68-22 110-21" stroke-width="1.45"/>
    <path d="M639 349c35-9 64-9 96 4 33 13 55 32 91 31 39-1 67-20 103-13 34 7 56 29 91 30 36 1 66-18 106-14" stroke-width="1" opacity=".65"/>
    <path d="M1007 334c39-12 71-16 108-8 41 8 71 24 114 18 45-6 75-24 124-19" stroke-width="1.3"/>
    <path d="M1033 358c37-10 68-9 103 1 37 11 68 21 107 14 40-7 70-20 113-13" stroke-width=".95" opacity=".58"/>
  </g>
  <use href="#nearDune" fill="url(#near)" stroke="url(#edge)" stroke-width="2" filter="url(#duneGlass)"/>
  <g clip-path="url(#nearClip)" fill="none" stroke="url(#deepGroove)" stroke-linecap="round" filter="url(#grooveGlow)">
    <path d="M18 435c39-8 70-9 104-2 38 8 65 23 104 21 42-2 68-19 108-17" stroke-width="1.35"/>
    <path d="M42 450c35-6 63-4 96 4 35 9 63 18 98 13 35-5 61-18 98-13" stroke-width=".9" opacity=".62"/>
    <path d="M303 447c39 5 67 1 99-12 37-15 65-31 102-24 34 7 57 28 93 27 35-1 60-19 98-16" stroke-width="1.3"/>
    <path d="M334 463c34 4 62-1 93-13 32-12 61-20 91-11 31 9 53 25 85 23 31-2 58-16 92-11" stroke-width=".9" opacity=".65"/>
    <path d="M668 436c33-9 60-8 91 3 34 12 57 27 92 26 37-2 60-19 96-15 35 4 58 21 94 21 37 0 64-16 104-11" stroke-width="1.25"/>
    <path d="M965 437c35-7 61-5 92 7 34 13 58 23 94 18 37-5 60-21 98-18 37 3 63 18 110 13" stroke-width=".95" opacity=".6"/>
  </g>
  <use href="#groundDune" fill="url(#ground)" stroke="url(#edge)" stroke-width="1.5"/>
  <g clip-path="url(#groundClip)">
    <g fill="none" stroke="url(#deepGroove)" stroke-linecap="round" filter="url(#grooveGlow)">
      <path d="M22 484c43-7 75-4 113 4 38 9 70 10 108 1 41-10 72-14 112-6" stroke-width="1.05" opacity=".66"/>
      <path d="M306 490c40 4 69-2 102-12 35-10 64-10 99 2 34 12 63 13 100 4" stroke-width="1" opacity=".62"/>
      <path d="M574 478c35-7 62-3 94 7 36 11 65 12 102 2 35-10 65-12 104-3" stroke-width="1.05" opacity=".65"/>
      <path d="M848 490c37 5 67 0 101-9 36-10 68-8 103 3 39 12 72 9 111 1" stroke-width=".95" opacity=".58"/>
      <path d="M1125 481c36-8 65-5 98 5 35 10 68 12 108 1 31-8 57-10 88-6" stroke-width="1" opacity=".6"/>
    </g>
    <rect x="0" y="478" width="1440" height="29" fill="url(#groundBlend)"/>
    <rect x="0" y="506" width="1440" height="14" fill="#201710"/>
  </g>
  <g transform="translate(210 308) scale(.9)"><use href="#cactus" fill="url(#cactusFill)" filter="url(#cactusGlass)"/><g clip-path="url(#cactusClip)" filter="url(#softColor)"><ellipse cx="-8" cy="-93" rx="15" ry="38" fill="#c9f6d8" opacity=".24"/><ellipse cx="19" cy="-47" rx="18" ry="37" fill="#0b4d30" opacity=".48"/></g><use href="#cactus" fill="none" stroke="url(#cactusEdge)" stroke-width="1.4"/></g>
  <g transform="translate(1170 329) scale(1.15)"><use href="#cactus" fill="url(#cactusFill)" filter="url(#cactusGlass)"/><g clip-path="url(#cactusClip)" filter="url(#softColor)"><ellipse cx="-8" cy="-93" rx="15" ry="38" fill="#c9f6d8" opacity=".24"/><ellipse cx="19" cy="-47" rx="18" ry="37" fill="#0b4d30" opacity=".48"/></g><use href="#cactus" fill="none" stroke="url(#cactusEdge)" stroke-width="1.4"/></g>
  <g transform="translate(640 410) scale(.7)"><use href="#cactus" fill="url(#cactusFill)" filter="url(#cactusGlass)"/><g clip-path="url(#cactusClip)" filter="url(#softColor)"><ellipse cx="-8" cy="-93" rx="15" ry="38" fill="#c9f6d8" opacity=".24"/><ellipse cx="19" cy="-47" rx="18" ry="37" fill="#0b4d30" opacity=".48"/></g><use href="#cactus" fill="none" stroke="url(#cactusEdge)" stroke-width="1.4"/></g>
  <rect y="519" width="1440" height="1" fill="#201710"/>
</svg>
