<svg xmlns="http://www.w3.org/2000/svg" viewBox="0 0 40 90" fill="none" shape-rendering="geometricPrecision">
  <defs>
    <linearGradient id="edge" x1="8" y1="4" x2="34" y2="86" gradientUnits="userSpaceOnUse"><stop stop-color="#fff" stop-opacity=".8"/><stop offset=".42" stop-color="#f3d4ae" stop-opacity=".54"/><stop offset="1" stop-color="#9c6037" stop-opacity=".18"/></linearGradient>
    <filter id="glow" x="-80%" y="-30%" width="260%" height="170%"><feDropShadow dx="-2" dy="-2" stdDeviation="4" flood-color="#f3d4ae" flood-opacity=".16"/><feDropShadow dx="3" dy="5" stdDeviation="5" flood-color="#160a05" flood-opacity=".52"/></filter>
  </defs>
  <g stroke="url(#edge)" stroke-width="6" stroke-linecap="round" opacity=".22" filter="url(#glow)"><path d="M20 0c2 24-6 34-2 54 3 16-2 26 2 36M18 30c-8 4-10 12-14 16M19 48c8 4 11 12 15 16M18 66c-6 4-7 10-10 14"/></g>
  <g stroke="url(#edge)" stroke-width="2.2" stroke-linecap="round"><path d="M20 0c2 24-6 34-2 54 3 16-2 26 2 36M18 30c-8 4-10 12-14 16M19 48c8 4 11 12 15 16M18 66c-6 4-7 10-10 14"/></g>
</svg>
