<svg xmlns="http://www.w3.org/2000/svg" fill="none" viewBox="0 0 40 90"><defs><linearGradient id="a" x1="8" x2="34" y1="4" y2="86" gradientUnits="userSpaceOnUse"><stop stop-color="#fff" stop-opacity=".8"/><stop offset=".42" stop-color="#f3d4ae" stop-opacity=".54"/><stop offset="1" stop-color="#9c6037" stop-opacity=".18"/></linearGradient><filter id="b" width="260%" height="170%" x="-80%" y="-30%"><feDropShadow dx="-2" dy="-2" flood-color="#f3d4ae" flood-opacity=".16" stdDeviation="4"/><feDropShadow dx="3" dy="5" flood-color="#160a05" flood-opacity=".52" stdDeviation="5"/></filter></defs><g stroke="url(#a)" stroke-linecap="round" stroke-width="6" filter="url(#b)" opacity=".22"><path d="M20 0c2 24-6 34-2 54 3 16-2 26 2 36m-2-60C10 34 8 42 4 46m15 2c8 4 11 12 15 16m-16 2c-6 4-7 10-10 14"/></g><path stroke="url(#a)" stroke-linecap="round" stroke-width="2.2" d="M20 0c2 24-6 34-2 54 3 16-2 26 2 36m-2-60C10 34 8 42 4 46m15 2c8 4 11 12 15 16m-16 2c-6 4-7 10-10 14"/></svg>