<svg xmlns="http://www.w3.org/2000/svg" viewBox="0 0 100 100" fill="none">
  <defs>
    <radialGradient id="fill" cx="0" cy="0" r="1" gradientTransform="translate(32 25) rotate(48) scale(82)"><stop stop-color="#fff2cf" stop-opacity=".5"/><stop offset=".42" stop-color="#c99758" stop-opacity=".28"/><stop offset="1" stop-color="#5f3d22" stop-opacity=".58"/></radialGradient>
    <linearGradient id="edge" x1="18" y1="12" x2="82" y2="88" gradientUnits="userSpaceOnUse"><stop stop-color="#fff" stop-opacity=".86"/><stop offset=".48" stop-color="#e9bd7a" stop-opacity=".5"/><stop offset="1" stop-color="#7e512d" stop-opacity=".2"/></linearGradient>
    <filter id="glass" x="-30%" y="-30%" width="160%" height="180%" color-interpolation-filters="sRGB"><feDropShadow dx="-2" dy="-2" stdDeviation="3" flood-color="#ffe5b2" flood-opacity=".22" result="light"/><feDropShadow in="light" dx="3" dy="6" stdDeviation="5" flood-color="#1a0e07" flood-opacity=".5" result="drops"/><feGaussianBlur in="SourceAlpha" stdDeviation="4" result="alpha"/><feOffset in="alpha" dx="-4" dy="-5" result="offset"/><feComposite in="offset" in2="SourceAlpha" operator="arithmetic" k2="-1" k3="1" result="mask"/><feFlood flood-color="#fff2cf" flood-opacity=".3" result="color"/><feComposite in="color" in2="mask" operator="in" result="inner"/><feBlend in="inner" in2="drops"/></filter>
    <filter id="blur"><feGaussianBlur stdDeviation="4"/></filter>
  </defs>
  <circle cx="50" cy="50" r="46" fill="url(#fill)" stroke="url(#edge)" stroke-width="2" filter="url(#glass)"/>
  <g stroke="url(#edge)" stroke-width="1.6" stroke-linecap="round" opacity=".7"><circle cx="50" cy="50" r="31"/><path d="M12 44c28-14 50-10 76 2M16 60c26 14 48 10 70-2M40 10c-6 28-2 52 6 80M62 12c8 28 4 52-4 76M20 30l60 42M26 74l52-48"/></g>
  <ellipse cx="38" cy="27" rx="15" ry="7" fill="#fff" opacity=".18" transform="rotate(-22 38 27)" filter="url(#blur)"/>
</svg>
