<svg xmlns="http://www.w3.org/2000/svg" viewBox="0 0 100 100" fill="none" shape-rendering="geometricPrecision">
  <defs>
    <radialGradient id="body" cx="0" cy="0" r="1" gradientTransform="translate(36 30) rotate(47) scale(72)">
      <stop stop-color="#F6D49A" stop-opacity=".34"/>
      <stop offset=".55" stop-color="#B97838" stop-opacity=".22"/>
      <stop offset="1" stop-color="#5A3219" stop-opacity=".38"/>
    </radialGradient>
    <linearGradient id="twig" x1="18" y1="14" x2="82" y2="88" gradientUnits="userSpaceOnUse">
      <stop stop-color="#F5D39A"/>
      <stop offset=".48" stop-color="#C1874C"/>
      <stop offset="1" stop-color="#71401F"/>
    </linearGradient>
  </defs>

  <circle cx="50" cy="50" r="44" fill="url(#body)" stroke="url(#twig)" stroke-width="2.4"/>

  <g stroke="url(#twig)" stroke-linecap="round" stroke-linejoin="round">
    <g stroke-width="2" opacity=".9">
      <path d="M17 35c17-13 43-18 66-4"/>
      <path d="M11 51c20-11 55-12 78 1"/>
      <path d="M17 68c22 10 45 9 66-3"/>
      <path d="M34 13c-10 21-9 53 3 74"/>
      <path d="M52 7c-9 24-8 62 1 86"/>
      <path d="M69 13c11 22 12 52 1 74"/>
    </g>

    <g stroke-width="1.65" opacity=".78">
      <path d="M18 27c20 13 47 34 65 51"/>
      <path d="M12 62c19-15 45-35 72-43"/>
      <path d="M26 82c13-24 32-49 54-61"/>
      <path d="M22 20c25 12 47 38 60 62"/>
      <path d="M9 44c25 8 56 24 77 43"/>
      <path d="M13 75c20-5 54-25 72-49"/>
    </g>

    <g stroke-width="1.25" opacity=".62">
      <path d="M25 31c17 3 34 14 48 31"/>
      <path d="M29 72c14-19 29-31 47-38"/>
      <path d="M39 20c18 16 26 38 24 62"/>
      <path d="M20 55c19 4 41 3 61-5"/>
      <path d="M35 88c7-18 23-39 43-52"/>
      <path d="M16 40c20 18 39 29 68 35"/>
    </g>
  </g>

  <g fill="#EBC58A" opacity=".7">
    <circle cx="26" cy="32" r="1.8"/>
    <circle cx="72" cy="29" r="1.5"/>
    <circle cx="82" cy="55" r="1.7"/>
    <circle cx="65" cy="77" r="1.6"/>
    <circle cx="35" cy="73" r="1.4"/>
    <circle cx="19" cy="54" r="1.5"/>
  </g>
</svg>
