<svg xmlns="http://www.w3.org/2000/svg" fill="none" viewBox="0 0 100 100"><defs><filter id="c" width="160%" height="180%" x="-30%" y="-30%" color-interpolation-filters="sRGB"><feDropShadow dx="-2" dy="-2" flood-color="#ffe5b2" flood-opacity=".22" result="light" stdDeviation="3"/><feDropShadow dx="3" dy="6" flood-color="#1a0e07" flood-opacity=".5" in="light" result="drops" stdDeviation="5"/><feGaussianBlur in="SourceAlpha" result="alpha" stdDeviation="4"/><feOffset dx="-4" dy="-5" in="alpha" result="offset"/><feComposite in="offset" in2="SourceAlpha" k2="-1" k3="1" operator="arithmetic" result="mask"/><feFlood flood-color="#fff2cf" flood-opacity=".3" result="color"/><feComposite in="color" in2="mask" operator="in" result="inner"/><feBlend in="inner" in2="drops"/></filter><filter id="d"><feGaussianBlur stdDeviation="4"/></filter><radialGradient id="a" cx="0" cy="0" r="1" gradientTransform="rotate(48 -12.075 48.437)scale(82)"><stop stop-color="#fff2cf" stop-opacity=".5"/><stop offset=".42" stop-color="#c99758" stop-opacity=".28"/><stop offset="1" stop-color="#5f3d22" stop-opacity=".58"/></radialGradient><linearGradient id="b" x1="18" x2="82" y1="12" y2="88" gradientUnits="userSpaceOnUse"><stop stop-color="#fff" stop-opacity=".86"/><stop offset=".48" stop-color="#e9bd7a" stop-opacity=".5"/><stop offset="1" stop-color="#7e512d" stop-opacity=".2"/></linearGradient></defs><circle cx="50" cy="50" r="46" fill="url(#a)" stroke="url(#b)" stroke-width="2" filter="url(#c)"/><g stroke="url(#b)" stroke-linecap="round" stroke-width="1.6" opacity=".7"><circle cx="50" cy="50" r="31"/><path d="M12 44c28-14 50-10 76 2M16 60c26 14 48 10 70-2M40 10c-6 28-2 52 6 80m16-78c8 28 4 52-4 76M20 30l60 42m-54 2 52-48"/></g><ellipse cx="38" cy="27" fill="#fff" filter="url(#d)" opacity=".18" rx="15" ry="7" transform="rotate(-22 38 27)"/></svg>