<svg xmlns="http://www.w3.org/2000/svg" width="421" height="110" fill="none" viewBox="0 0 421 110"><g filter="url(#a)" shape-rendering="crispEdges"><path fill="url(#b)" d="M374.511 71.946 26 69.046l139.297-17.519a122 122 0 0 0 44.531-14.682l26.018-14.617c24.958-14.022 56.185-9.82 76.55 10.3l1.549 1.53a50.2 50.2 0 0 0 12.515 9.029c13.612 6.925 30.357 6.462 45.291 9.664 10.456 2.241 19.69 7.258 21.803 11.8 3.358 7.219-11.081 7.461-19.043 7.395"/><path stroke="url(#c)" stroke-width="2" d="M236.336 23.1c24.569-13.803 55.31-9.668 75.357 10.138l1.549 1.532a51.2 51.2 0 0 0 12.764 9.207c6.954 3.539 14.674 5.173 22.457 6.327 7.842 1.163 15.648 1.831 23.078 3.424 5.144 1.103 9.976 2.887 13.764 4.94 3.839 2.08 6.429 4.34 7.342 6.305.363.78.446 1.38.387 1.844-.058.453-.262.862-.637 1.248-.794.82-2.291 1.473-4.342 1.94-4.054.925-9.539.975-13.535.941L40.975 68.17l124.447-15.65a123 123 0 0 0 44.896-14.803z"/></g><defs><linearGradient id="b" x1="108.414" x2="371.868" y1="62.557" y2="48.328" gradientUnits="userSpaceOnUse"><stop stop-color="#d9d9d9" stop-opacity=".8"/><stop offset="1" stop-color="#737373" stop-opacity=".6"/></linearGradient><linearGradient id="c" x1="151.012" x2="157.657" y1="7.013" y2="78.04" gradientUnits="userSpaceOnUse"><stop stop-color="#fff" stop-opacity=".8"/><stop offset="1" stop-color="#999" stop-opacity=".09"/></linearGradient><filter id="a" width="420.052" height="109.953" x="0" y="0" color-interpolation-filters="sRGB" filterUnits="userSpaceOnUse"><feFlood flood-opacity="0" result="BackgroundImageFix"/><feColorMatrix in="SourceAlpha" result="hardAlpha" values="0 0 0 0 0 0 0 0 0 0 0 0 0 0 0 0 0 0 127 0"/><feOffset dy="4"/><feGaussianBlur stdDeviation="2"/><feComposite in2="hardAlpha" operator="out"/><feColorMatrix values="0 0 0 0 0 0 0 0 0 0 0 0 0 0 0 0 0 0 0.25 0"/><feBlend in2="BackgroundImageFix" result="effect1_dropShadow_30_3"/><feColorMatrix in="SourceAlpha" result="hardAlpha" values="0 0 0 0 0 0 0 0 0 0 0 0 0 0 0 0 0 0 127 0"/><feOffset dy="12"/><feGaussianBlur stdDeviation="13"/><feComposite in2="hardAlpha" operator="out"/><feColorMatrix values="0 0 0 0 0 0 0 0 0 0 0 0 0 0 0 0 0 0 0.25 0"/><feBlend in2="effect1_dropShadow_30_3" result="effect2_dropShadow_30_3"/><feBlend in="SourceGraphic" in2="effect2_dropShadow_30_3" result="shape"/><feColorMatrix in="SourceAlpha" result="hardAlpha" values="0 0 0 0 0 0 0 0 0 0 0 0 0 0 0 0 0 0 127 0"/><feOffset dx="9" dy="10"/><feGaussianBlur stdDeviation="9.4"/><feComposite in2="hardAlpha" k2="-1" k3="1" operator="arithmetic"/><feColorMatrix values="0 0 0 0 1 0 0 0 0 1 0 0 0 0 1 0 0 0 0.24 0"/><feBlend in2="shape" result="effect3_innerShadow_30_3"/></filter></defs></svg>