<svg xmlns="http://www.w3.org/2000/svg" width="450" height="128" fill="none" viewBox="0 0 450 128"><g filter="url(#a)" shape-rendering="geometricPrecision"><path fill="url(#b)" d="M405.521 88.563H26.8L154.548 67.69a79.4 79.4 0 0 0 43.344-22.218l13.202-13.202c26.033-26.033 69.204-22.492 90.647 7.436 16.595 23.16 48.727 34.714 77.161 36.521 19.772 1.257 38.497 4.375 42.825 7.596 5.324 3.961-9.57 4.741-16.206 4.741"/><path stroke="url(#c)" stroke-width="2" d="M211.801 32.976c25.596-25.596 68.044-22.115 89.128 7.31 16.84 23.505 49.324 35.122 77.91 36.938 9.857.627 19.445 1.716 27.096 3.048 3.826.666 7.153 1.391 9.78 2.143 2.665.762 4.492 1.521 5.416 2.209.53.394.676.644.713.73a.7.7 0 0 1-.113.114c-.229.192-.666.42-1.354.645-.669.22-1.497.412-2.442.58-3.799.675-9.111.87-12.414.87H39.123l115.586-18.886a80.4 80.4 0 0 0 43.891-22.5z"/></g><defs><linearGradient id="b" x1="112.383" x2="385.972" y1="81.82" y2="67.055" gradientUnits="userSpaceOnUse"><stop stop-color="#d9d9d9" stop-opacity=".8"/><stop offset="1" stop-color="#737373" stop-opacity=".6"/></linearGradient><linearGradient id="c" x1="161.275" x2="174.034" y1="-5.225" y2="96.503" gradientUnits="userSpaceOnUse"><stop stop-color="#fff" stop-opacity=".8"/><stop offset="1" stop-color="#999" stop-opacity=".09"/></linearGradient><filter id="a" width="449.656" height="127.363" x="0" y="0" color-interpolation-filters="sRGB" filterUnits="userSpaceOnUse"><feFlood flood-opacity="0" result="BackgroundImageFix"/><feColorMatrix in="SourceAlpha" result="hardAlpha" values="0 0 0 0 0 0 0 0 0 0 0 0 0 0 0 0 0 0 127 0"/><feOffset dy="4"/><feGaussianBlur stdDeviation="2"/><feComposite in2="hardAlpha" operator="out"/><feColorMatrix values="0 0 0 0 0 0 0 0 0 0 0 0 0 0 0 0 0 0 0.25 0"/><feBlend in2="BackgroundImageFix" result="effect1_dropShadow_30_4"/><feColorMatrix in="SourceAlpha" result="hardAlpha" values="0 0 0 0 0 0 0 0 0 0 0 0 0 0 0 0 0 0 127 0"/><feOffset dy="12"/><feGaussianBlur stdDeviation="13.4"/><feComposite in2="hardAlpha" operator="out"/><feColorMatrix values="0 0 0 0 0 0 0 0 0 0 0 0 0 0 0 0 0 0 0.25 0"/><feBlend in2="effect1_dropShadow_30_4" result="effect2_dropShadow_30_4"/><feBlend in="SourceGraphic" in2="effect2_dropShadow_30_4" result="shape"/></filter></defs></svg>