<svg xmlns="http://www.w3.org/2000/svg" width="1280" height="266" fill="none" viewBox="0 0 1280 266"><g filter="url(#a)"><path fill="url(#b)" d="M247.964 119.838c83.556-16.757 82.377-45.404 244.932-56.978 37.463-2.668 46.166 7.175 105.298 0 59.132-7.176 166.308-59.992 245.021-60.317 78.706-.326 154.901 39.754 214.645 50.956 59.73 11.202 105.78 10.75 142.76 19.76 36.98 9.005 79.38 28.078 79.38 28.078v164.299H0V142.708c49.677-26.128 124.678 1.855 247.964-22.87"/></g><path stroke="url(#c)" stroke-linecap="round" stroke-linejoin="round" stroke-opacity=".4" stroke-width="2" d="M843.219 3.542c39.193-.162 77.798 9.737 114.131 21.11 36.268 11.353 70.38 24.215 100.32 29.83 29.92 5.61 56.4 8.3 80 10.714 22.88 2.34 43 4.416 60.98 8.622l1.73.414c18.43 4.487 38.23 11.488 53.43 17.375a655 655 0 0 1 18.6 7.53c2.27.962 4.07 1.741 5.3 2.279.54.239.98.431 1.29.57v162.65H1V143.318c24.478-12.636 55.199-12.207 95.363-11.571 40.377.639 90.041 1.457 151.797-10.928 41.868-8.397 62.636-19.812 92.977-30.47 30.365-10.667 70.618-20.71 151.831-26.492 18.631-1.327 30.07.455 44.365 1.69 14.313 1.235 31.342 1.902 60.981-1.695 29.691-3.603 71.413-18.653 115.354-32.767 44.038-14.146 90.37-27.38 129.551-27.543"/><g filter="url(#d)"><path stroke="url(#e)" stroke-linecap="round" stroke-linejoin="round" stroke-opacity=".4" stroke-width="2" d="M582.485 175.645c295.921-95.616 327.585-15.559 480.275 19.857"/></g><g filter="url(#f)"><path stroke="url(#g)" stroke-linecap="round" stroke-linejoin="round" stroke-opacity=".4" stroke-width="2" d="M418.07 92.986s119.284 12.979 173.39-8.067c165.093-64.22 200.003-50.254 305.698 27.303 35.363 25.95 96.059 38.474 96.059 38.474"/></g><g filter="url(#h)"><path stroke="url(#i)" stroke-linecap="round" stroke-linejoin="round" stroke-opacity=".4" stroke-width="2" d="M740.991 49.273c191.337 53.881-73.726 105.018-191.032 97.58"/></g><g filter="url(#j)"><path stroke="url(#k)" stroke-linecap="round" stroke-linejoin="round" stroke-opacity=".4" stroke-width="2" d="M525.7 102.68c52.857 8.687 110.748-8.111 164.934-19.699 90.676-19.39 64.665 14.832-43.186 26.288-39.099 4.153-86.022 12.493-133.802 4.105"/></g><g filter="url(#l)"><path stroke="url(#m)" stroke-linecap="round" stroke-linejoin="round" stroke-opacity=".4" stroke-width="2" d="M750.968 18.518c63.12-.094 120.126 47.115 179.113 74.73 71.489 33.466 140.489 30.301 209.959 48.729 56.85 15.079 115.58 54.95 115.58 54.95"/></g><g filter="url(#n)"><path stroke="url(#o)" stroke-linecap="round" stroke-linejoin="round" stroke-opacity=".4" stroke-width="2" d="M842.888 3c48.219 1.552 118.342 48.249 186.522 63.074 79.38 17.261 150.36 26.373 234.15 69.559"/></g><defs><linearGradient id="c" x1="428.767" x2="1051.73" y1="-48.691" y2="226.223" gradientUnits="userSpaceOnUse"><stop stop-color="#dca796"/><stop offset=".707" stop-color="#d09d73" stop-opacity=".8"/></linearGradient><linearGradient id="e" x1="743.365" x2="936.33" y1="117.677" y2="246.724" gradientUnits="userSpaceOnUse"><stop stop-color="#dca796"/><stop offset=".707" stop-color="#d09d73" stop-opacity=".8"/></linearGradient><linearGradient id="g" x1="610.73" x2="880.356" y1="23.562" y2="155.749" gradientUnits="userSpaceOnUse"><stop stop-color="#dca796"/><stop offset=".707" stop-color="#d09d73" stop-opacity=".8"/></linearGradient><linearGradient id="i" x1="636.517" x2="778.688" y1="30.13" y2="64.028" gradientUnits="userSpaceOnUse"><stop stop-color="#dca796"/><stop offset=".707" stop-color="#d09d73" stop-opacity=".8"/></linearGradient><linearGradient id="k" x1="591.387" x2="696.865" y1="69.394" y2="125.149" gradientUnits="userSpaceOnUse"><stop stop-color="#dca796"/><stop offset=".707" stop-color="#d09d73" stop-opacity=".8"/></linearGradient><linearGradient id="m" x1="920.012" x2="1195.33" y1="-16.224" y2="54.414" gradientUnits="userSpaceOnUse"><stop stop-color="#dca796"/><stop offset=".707" stop-color="#d09d73" stop-opacity=".8"/></linearGradient><linearGradient id="o" x1="983.802" x2="1209.71" y1="-22.827" y2="42.167" gradientUnits="userSpaceOnUse"><stop stop-color="#dca796"/><stop offset=".707" stop-color="#d09d73" stop-opacity=".8"/></linearGradient><filter id="a" width="1280" height="267.096" x="0" y="2.541" color-interpolation-filters="sRGB" filterUnits="userSpaceOnUse"><feFlood flood-opacity="0" result="BackgroundImageFix"/><feBlend in="SourceGraphic" in2="BackgroundImageFix" result="shape"/><feColorMatrix in="SourceAlpha" result="hardAlpha" values="0 0 0 0 0 0 0 0 0 0 0 0 0 0 0 0 0 0 127 0"/><feOffset dy="4"/><feGaussianBlur stdDeviation="12.5"/><feComposite in2="hardAlpha" k2="-1" k3="1" operator="arithmetic"/><feColorMatrix values="0 0 0 0 0 0 0 0 0 0 0 0 0 0 0 0 0 0 0.25 0"/><feBlend in2="shape" result="effect1_innerShadow_2032_37"/></filter><filter id="d" width="494.275" height="79.141" x="575.485" y="127.361" color-interpolation-filters="sRGB" filterUnits="userSpaceOnUse"><feFlood flood-opacity="0" result="BackgroundImageFix"/><feColorMatrix in="SourceAlpha" result="hardAlpha" values="0 0 0 0 0 0 0 0 0 0 0 0 0 0 0 0 0 0 127 0"/><feOffset dy="4"/><feGaussianBlur stdDeviation="3"/><feColorMatrix values="0 0 0 0 0 0 0 0 0 0 0 0 0 0 0 0 0 0 0.25 0"/><feBlend in2="BackgroundImageFix" result="effect1_dropShadow_2032_37"/><feBlend in="SourceGraphic" in2="effect1_dropShadow_2032_37" result="shape"/></filter><filter id="f" width="589.146" height="120.412" x="411.07" y="41.284" color-interpolation-filters="sRGB" filterUnits="userSpaceOnUse"><feFlood flood-opacity="0" result="BackgroundImageFix"/><feColorMatrix in="SourceAlpha" result="hardAlpha" values="0 0 0 0 0 0 0 0 0 0 0 0 0 0 0 0 0 0 127 0"/><feOffset dy="4"/><feGaussianBlur stdDeviation="3"/><feColorMatrix values="0 0 0 0 0 0 0 0 0 0 0 0 0 0 0 0 0 0 0.25 0"/><feBlend in2="BackgroundImageFix" result="effect1_dropShadow_2032_37"/><feBlend in="SourceGraphic" in2="effect1_dropShadow_2032_37" result="shape"/></filter><filter id="h" width="272.401" height="112.304" x="542.959" y="46.272" color-interpolation-filters="sRGB" filterUnits="userSpaceOnUse"><feFlood flood-opacity="0" result="BackgroundImageFix"/><feColorMatrix in="SourceAlpha" result="hardAlpha" values="0 0 0 0 0 0 0 0 0 0 0 0 0 0 0 0 0 0 127 0"/><feOffset dy="4"/><feGaussianBlur stdDeviation="3"/><feColorMatrix values="0 0 0 0 0 0 0 0 0 0 0 0 0 0 0 0 0 0 0.25 0"/><feBlend in2="BackgroundImageFix" result="effect1_dropShadow_2032_37"/><feBlend in="SourceGraphic" in2="effect1_dropShadow_2032_37" result="shape"/></filter><filter id="j" width="246.082" height="53.825" x="506.646" y="74.15" color-interpolation-filters="sRGB" filterUnits="userSpaceOnUse"><feFlood flood-opacity="0" result="BackgroundImageFix"/><feColorMatrix in="SourceAlpha" result="hardAlpha" values="0 0 0 0 0 0 0 0 0 0 0 0 0 0 0 0 0 0 127 0"/><feOffset dy="4"/><feGaussianBlur stdDeviation="3"/><feColorMatrix values="0 0 0 0 0 0 0 0 0 0 0 0 0 0 0 0 0 0 0.25 0"/><feBlend in2="BackgroundImageFix" result="effect1_dropShadow_2032_37"/><feBlend in="SourceGraphic" in2="effect1_dropShadow_2032_37" result="shape"/></filter><filter id="l" width="518.648" height="192.41" x="743.968" y="15.517" color-interpolation-filters="sRGB" filterUnits="userSpaceOnUse"><feFlood flood-opacity="0" result="BackgroundImageFix"/><feColorMatrix in="SourceAlpha" result="hardAlpha" values="0 0 0 0 0 0 0 0 0 0 0 0 0 0 0 0 0 0 127 0"/><feOffset dy="4"/><feGaussianBlur stdDeviation="3"/><feColorMatrix values="0 0 0 0 0 0 0 0 0 0 0 0 0 0 0 0 0 0 0.25 0"/><feBlend in2="BackgroundImageFix" result="effect1_dropShadow_2032_37"/><feBlend in="SourceGraphic" in2="effect1_dropShadow_2032_37" result="shape"/></filter><filter id="n" width="434.673" height="146.633" x="835.888" y="0" color-interpolation-filters="sRGB" filterUnits="userSpaceOnUse"><feFlood flood-opacity="0" result="BackgroundImageFix"/><feColorMatrix in="SourceAlpha" result="hardAlpha" values="0 0 0 0 0 0 0 0 0 0 0 0 0 0 0 0 0 0 127 0"/><feOffset dy="4"/><feGaussianBlur stdDeviation="3"/><feColorMatrix values="0 0 0 0 0 0 0 0 0 0 0 0 0 0 0 0 0 0 0.25 0"/><feBlend in2="BackgroundImageFix" result="effect1_dropShadow_2032_37"/><feBlend in="SourceGraphic" in2="effect1_dropShadow_2032_37" result="shape"/></filter><radialGradient id="b" cx="0" cy="0" r="1" gradientTransform="matrix(328.23 359.502 -350.005 337.137 503.859 -84.298)" gradientUnits="userSpaceOnUse"><stop stop-color="#b78162"/><stop offset="1" stop-color="#834f51"/></radialGradient></defs></svg>