<svg xmlns="http://www.w3.org/2000/svg" width="1298" height="333" fill="none" viewBox="0 0 1298 333"><g filter="url(#a)"><path fill="url(#b)" d="M4.797 0s87.68 9.906 130.545 12.48 84.365-1.385 126.499 3.117c42.127 4.509 90.47 21.277 125.481 23.92 35.017 2.648 57.592-4.547 82.982-3.119 25.396 1.428 38.594 10.676 68.816 10.4 30.228-.275 62.277-20.25 110.309-18.721 48.026 1.527 123.654 36.704 172.033 40.562s76.395-9.393 114.355-8.322c37.96 1.07 77.743 15.203 112.333 14.558 34.58-.639 59.94-15.66 93.1-15.597 33.16.062 78.9 18.083 103.22 17.676 24.32-.4 40.48-8.315 40.48-8.315V332.78H6.82z"/></g><path stroke="url(#c)" stroke-linecap="round" stroke-linejoin="round" stroke-opacity=".4" stroke-width="2" d="M8.537 1.425A5607.41 5607.41 0 0 0 53.892 6.27c27.278 2.798 59.934 5.92 81.39 7.208 21.473 1.289 42.605.942 63.588.837 20.342-.101 40.554.024 60.896 2.073l1.968.204c20.991 2.246 43.546 7.55 65.288 12.639 21.705 5.08 42.626 9.954 60.225 11.283 17.596 1.33 32.063.187 45.274-1.104 13.228-1.292 25.128-2.722 37.727-2.013 12.588.707 22.138 3.348 32.421 5.812 10.286 2.464 21.232 4.729 36.46 4.59 15.28-.14 31.021-5.258 48.731-10.072 17.766-4.83 37.672-9.41 61.537-8.65 23.852.758 54.626 9.884 85.624 19.363 30.908 9.453 62.037 19.256 86.362 21.196 24.303 1.937 43.491-.424 61.313-3.124 17.836-2.703 34.224-5.728 53.093-5.196 18.885.533 38.236 4.315 57.273 7.906 18.998 3.583 37.688 6.977 55.108 6.652 17.42-.322 32.52-4.269 47.31-8.093 14.82-3.83 29.33-7.535 45.77-7.504s36.05 4.52 54.69 8.988c17.97 4.306 35.12 8.617 47.38 8.695l1.17-.006c12.26-.202 22.47-2.299 29.62-4.347 3.57-1.024 6.38-2.037 8.3-2.796.61-.237 1.12-.451 1.54-.631v261.6H7.813L5.803 1.12z"/><g filter="url(#d)"><path stroke="url(#e)" stroke-linecap="round" stroke-linejoin="round" stroke-opacity=".4" stroke-width="2" d="M7 30.875s20.509 5.908 76.612 9.46c42.856 2.712 94.337-5.138 151.775-.633 57.438 4.506 88.21 17.538 123.221 20.18 21.491 1.626 55.229-3.83 90.485-4.489 22.189-.414 48.319 11.268 72.796 11.82 32.756.738 40.835-12.027 82.863-13.09 36.303-.918 62.258 20.215 115.284 69.356M607.782 33.884c66.46 4.695 134.584 58.668 217.379 62.525 48.475 2.258 80.687-16.007 118.647-14.937s75.592 9.69 110.182 9.046c34.59-.639 57.8-7.943 90.96-7.88s81.05 10.366 105.36 9.959c24.32-.401 40.49-8.316 40.49-8.316"/></g><defs><linearGradient id="b" x1="202.866" x2="720.249" y1="73.568" y2="114.3" gradientUnits="userSpaceOnUse"><stop stop-color="#b98f72"/><stop offset="1" stop-color="#a87b66"/></linearGradient><linearGradient id="c" x1="433.616" x2="1097.2" y1="-64.801" y2="166.745" gradientUnits="userSpaceOnUse"><stop stop-color="#dca796"/><stop offset=".707" stop-color="#d09d73" stop-opacity=".8"/></linearGradient><linearGradient id="e" x1="437.039" x2="726.235" y1="12.842" y2="376.501" gradientUnits="userSpaceOnUse"><stop stop-color="#dca796"/><stop offset=".707" stop-color="#d09d73" stop-opacity=".8"/></linearGradient><filter id="a" width="1280.16" height="336.781" x="4.797" y="0" color-interpolation-filters="sRGB" filterUnits="userSpaceOnUse"><feFlood flood-opacity="0" result="BackgroundImageFix"/><feBlend in="SourceGraphic" in2="BackgroundImageFix" result="shape"/><feColorMatrix in="SourceAlpha" result="hardAlpha" values="0 0 0 0 0 0 0 0 0 0 0 0 0 0 0 0 0 0 127 0"/><feOffset dy="4"/><feGaussianBlur stdDeviation="12.5"/><feComposite in2="hardAlpha" k2="-1" k3="1" operator="arithmetic"/><feColorMatrix values="0 0 0 0 0 0 0 0 0 0 0 0 0 0 0 0 0 0 0.25 0"/><feBlend in2="shape" result="effect1_innerShadow_2032_22"/></filter><filter id="d" width="1297.8" height="106.604" x="0" y="27.874" color-interpolation-filters="sRGB" filterUnits="userSpaceOnUse"><feFlood flood-opacity="0" result="BackgroundImageFix"/><feColorMatrix in="SourceAlpha" result="hardAlpha" values="0 0 0 0 0 0 0 0 0 0 0 0 0 0 0 0 0 0 127 0"/><feOffset dy="4"/><feGaussianBlur stdDeviation="3"/><feColorMatrix values="0 0 0 0 0 0 0 0 0 0 0 0 0 0 0 0 0 0 0.25 0"/><feBlend in2="BackgroundImageFix" result="effect1_dropShadow_2032_22"/><feBlend in="SourceGraphic" in2="effect1_dropShadow_2032_22" result="shape"/></filter></defs></svg>