<svg width="1280" height="266" viewBox="0 0 1280 266" fill="none" xmlns="http://www.w3.org/2000/svg">
<g filter="url(#filter0_i_2032_37)">
<path d="M247.964 119.838C331.52 103.081 330.341 74.4338 492.896 62.8596C530.359 60.1922 539.062 70.0353 598.194 62.8596C657.326 55.6839 764.502 2.8681 843.215 2.5425C921.921 2.2169 998.116 42.2968 1057.86 53.4987C1117.59 64.7005 1163.64 64.2496 1200.62 73.2599C1237.6 82.264 1280 101.337 1280 101.337V265.636H0C0 256.889 0 150.84 0 142.708C49.6773 116.58 124.678 144.563 247.964 119.838Z" fill="url(#paint0_radial_2032_37)"/>
</g>
<path d="M843.219 3.54248C882.412 3.38034 921.017 13.2793 957.35 24.6519C993.618 36.0045 1027.73 48.8665 1057.67 54.4819C1087.59 60.0915 1114.07 62.7822 1137.67 65.1958C1160.55 67.5359 1180.67 69.6122 1198.65 73.8179L1200.38 74.2319C1218.81 78.7189 1238.61 85.7196 1253.81 91.6069C1261.41 94.5492 1267.86 97.2107 1272.41 99.1362C1274.68 100.099 1276.48 100.878 1277.71 101.416C1278.25 101.655 1278.69 101.847 1279 101.986V264.636H1V143.318C25.478 130.682 56.1986 131.111 96.3633 131.747C136.74 132.386 186.404 133.204 248.16 120.819C290.028 112.422 310.796 101.007 341.137 90.3491C371.502 79.6823 411.755 69.6394 492.968 63.8569C511.599 62.5304 523.038 64.3121 537.333 65.5464C551.646 66.7822 568.675 67.4489 598.314 63.8521C628.005 60.2491 669.727 45.1992 713.668 31.0845C757.706 16.9386 804.038 3.70456 843.219 3.54248Z" stroke="url(#paint1_linear_2032_37)" stroke-opacity="0.4" stroke-width="2" stroke-linecap="round" stroke-linejoin="round"/>
<g filter="url(#filter1_d_2032_37)">
<path d="M582.485 175.645C878.406 80.0292 910.07 160.086 1062.76 195.502" stroke="url(#paint2_linear_2032_37)" stroke-opacity="0.4" stroke-width="2" stroke-linecap="round" stroke-linejoin="round"/>
</g>
<g filter="url(#filter2_d_2032_37)">
<path d="M418.07 92.9856C418.07 92.9856 537.354 105.965 591.46 84.9186C756.553 20.6994 791.463 34.6645 897.158 112.222C932.521 138.172 993.217 150.696 993.217 150.696" stroke="url(#paint3_linear_2032_37)" stroke-opacity="0.4" stroke-width="2" stroke-linecap="round" stroke-linejoin="round"/>
</g>
<g filter="url(#filter3_d_2032_37)">
<path d="M740.991 49.2725C932.328 103.154 667.265 154.291 549.959 146.853" stroke="url(#paint4_linear_2032_37)" stroke-opacity="0.4" stroke-width="2" stroke-linecap="round" stroke-linejoin="round"/>
</g>
<g filter="url(#filter4_d_2032_37)">
<path d="M525.7 102.68C578.557 111.367 636.448 94.5688 690.634 82.9811C781.31 63.5903 755.299 97.8129 647.448 109.269C608.349 113.422 561.426 121.762 513.646 113.374" stroke="url(#paint5_linear_2032_37)" stroke-opacity="0.4" stroke-width="2" stroke-linecap="round" stroke-linejoin="round"/>
</g>
<g filter="url(#filter5_d_2032_37)">
<path d="M750.968 18.5175C814.088 18.4236 871.094 65.6332 930.081 93.2474C1001.57 126.714 1070.57 123.549 1140.04 141.977C1196.89 157.056 1255.62 196.927 1255.62 196.927" stroke="url(#paint6_linear_2032_37)" stroke-opacity="0.4" stroke-width="2" stroke-linecap="round" stroke-linejoin="round"/>
</g>
<g filter="url(#filter6_d_2032_37)">
<path d="M842.888 3C891.107 4.55235 961.23 51.2489 1029.41 66.0742C1108.79 83.3355 1179.77 92.4471 1263.56 135.633" stroke="url(#paint7_linear_2032_37)" stroke-opacity="0.4" stroke-width="2" stroke-linecap="round" stroke-linejoin="round"/>
</g>
<defs>
<filter id="filter0_i_2032_37" x="0" y="2.54053" width="1280" height="267.096" filterUnits="userSpaceOnUse" color-interpolation-filters="sRGB">
<feFlood flood-opacity="0" result="BackgroundImageFix"/>
<feBlend mode="normal" in="SourceGraphic" in2="BackgroundImageFix" result="shape"/>
<feColorMatrix in="SourceAlpha" type="matrix" values="0 0 0 0 0 0 0 0 0 0 0 0 0 0 0 0 0 0 127 0" result="hardAlpha"/>
<feOffset dy="4"/>
<feGaussianBlur stdDeviation="12.5"/>
<feComposite in2="hardAlpha" operator="arithmetic" k2="-1" k3="1"/>
<feColorMatrix type="matrix" values="0 0 0 0 0 0 0 0 0 0 0 0 0 0 0 0 0 0 0.25 0"/>
<feBlend mode="normal" in2="shape" result="effect1_innerShadow_2032_37"/>
</filter>
<filter id="filter1_d_2032_37" x="575.485" y="127.361" width="494.275" height="79.1414" filterUnits="userSpaceOnUse" color-interpolation-filters="sRGB">
<feFlood flood-opacity="0" result="BackgroundImageFix"/>
<feColorMatrix in="SourceAlpha" type="matrix" values="0 0 0 0 0 0 0 0 0 0 0 0 0 0 0 0 0 0 127 0" result="hardAlpha"/>
<feOffset dy="4"/>
<feGaussianBlur stdDeviation="3"/>
<feColorMatrix type="matrix" values="0 0 0 0 0 0 0 0 0 0 0 0 0 0 0 0 0 0 0.25 0"/>
<feBlend mode="normal" in2="BackgroundImageFix" result="effect1_dropShadow_2032_37"/>
<feBlend mode="normal" in="SourceGraphic" in2="effect1_dropShadow_2032_37" result="shape"/>
</filter>
<filter id="filter2_d_2032_37" x="411.07" y="41.2837" width="589.146" height="120.412" filterUnits="userSpaceOnUse" color-interpolation-filters="sRGB">
<feFlood flood-opacity="0" result="BackgroundImageFix"/>
<feColorMatrix in="SourceAlpha" type="matrix" values="0 0 0 0 0 0 0 0 0 0 0 0 0 0 0 0 0 0 127 0" result="hardAlpha"/>
<feOffset dy="4"/>
<feGaussianBlur stdDeviation="3"/>
<feColorMatrix type="matrix" values="0 0 0 0 0 0 0 0 0 0 0 0 0 0 0 0 0 0 0.25 0"/>
<feBlend mode="normal" in2="BackgroundImageFix" result="effect1_dropShadow_2032_37"/>
<feBlend mode="normal" in="SourceGraphic" in2="effect1_dropShadow_2032_37" result="shape"/>
</filter>
<filter id="filter3_d_2032_37" x="542.959" y="46.2722" width="272.401" height="112.304" filterUnits="userSpaceOnUse" color-interpolation-filters="sRGB">
<feFlood flood-opacity="0" result="BackgroundImageFix"/>
<feColorMatrix in="SourceAlpha" type="matrix" values="0 0 0 0 0 0 0 0 0 0 0 0 0 0 0 0 0 0 127 0" result="hardAlpha"/>
<feOffset dy="4"/>
<feGaussianBlur stdDeviation="3"/>
<feColorMatrix type="matrix" values="0 0 0 0 0 0 0 0 0 0 0 0 0 0 0 0 0 0 0.25 0"/>
<feBlend mode="normal" in2="BackgroundImageFix" result="effect1_dropShadow_2032_37"/>
<feBlend mode="normal" in="SourceGraphic" in2="effect1_dropShadow_2032_37" result="shape"/>
</filter>
<filter id="filter4_d_2032_37" x="506.646" y="74.1497" width="246.082" height="53.8245" filterUnits="userSpaceOnUse" color-interpolation-filters="sRGB">
<feFlood flood-opacity="0" result="BackgroundImageFix"/>
<feColorMatrix in="SourceAlpha" type="matrix" values="0 0 0 0 0 0 0 0 0 0 0 0 0 0 0 0 0 0 127 0" result="hardAlpha"/>
<feOffset dy="4"/>
<feGaussianBlur stdDeviation="3"/>
<feColorMatrix type="matrix" values="0 0 0 0 0 0 0 0 0 0 0 0 0 0 0 0 0 0 0.25 0"/>
<feBlend mode="normal" in2="BackgroundImageFix" result="effect1_dropShadow_2032_37"/>
<feBlend mode="normal" in="SourceGraphic" in2="effect1_dropShadow_2032_37" result="shape"/>
</filter>
<filter id="filter5_d_2032_37" x="743.968" y="15.5173" width="518.648" height="192.41" filterUnits="userSpaceOnUse" color-interpolation-filters="sRGB">
<feFlood flood-opacity="0" result="BackgroundImageFix"/>
<feColorMatrix in="SourceAlpha" type="matrix" values="0 0 0 0 0 0 0 0 0 0 0 0 0 0 0 0 0 0 127 0" result="hardAlpha"/>
<feOffset dy="4"/>
<feGaussianBlur stdDeviation="3"/>
<feColorMatrix type="matrix" values="0 0 0 0 0 0 0 0 0 0 0 0 0 0 0 0 0 0 0.25 0"/>
<feBlend mode="normal" in2="BackgroundImageFix" result="effect1_dropShadow_2032_37"/>
<feBlend mode="normal" in="SourceGraphic" in2="effect1_dropShadow_2032_37" result="shape"/>
</filter>
<filter id="filter6_d_2032_37" x="835.888" y="0" width="434.673" height="146.633" filterUnits="userSpaceOnUse" color-interpolation-filters="sRGB">
<feFlood flood-opacity="0" result="BackgroundImageFix"/>
<feColorMatrix in="SourceAlpha" type="matrix" values="0 0 0 0 0 0 0 0 0 0 0 0 0 0 0 0 0 0 127 0" result="hardAlpha"/>
<feOffset dy="4"/>
<feGaussianBlur stdDeviation="3"/>
<feColorMatrix type="matrix" values="0 0 0 0 0 0 0 0 0 0 0 0 0 0 0 0 0 0 0.25 0"/>
<feBlend mode="normal" in2="BackgroundImageFix" result="effect1_dropShadow_2032_37"/>
<feBlend mode="normal" in="SourceGraphic" in2="effect1_dropShadow_2032_37" result="shape"/>
</filter>
<radialGradient id="paint0_radial_2032_37" cx="0" cy="0" r="1" gradientTransform="matrix(328.23 359.502 -350.005 337.137 503.859 -84.2979)" gradientUnits="userSpaceOnUse">
<stop stop-color="#B78162"/>
<stop offset="1" stop-color="#834F51"/>
</radialGradient>
<linearGradient id="paint1_linear_2032_37" x1="428.767" y1="-48.6909" x2="1051.73" y2="226.223" gradientUnits="userSpaceOnUse">
<stop stop-color="#DCA796"/>
<stop offset="0.706731" stop-color="#D09D73" stop-opacity="0.8"/>
</linearGradient>
<linearGradient id="paint2_linear_2032_37" x1="743.365" y1="117.677" x2="936.33" y2="246.724" gradientUnits="userSpaceOnUse">
<stop stop-color="#DCA796"/>
<stop offset="0.706731" stop-color="#D09D73" stop-opacity="0.8"/>
</linearGradient>
<linearGradient id="paint3_linear_2032_37" x1="610.73" y1="23.5623" x2="880.356" y2="155.749" gradientUnits="userSpaceOnUse">
<stop stop-color="#DCA796"/>
<stop offset="0.706731" stop-color="#D09D73" stop-opacity="0.8"/>
</linearGradient>
<linearGradient id="paint4_linear_2032_37" x1="636.517" y1="30.1303" x2="778.688" y2="64.0284" gradientUnits="userSpaceOnUse">
<stop stop-color="#DCA796"/>
<stop offset="0.706731" stop-color="#D09D73" stop-opacity="0.8"/>
</linearGradient>
<linearGradient id="paint5_linear_2032_37" x1="591.387" y1="69.3943" x2="696.865" y2="125.149" gradientUnits="userSpaceOnUse">
<stop stop-color="#DCA796"/>
<stop offset="0.706731" stop-color="#D09D73" stop-opacity="0.8"/>
</linearGradient>
<linearGradient id="paint6_linear_2032_37" x1="920.012" y1="-16.2236" x2="1195.33" y2="54.4143" gradientUnits="userSpaceOnUse">
<stop stop-color="#DCA796"/>
<stop offset="0.706731" stop-color="#D09D73" stop-opacity="0.8"/>
</linearGradient>
<linearGradient id="paint7_linear_2032_37" x1="983.802" y1="-22.8269" x2="1209.71" y2="42.1666" gradientUnits="userSpaceOnUse">
<stop stop-color="#DCA796"/>
<stop offset="0.706731" stop-color="#D09D73" stop-opacity="0.8"/>
</linearGradient>
</defs>
</svg>
