<svg xmlns="http://www.w3.org/2000/svg" width="1283" height="225" fill="none" viewBox="0 0 1283 225"><g filter="url(#a)"><path fill="url(#b)" d="M5.563 224.35V32.89S143.283-4.94 225.626.545c82.344 5.49 198.276 60.849 262.524 75.182 64.255 14.332 79.594 11.183 120.42 19.429 40.833 8.246 80.556 26.474 124.336 30.249 43.785 3.77 94.823-11.991 135.119-5.554 291.945 46.634 414.035 104.5 414.035 104.5z"/></g><path stroke="url(#c)" stroke-linecap="round" stroke-linejoin="round" stroke-opacity=".4" stroke-width="2" d="M84.908 15.642C128.924 7.008 182.815-.94 223.626 1.42l1.934.12c41.022 2.736 90.474 17.904 137.788 34.224 47.237 16.293 92.387 33.754 124.585 40.936 32.165 7.175 52.097 9.977 69.093 12.015 16.992 2.037 30.983 3.306 51.346 7.419 20.359 4.111 40.43 10.709 60.978 16.78 20.519 6.063 41.474 11.588 63.469 13.485 22.015 1.896 45.834-1.12 69.069-3.78 23.293-2.667 45.989-4.975 65.979-1.782 145.933 23.31 249.393 49.425 316.363 69.707 33.49 10.141 57.85 18.824 73.83 24.969 8 3.072 13.9 5.51 17.79 7.178.55.234 1.05.455 1.52.659H6.563V33.654l.825-.221c1.026-.276 2.545-.679 4.506-1.19 3.922-1.022 9.618-2.478 16.71-4.207 14.188-3.458 33.961-8.012 56.304-12.394"/><g filter="url(#d)"><path stroke="url(#e)" stroke-linecap="round" stroke-linejoin="round" stroke-miterlimit="1.5" stroke-opacity=".4" stroke-width="2" d="M198.67 11.44c68.008 12.295 112.044 47.922 192.208 78.227 37.927 14.337 56.218 5.473 196.841 67.457"/></g><g filter="url(#f)"><path stroke="url(#g)" stroke-linecap="round" stroke-miterlimit="1.5" stroke-opacity=".4" stroke-width="2" d="M132.605 22.208c149.952 7.033 139.139 95.711 294.438 134.916"/></g><g filter="url(#h)"><path stroke="url(#i)" stroke-linecap="round" stroke-linejoin="round" stroke-miterlimit="1.5" stroke-opacity=".4" stroke-width="2" d="M7 78.564c49.011 3.86 89.623 45.702 141.917 78.56"/></g><g filter="url(#j)"><path stroke="url(#k)" stroke-linecap="round" stroke-linejoin="round" stroke-miterlimit="1.5" stroke-opacity=".4" stroke-width="2" d="M17.603 50.372c155.976-24.004 189.466 96.137 272.416 106.752"/></g><g filter="url(#l)"><path stroke="url(#m)" stroke-linecap="round" stroke-linejoin="round" stroke-opacity=".4" stroke-width="2" d="M578.551 109.335c29.607 2.517 102.112 29.652 159.529 31.635 86.39 2.985 112.951 1.387 165.694 17.603"/></g><defs><linearGradient id="b" x1="271.258" x2="276.306" y1="145.628" y2="-21.693" gradientUnits="userSpaceOnUse"><stop stop-color="#8f5755"/><stop offset="1" stop-color="#b27159"/></linearGradient><linearGradient id="c" x1="433.158" x2="1019.29" y1="-43.687" y2="258.814" gradientUnits="userSpaceOnUse"><stop stop-color="#dca796"/><stop offset=".707" stop-color="#d09d73" stop-opacity=".8"/></linearGradient><linearGradient id="e" x1="328.992" x2="542.675" y1="-16.928" y2="34.833" gradientUnits="userSpaceOnUse"><stop stop-color="#dca796"/><stop offset=".707" stop-color="#d09d73" stop-opacity=".8"/></linearGradient><linearGradient id="g" x1="231.235" x2="395.986" y1="-4.063" y2="28.55" gradientUnits="userSpaceOnUse"><stop stop-color="#dca796"/><stop offset=".707" stop-color="#d09d73" stop-opacity=".8"/></linearGradient><linearGradient id="i" x1="54.539" x2="134.902" y1="63.267" y2="76.435" gradientUnits="userSpaceOnUse"><stop stop-color="#dca796"/><stop offset=".707" stop-color="#d09d73" stop-opacity=".8"/></linearGradient><linearGradient id="k" x1="108.855" x2="259.637" y1="25.805" y2="59.703" gradientUnits="userSpaceOnUse"><stop stop-color="#dca796"/><stop offset=".707" stop-color="#d09d73" stop-opacity=".8"/></linearGradient><linearGradient id="m" x1="687.492" x2="826.649" y1="99.747" y2="183.121" gradientUnits="userSpaceOnUse"><stop stop-color="#dca796"/><stop offset=".707" stop-color="#d09d73" stop-opacity=".8"/></linearGradient><filter id="a" width="1276.5" height="234.35" x="5.563" y="0" color-interpolation-filters="sRGB" filterUnits="userSpaceOnUse"><feFlood flood-opacity="0" result="BackgroundImageFix"/><feBlend in="SourceGraphic" in2="BackgroundImageFix" result="shape"/><feColorMatrix in="SourceAlpha" result="hardAlpha" values="0 0 0 0 0 0 0 0 0 0 0 0 0 0 0 0 0 0 127 0"/><feOffset dy="10"/><feGaussianBlur stdDeviation="12.5"/><feComposite in2="hardAlpha" k2="-1" k3="1" operator="arithmetic"/><feColorMatrix values="0 0 0 0 0.69396 0 0 0 0 0.514394 0 0 0 0 0.454538 0 0 0 1 0"/><feBlend in2="shape" result="effect1_innerShadow_2032_45"/></filter><filter id="d" width="403.05" height="159.685" x="191.67" y="8.44" color-interpolation-filters="sRGB" filterUnits="userSpaceOnUse"><feFlood flood-opacity="0" result="BackgroundImageFix"/><feColorMatrix in="SourceAlpha" result="hardAlpha" values="0 0 0 0 0 0 0 0 0 0 0 0 0 0 0 0 0 0 127 0"/><feOffset dy="4"/><feGaussianBlur stdDeviation="3"/><feColorMatrix values="0 0 0 0 0 0 0 0 0 0 0 0 0 0 0 0 0 0 0.25 0"/><feBlend in2="BackgroundImageFix" result="effect1_dropShadow_2032_45"/><feBlend in="SourceGraphic" in2="effect1_dropShadow_2032_45" result="shape"/></filter><filter id="f" width="308.438" height="148.916" x="125.605" y="19.208" color-interpolation-filters="sRGB" filterUnits="userSpaceOnUse"><feFlood flood-opacity="0" result="BackgroundImageFix"/><feColorMatrix in="SourceAlpha" result="hardAlpha" values="0 0 0 0 0 0 0 0 0 0 0 0 0 0 0 0 0 0 127 0"/><feOffset dy="4"/><feGaussianBlur stdDeviation="3"/><feColorMatrix values="0 0 0 0 0 0 0 0 0 0 0 0 0 0 0 0 0 0 0.25 0"/><feBlend in2="BackgroundImageFix" result="effect1_dropShadow_2032_45"/><feBlend in="SourceGraphic" in2="effect1_dropShadow_2032_45" result="shape"/></filter><filter id="h" width="155.918" height="92.56" x="0" y="75.564" color-interpolation-filters="sRGB" filterUnits="userSpaceOnUse"><feFlood flood-opacity="0" result="BackgroundImageFix"/><feColorMatrix in="SourceAlpha" result="hardAlpha" values="0 0 0 0 0 0 0 0 0 0 0 0 0 0 0 0 0 0 127 0"/><feOffset dy="4"/><feGaussianBlur stdDeviation="3"/><feColorMatrix values="0 0 0 0 0 0 0 0 0 0 0 0 0 0 0 0 0 0 0.25 0"/><feBlend in2="BackgroundImageFix" result="effect1_dropShadow_2032_45"/><feBlend in="SourceGraphic" in2="effect1_dropShadow_2032_45" result="shape"/></filter><filter id="j" width="286.416" height="123.915" x="10.602" y="44.209" color-interpolation-filters="sRGB" filterUnits="userSpaceOnUse"><feFlood flood-opacity="0" result="BackgroundImageFix"/><feColorMatrix in="SourceAlpha" result="hardAlpha" values="0 0 0 0 0 0 0 0 0 0 0 0 0 0 0 0 0 0 127 0"/><feOffset dy="4"/><feGaussianBlur stdDeviation="3"/><feColorMatrix values="0 0 0 0 0 0 0 0 0 0 0 0 0 0 0 0 0 0 0.25 0"/><feBlend in2="BackgroundImageFix" result="effect1_dropShadow_2032_45"/><feBlend in="SourceGraphic" in2="effect1_dropShadow_2032_45" result="shape"/></filter><filter id="l" width="339.224" height="63.237" x="571.551" y="106.335" color-interpolation-filters="sRGB" filterUnits="userSpaceOnUse"><feFlood flood-opacity="0" result="BackgroundImageFix"/><feColorMatrix in="SourceAlpha" result="hardAlpha" values="0 0 0 0 0 0 0 0 0 0 0 0 0 0 0 0 0 0 127 0"/><feOffset dy="4"/><feGaussianBlur stdDeviation="3"/><feColorMatrix values="0 0 0 0 0 0 0 0 0 0 0 0 0 0 0 0 0 0 0.25 0"/><feBlend in2="BackgroundImageFix" result="effect1_dropShadow_2032_45"/><feBlend in="SourceGraphic" in2="effect1_dropShadow_2032_45" result="shape"/></filter></defs></svg>