<svg width="1289" height="278" viewBox="0 0 1289 278" fill="none" xmlns="http://www.w3.org/2000/svg">
<g filter="url(#filter0_i_2032_25)">
<path d="M3.45215 0C3.45215 0 134.67 36.8177 195.793 41.7768C256.923 46.7422 290.855 32.6725 338.142 33.8121C385.428 34.9455 414.021 60.5676 466.209 60.1982C518.39 59.835 608.88 2.65489 668.558 1.45894C728.231 0.256733 768.88 31.9212 812.308 37.0181C855.737 42.1149 883.129 29.9927 926.698 35.9787C970.273 41.9584 1021.58 71.7005 1070.45 77.5738C1119.33 83.4471 1180.8 67.687 1216.23 71.3374C1251.66 74.9816 1282.03 87.9742 1282.03 87.9742L1283.45 277.679H3.45215V0Z" fill="url(#paint0_radial_2032_25)"/>
</g>
<path d="M4.67285 1.37793C5.64976 1.64906 7.09066 2.04719 8.94531 2.55566C12.6547 3.57264 18.0215 5.03164 24.6523 6.79688C37.9141 10.3273 56.2344 15.0857 76.4658 20C116.904 29.8226 165.062 40.2866 195.713 42.7734C226.376 45.2641 250.219 42.9795 272.282 40.2217C294.356 37.4625 314.568 34.244 338.117 34.8115C361.586 35.374 380.415 42.0082 400.022 48.5176C419.618 55.023 439.946 61.3842 466.216 61.1982C479.418 61.1063 494.975 57.4253 511.756 51.9863C528.547 46.544 546.648 39.3112 564.94 32.0703C601.604 17.5571 638.959 3.05265 668.578 2.45898C698.227 1.86165 723.168 9.4254 746.183 17.8154C769.142 26.1856 790.327 35.4455 812.192 38.0117C834.024 40.5739 851.828 38.8057 869.543 37.1611C887.261 35.5163 904.901 33.9937 926.562 36.9697C948.218 39.9417 971.823 48.8238 996.244 57.7549C1020.61 66.6663 1045.76 75.6137 1070.33 78.5664C1094.9 81.5184 1122.59 79.0316 1148.49 76.2832C1174.46 73.5268 1198.54 70.5205 1216.12 72.332C1233.76 74.1453 1250.14 78.2869 1262.12 81.9785C1268.11 83.8237 1273 85.5542 1276.38 86.8232C1278.07 87.4577 1279.39 87.9774 1280.28 88.3369C1280.58 88.4575 1280.84 88.5604 1281.04 88.6436L1282.44 276.68H4.45215V1.31641C4.52288 1.33606 4.59642 1.35672 4.67285 1.37793Z" stroke="url(#paint1_linear_2032_25)" stroke-opacity="0.4" stroke-width="2" stroke-linecap="round" stroke-linejoin="round"/>
<g filter="url(#filter1_d_2032_25)">
<path d="M883.897 54.9821C924.638 53.1514 954.959 86.9338 1022.33 91.2194C1089.71 95.505 1168.41 77.1926 1202.21 76.4104" stroke="url(#paint2_linear_2032_25)" stroke-opacity="0.4" stroke-width="2" stroke-linecap="round" stroke-linejoin="round"/>
</g>
<g filter="url(#filter2_d_2032_25)">
<path d="M598.211 20.7351C571.263 32.4805 532.511 85.6738 471.575 95.2C423.785 102.671 398.406 103.143 359.698 89.9104M294.139 84.9194C281.854 99.0933 253.572 100.952 232.565 99.1876C199.585 96.4183 164.265 80.3001 138.846 74.7537C108.013 68.026 92.7595 72.7544 69.4277 67.203C46.096 61.6516 7.51562 43.9104 7.51562 43.9104" stroke="url(#paint3_linear_2032_25)" stroke-opacity="0.4" stroke-width="2" stroke-linecap="round" stroke-linejoin="round"/>
</g>
<g filter="url(#filter3_d_2032_25)">
<path d="M29.8193 33.5806C60.1623 51.9347 96.9056 44.829 140.816 55.8291C177.388 64.9909 240.664 85.1768 286.371 61.2986M344.61 65.4104C392.249 70.3454 391.63 78.1703 426.379 75.9104C455.306 74.0291 490.321 57.8673 490.321 57.8673" stroke="url(#paint4_linear_2032_25)" stroke-opacity="0.4" stroke-width="2" stroke-linecap="round" stroke-linejoin="round"/>
</g>
<g filter="url(#filter4_d_2032_25)">
<path d="M622.27 45.7598C578.422 69.3864 555.907 119.783 484.672 125.76C447.299 128.896 409.02 124.298 375.85 116.428M309.943 112.98C298.613 125.593 259.605 125.837 237.022 123.481C198.542 119.467 158.68 103.999 138.535 99.7608C106.567 93.0353 98.2121 97.7622 74.0214 92.2126C49.8307 86.663 7.01855 67.9104 7.01855 67.9104" stroke="url(#paint5_linear_2032_25)" stroke-opacity="0.4" stroke-width="2.03615" stroke-linecap="round" stroke-linejoin="round"/>
</g>
<g filter="url(#filter5_d_2032_25)">
<path d="M691.804 4.03857C607.691 6.96057 622.029 46.6762 672.299 71.0351C722.57 95.3941 689.932 120.98 587.971 146.91" stroke="url(#paint6_linear_2032_25)" stroke-opacity="0.4" stroke-width="2" stroke-linecap="round" stroke-linejoin="round"/>
</g>
<g filter="url(#filter6_d_2032_25)">
<path d="M668.116 29.8848C691.516 52.7268 739.354 80.8785 784.098 84.0869C828.843 87.2954 828.939 79.2544 875.745 81.8428C922.55 84.4311 990.372 123.41 1029.8 122.737C1069.23 122.063 1146.64 112.568 1192.86 115.274C1239.08 117.979 1281.57 139.51 1281.57 139.51" stroke="url(#paint7_linear_2032_25)" stroke-opacity="0.4" stroke-width="2" stroke-linecap="round" stroke-linejoin="round"/>
</g>
<g filter="url(#filter7_d_2032_25)">
<path d="M625.935 169.1C652.666 165.555 703.668 128.808 725.696 127.192C761.216 124.587 775.253 140.837 804.774 143.356C849.474 147.17 857.097 140.061 903.903 142.649C950.709 145.238 1020.03 184.985 1059.46 184.312C1098.89 183.638 1180.78 171.837 1227 174.543C1246.37 175.676 1264.69 184.301 1279.44 193.938" stroke="url(#paint8_linear_2032_25)" stroke-opacity="0.4" stroke-width="2" stroke-linecap="round" stroke-linejoin="round"/>
</g>
<g filter="url(#filter8_d_2032_25)">
<path d="M718.412 91.9104C742.857 101.454 772.433 110.84 814.935 114.33C837.277 116.164 862.276 104.594 886.362 108.054C927.794 114.005 979.917 138.1 1023.7 147.661C1067.48 157.221 1122.24 151.616 1176.89 144.782" stroke="url(#paint9_linear_2032_25)" stroke-opacity="0.4" stroke-width="2" stroke-linecap="round" stroke-linejoin="round"/>
</g>
<g filter="url(#filter9_d_2032_25)">
<path d="M653.192 88.4104C622.093 101.29 613.072 112.853 569.27 133.938C525.468 155.023 440.863 147.112 397.662 150.41C354.461 153.709 320.71 177.167 282.309 173.41C243.908 169.654 192.381 139 159.362 132.276C126.343 125.553 110.008 130.278 85.0222 124.73C60.0362 119.182 10.6826 98.7388 10.6826 98.7388" stroke="url(#paint10_linear_2032_25)" stroke-opacity="0.4" stroke-width="2.06904" stroke-linecap="round" stroke-linejoin="round"/>
</g>
<defs>
<filter id="filter0_i_2032_25" x="3.45215" y="0" width="1280" height="281.679" filterUnits="userSpaceOnUse" color-interpolation-filters="sRGB">
<feFlood flood-opacity="0" result="BackgroundImageFix"/>
<feBlend mode="normal" in="SourceGraphic" in2="BackgroundImageFix" result="shape"/>
<feColorMatrix in="SourceAlpha" type="matrix" values="0 0 0 0 0 0 0 0 0 0 0 0 0 0 0 0 0 0 127 0" result="hardAlpha"/>
<feOffset dy="4"/>
<feGaussianBlur stdDeviation="12.5"/>
<feComposite in2="hardAlpha" operator="arithmetic" k2="-1" k3="1"/>
<feColorMatrix type="matrix" values="0 0 0 0 0 0 0 0 0 0 0 0 0 0 0 0 0 0 0.25 0"/>
<feBlend mode="normal" in2="shape" result="effect1_innerShadow_2032_25"/>
</filter>
<filter id="filter1_d_2032_25" x="876.897" y="51.9104" width="332.316" height="50.958" filterUnits="userSpaceOnUse" color-interpolation-filters="sRGB">
<feFlood flood-opacity="0" result="BackgroundImageFix"/>
<feColorMatrix in="SourceAlpha" type="matrix" values="0 0 0 0 0 0 0 0 0 0 0 0 0 0 0 0 0 0 127 0" result="hardAlpha"/>
<feOffset dy="4"/>
<feGaussianBlur stdDeviation="3"/>
<feColorMatrix type="matrix" values="0 0 0 0 0 0 0 0 0 0 0 0 0 0 0 0 0 0 0.25 0"/>
<feBlend mode="normal" in2="BackgroundImageFix" result="effect1_dropShadow_2032_25"/>
<feBlend mode="normal" in="SourceGraphic" in2="effect1_dropShadow_2032_25" result="shape"/>
</filter>
<filter id="filter2_d_2032_25" x="0.515625" y="17.7349" width="604.695" height="93.6907" filterUnits="userSpaceOnUse" color-interpolation-filters="sRGB">
<feFlood flood-opacity="0" result="BackgroundImageFix"/>
<feColorMatrix in="SourceAlpha" type="matrix" values="0 0 0 0 0 0 0 0 0 0 0 0 0 0 0 0 0 0 127 0" result="hardAlpha"/>
<feOffset dy="4"/>
<feGaussianBlur stdDeviation="3"/>
<feColorMatrix type="matrix" values="0 0 0 0 0 0 0 0 0 0 0 0 0 0 0 0 0 0 0.25 0"/>
<feBlend mode="normal" in2="BackgroundImageFix" result="effect1_dropShadow_2032_25"/>
<feBlend mode="normal" in="SourceGraphic" in2="effect1_dropShadow_2032_25" result="shape"/>
</filter>
<filter id="filter3_d_2032_25" x="22.8193" y="30.5803" width="474.502" height="56.7305" filterUnits="userSpaceOnUse" color-interpolation-filters="sRGB">
<feFlood flood-opacity="0" result="BackgroundImageFix"/>
<feColorMatrix in="SourceAlpha" type="matrix" values="0 0 0 0 0 0 0 0 0 0 0 0 0 0 0 0 0 0 127 0" result="hardAlpha"/>
<feOffset dy="4"/>
<feGaussianBlur stdDeviation="3"/>
<feColorMatrix type="matrix" values="0 0 0 0 0 0 0 0 0 0 0 0 0 0 0 0 0 0 0.25 0"/>
<feBlend mode="normal" in2="BackgroundImageFix" result="effect1_dropShadow_2032_25"/>
<feBlend mode="normal" in="SourceGraphic" in2="effect1_dropShadow_2032_25" result="shape"/>
</filter>
<filter id="filter4_d_2032_25" x="0" y="42.7415" width="629.289" height="95.0312" filterUnits="userSpaceOnUse" color-interpolation-filters="sRGB">
<feFlood flood-opacity="0" result="BackgroundImageFix"/>
<feColorMatrix in="SourceAlpha" type="matrix" values="0 0 0 0 0 0 0 0 0 0 0 0 0 0 0 0 0 0 127 0" result="hardAlpha"/>
<feOffset dy="4"/>
<feGaussianBlur stdDeviation="3"/>
<feColorMatrix type="matrix" values="0 0 0 0 0 0 0 0 0 0 0 0 0 0 0 0 0 0 0.25 0"/>
<feBlend mode="normal" in2="BackgroundImageFix" result="effect1_dropShadow_2032_25"/>
<feBlend mode="normal" in="SourceGraphic" in2="effect1_dropShadow_2032_25" result="shape"/>
</filter>
<filter id="filter5_d_2032_25" x="580.971" y="1.03857" width="121.583" height="156.872" filterUnits="userSpaceOnUse" color-interpolation-filters="sRGB">
<feFlood flood-opacity="0" result="BackgroundImageFix"/>
<feColorMatrix in="SourceAlpha" type="matrix" values="0 0 0 0 0 0 0 0 0 0 0 0 0 0 0 0 0 0 127 0" result="hardAlpha"/>
<feOffset dy="4"/>
<feGaussianBlur stdDeviation="3"/>
<feColorMatrix type="matrix" values="0 0 0 0 0 0 0 0 0 0 0 0 0 0 0 0 0 0 0.25 0"/>
<feBlend mode="normal" in2="BackgroundImageFix" result="effect1_dropShadow_2032_25"/>
<feBlend mode="normal" in="SourceGraphic" in2="effect1_dropShadow_2032_25" result="shape"/>
</filter>
<filter id="filter6_d_2032_25" x="661.116" y="26.8848" width="627.451" height="123.625" filterUnits="userSpaceOnUse" color-interpolation-filters="sRGB">
<feFlood flood-opacity="0" result="BackgroundImageFix"/>
<feColorMatrix in="SourceAlpha" type="matrix" values="0 0 0 0 0 0 0 0 0 0 0 0 0 0 0 0 0 0 127 0" result="hardAlpha"/>
<feOffset dy="4"/>
<feGaussianBlur stdDeviation="3"/>
<feColorMatrix type="matrix" values="0 0 0 0 0 0 0 0 0 0 0 0 0 0 0 0 0 0 0.25 0"/>
<feBlend mode="normal" in2="BackgroundImageFix" result="effect1_dropShadow_2032_25"/>
<feBlend mode="normal" in="SourceGraphic" in2="effect1_dropShadow_2032_25" result="shape"/>
</filter>
<filter id="filter7_d_2032_25" x="618.935" y="123.91" width="667.505" height="81.0281" filterUnits="userSpaceOnUse" color-interpolation-filters="sRGB">
<feFlood flood-opacity="0" result="BackgroundImageFix"/>
<feColorMatrix in="SourceAlpha" type="matrix" values="0 0 0 0 0 0 0 0 0 0 0 0 0 0 0 0 0 0 127 0" result="hardAlpha"/>
<feOffset dy="4"/>
<feGaussianBlur stdDeviation="3"/>
<feColorMatrix type="matrix" values="0 0 0 0 0 0 0 0 0 0 0 0 0 0 0 0 0 0 0.25 0"/>
<feBlend mode="normal" in2="BackgroundImageFix" result="effect1_dropShadow_2032_25"/>
<feBlend mode="normal" in="SourceGraphic" in2="effect1_dropShadow_2032_25" result="shape"/>
</filter>
<filter id="filter8_d_2032_25" x="711.412" y="88.9102" width="472.474" height="74.8442" filterUnits="userSpaceOnUse" color-interpolation-filters="sRGB">
<feFlood flood-opacity="0" result="BackgroundImageFix"/>
<feColorMatrix in="SourceAlpha" type="matrix" values="0 0 0 0 0 0 0 0 0 0 0 0 0 0 0 0 0 0 127 0" result="hardAlpha"/>
<feOffset dy="4"/>
<feGaussianBlur stdDeviation="3"/>
<feColorMatrix type="matrix" values="0 0 0 0 0 0 0 0 0 0 0 0 0 0 0 0 0 0 0.25 0"/>
<feBlend mode="normal" in2="BackgroundImageFix" result="effect1_dropShadow_2032_25"/>
<feBlend mode="normal" in="SourceGraphic" in2="effect1_dropShadow_2032_25" result="shape"/>
</filter>
<filter id="filter9_d_2032_25" x="3.64746" y="85.3755" width="656.579" height="99.4753" filterUnits="userSpaceOnUse" color-interpolation-filters="sRGB">
<feFlood flood-opacity="0" result="BackgroundImageFix"/>
<feColorMatrix in="SourceAlpha" type="matrix" values="0 0 0 0 0 0 0 0 0 0 0 0 0 0 0 0 0 0 127 0" result="hardAlpha"/>
<feOffset dy="4"/>
<feGaussianBlur stdDeviation="3"/>
<feColorMatrix type="matrix" values="0 0 0 0 0 0 0 0 0 0 0 0 0 0 0 0 0 0 0.25 0"/>
<feBlend mode="normal" in2="BackgroundImageFix" result="effect1_dropShadow_2032_25"/>
<feBlend mode="normal" in="SourceGraphic" in2="effect1_dropShadow_2032_25" result="shape"/>
</filter>
<radialGradient id="paint0_radial_2032_25" cx="0" cy="0" r="1" gradientTransform="matrix(630.565 18.2236 -17.7397 647.766 206.652 165.959)" gradientUnits="userSpaceOnUse">
<stop stop-color="#B48B6D"/>
<stop offset="0.45" stop-color="#A87B66"/>
<stop offset="1" stop-color="#8C5455"/>
</radialGradient>
<linearGradient id="paint1_linear_2032_25" x1="432.22" y1="-54.0712" x2="1065.75" y2="210.821" gradientUnits="userSpaceOnUse">
<stop stop-color="#DCA796"/>
<stop offset="0.706731" stop-color="#D09D73" stop-opacity="0.8"/>
</linearGradient>
<linearGradient id="paint2_linear_2032_25" x1="990.525" y1="47.7137" x2="1105.46" y2="137.51" gradientUnits="userSpaceOnUse">
<stop stop-color="#DCA796"/>
<stop offset="0.706731" stop-color="#D09D73" stop-opacity="0.8"/>
</linearGradient>
<linearGradient id="paint3_linear_2032_25" x1="205.383" y1="5.21737" x2="441.926" y2="164.257" gradientUnits="userSpaceOnUse">
<stop stop-color="#DCA796"/>
<stop offset="0.706731" stop-color="#D09D73" stop-opacity="0.8"/>
</linearGradient>
<linearGradient id="paint4_linear_2032_25" x1="184.076" y1="25.2599" x2="321.001" y2="159.11" gradientUnits="userSpaceOnUse">
<stop stop-color="#DCA796"/>
<stop offset="0.706731" stop-color="#D09D73" stop-opacity="0.8"/>
</linearGradient>
<linearGradient id="paint5_linear_2032_25" x1="213.112" y1="29.988" x2="455.696" y2="197.134" gradientUnits="userSpaceOnUse">
<stop stop-color="#DCA796"/>
<stop offset="0.706731" stop-color="#D09D73" stop-opacity="0.8"/>
</linearGradient>
<linearGradient id="paint6_linear_2032_25" x1="624.008" y1="-23.7822" x2="686.274" y2="-19.5293" gradientUnits="userSpaceOnUse">
<stop stop-color="#DCA796"/>
<stop offset="0.706731" stop-color="#D09D73" stop-opacity="0.8"/>
</linearGradient>
<linearGradient id="paint7_linear_2032_25" x1="873.607" y1="8.53793" x2="1157.24" y2="152.504" gradientUnits="userSpaceOnUse">
<stop stop-color="#DCA796"/>
<stop offset="0.706731" stop-color="#D09D73" stop-opacity="0.8"/>
</linearGradient>
<linearGradient id="paint8_linear_2032_25" x1="844.842" y1="113.858" x2="1058.07" y2="302.43" gradientUnits="userSpaceOnUse">
<stop stop-color="#DCA796"/>
<stop offset="0.706731" stop-color="#D09D73" stop-opacity="0.8"/>
</linearGradient>
<linearGradient id="paint9_linear_2032_25" x1="871.989" y1="80.0625" x2="1053.69" y2="204.256" gradientUnits="userSpaceOnUse">
<stop stop-color="#DCA796"/>
<stop offset="0.706731" stop-color="#D09D73" stop-opacity="0.8"/>
</linearGradient>
<linearGradient id="paint10_linear_2032_25" x1="225.907" y1="71.7797" x2="480.812" y2="245.723" gradientUnits="userSpaceOnUse">
<stop stop-color="#DCA796"/>
<stop offset="0.706731" stop-color="#D09D73" stop-opacity="0.8"/>
</linearGradient>
</defs>
</svg>
