<svg xmlns="http://www.w3.org/2000/svg" width="1289" height="278" fill="none" viewBox="0 0 1289 278"><g filter="url(#a)"><path fill="url(#b)" d="M3.452 0S134.67 36.818 195.793 41.777c61.13 4.965 95.062-9.105 142.349-7.965 47.286 1.134 75.879 26.756 128.067 26.386 52.181-.363 142.671-57.543 202.349-58.74 59.673-1.201 100.322 30.463 143.75 35.56 43.429 5.097 70.821-7.025 114.39-1.04 43.575 5.98 94.882 35.723 143.752 41.596 48.88 5.873 110.35-9.887 145.78-6.237 35.43 3.645 65.8 16.637 65.8 16.637l1.42 189.705H3.452z"/></g><path stroke="url(#c)" stroke-linecap="round" stroke-linejoin="round" stroke-opacity=".4" stroke-width="2" d="M4.673 1.378c.977.271 2.418.67 4.272 1.178A2483.277 2483.277 0 0 0 76.465 20c40.439 9.823 88.597 20.287 119.248 22.773 30.663 2.491 54.506.206 76.569-2.551 22.074-2.76 42.286-5.978 65.835-5.41 23.469.562 42.298 7.196 61.905 13.706 19.596 6.505 39.924 12.866 66.194 12.68 13.202-.092 28.759-3.773 45.54-9.212 16.791-5.442 34.892-12.675 53.184-19.916C601.604 17.557 638.959 3.053 668.578 2.46c29.649-.597 54.59 6.966 77.605 15.356 22.959 8.37 44.144 17.63 66.009 20.197 21.832 2.562 39.636.794 57.351-.85 17.718-1.646 35.358-3.168 57.019-.192 21.656 2.972 45.261 11.854 69.682 20.785 24.366 8.911 49.516 17.859 74.086 20.811s52.26.466 78.16-2.283c25.97-2.756 50.05-5.763 67.63-3.951 17.64 1.813 34.02 5.955 46 9.647a253 253 0 0 1 14.26 4.844c1.69.635 3.01 1.154 3.9 1.514.3.12.56.223.76.307l1.4 188.036H4.452V1.316z"/><g filter="url(#d)"><path stroke="url(#e)" stroke-linecap="round" stroke-linejoin="round" stroke-opacity=".4" stroke-width="2" d="M883.897 54.982c40.741-1.83 71.062 31.952 138.433 36.237 67.38 4.286 146.08-14.026 179.88-14.809"/></g><g filter="url(#f)"><path stroke="url(#g)" stroke-linecap="round" stroke-linejoin="round" stroke-opacity=".4" stroke-width="2" d="M598.211 20.735c-26.948 11.746-65.7 64.939-126.636 74.465-47.79 7.471-73.169 7.943-111.877-5.29m-65.559-4.99c-12.285 14.173-40.567 16.032-61.574 14.268-32.98-2.77-68.3-18.888-93.719-24.434-30.833-6.728-46.086-2-69.418-7.551S7.516 43.91 7.516 43.91"/></g><g filter="url(#h)"><path stroke="url(#i)" stroke-linecap="round" stroke-linejoin="round" stroke-opacity=".4" stroke-width="2" d="M29.82 33.58C60.161 51.936 96.905 44.83 140.815 55.83c36.572 9.16 99.848 29.347 145.555 5.469m58.239 4.111c47.639 4.935 47.02 12.76 81.769 10.5 28.927-1.88 63.942-18.043 63.942-18.043"/></g><g filter="url(#j)"><path stroke="url(#k)" stroke-linecap="round" stroke-linejoin="round" stroke-opacity=".4" stroke-width="2.036" d="M622.27 45.76c-43.848 23.626-66.363 74.023-137.598 80-37.373 3.136-75.652-1.462-108.822-9.332m-65.907-3.448c-11.33 12.613-50.338 12.857-72.921 10.501-38.48-4.014-78.342-19.482-98.487-23.72-31.968-6.726-40.323-1.999-64.514-7.548C49.831 86.663 7.02 67.91 7.02 67.91"/></g><g filter="url(#l)"><path stroke="url(#m)" stroke-linecap="round" stroke-linejoin="round" stroke-opacity=".4" stroke-width="2" d="M691.804 4.039c-84.113 2.922-69.775 42.637-19.505 66.996 50.271 24.36 17.633 49.945-84.328 75.875"/></g><g filter="url(#n)"><path stroke="url(#o)" stroke-linecap="round" stroke-linejoin="round" stroke-opacity=".4" stroke-width="2" d="M668.116 29.885c23.4 22.842 71.238 50.994 115.982 54.202s44.841-4.833 91.647-2.244c46.805 2.588 114.627 41.567 154.055 40.894 39.43-.674 116.84-10.169 163.06-7.463 46.22 2.705 88.71 24.236 88.71 24.236"/></g><g filter="url(#p)"><path stroke="url(#q)" stroke-linecap="round" stroke-linejoin="round" stroke-opacity=".4" stroke-width="2" d="M625.935 169.1c26.731-3.545 77.733-40.292 99.761-41.908 35.52-2.605 49.557 13.645 79.078 16.164 44.7 3.814 52.323-3.295 99.129-.707s116.127 42.336 155.557 41.663 121.32-12.475 167.54-9.769c19.37 1.133 37.69 9.758 52.44 19.395"/></g><g filter="url(#r)"><path stroke="url(#s)" stroke-linecap="round" stroke-linejoin="round" stroke-opacity=".4" stroke-width="2" d="M718.412 91.91c24.445 9.544 54.021 18.93 96.523 22.42 22.342 1.834 47.341-9.736 71.427-6.276 41.432 5.951 93.555 30.046 137.338 39.607 43.78 9.56 98.54 3.955 153.19-2.879"/></g><g filter="url(#t)"><path stroke="url(#u)" stroke-linecap="round" stroke-linejoin="round" stroke-opacity=".4" stroke-width="2.069" d="M653.192 88.41c-31.099 12.88-40.12 24.443-83.922 45.528s-128.407 13.174-171.608 16.472-76.952 26.757-115.353 23c-38.401-3.756-89.928-34.41-122.947-41.134-33.019-6.723-49.354-1.998-74.34-7.546s-74.34-25.991-74.34-25.991"/></g><defs><linearGradient id="c" x1="432.22" x2="1065.75" y1="-54.071" y2="210.821" gradientUnits="userSpaceOnUse"><stop stop-color="#dca796"/><stop offset=".707" stop-color="#d09d73" stop-opacity=".8"/></linearGradient><linearGradient id="e" x1="990.525" x2="1105.46" y1="47.714" y2="137.51" gradientUnits="userSpaceOnUse"><stop stop-color="#dca796"/><stop offset=".707" stop-color="#d09d73" stop-opacity=".8"/></linearGradient><linearGradient id="g" x1="205.383" x2="441.926" y1="5.217" y2="164.257" gradientUnits="userSpaceOnUse"><stop stop-color="#dca796"/><stop offset=".707" stop-color="#d09d73" stop-opacity=".8"/></linearGradient><linearGradient id="i" x1="184.076" x2="321.001" y1="25.26" y2="159.11" gradientUnits="userSpaceOnUse"><stop stop-color="#dca796"/><stop offset=".707" stop-color="#d09d73" stop-opacity=".8"/></linearGradient><linearGradient id="k" x1="213.112" x2="455.696" y1="29.988" y2="197.134" gradientUnits="userSpaceOnUse"><stop stop-color="#dca796"/><stop offset=".707" stop-color="#d09d73" stop-opacity=".8"/></linearGradient><linearGradient id="m" x1="624.008" x2="686.274" y1="-23.782" y2="-19.529" gradientUnits="userSpaceOnUse"><stop stop-color="#dca796"/><stop offset=".707" stop-color="#d09d73" stop-opacity=".8"/></linearGradient><linearGradient id="o" x1="873.607" x2="1157.24" y1="8.538" y2="152.504" gradientUnits="userSpaceOnUse"><stop stop-color="#dca796"/><stop offset=".707" stop-color="#d09d73" stop-opacity=".8"/></linearGradient><linearGradient id="q" x1="844.842" x2="1058.07" y1="113.858" y2="302.43" gradientUnits="userSpaceOnUse"><stop stop-color="#dca796"/><stop offset=".707" stop-color="#d09d73" stop-opacity=".8"/></linearGradient><linearGradient id="s" x1="871.989" x2="1053.69" y1="80.063" y2="204.256" gradientUnits="userSpaceOnUse"><stop stop-color="#dca796"/><stop offset=".707" stop-color="#d09d73" stop-opacity=".8"/></linearGradient><linearGradient id="u" x1="225.907" x2="480.812" y1="71.78" y2="245.723" gradientUnits="userSpaceOnUse"><stop stop-color="#dca796"/><stop offset=".707" stop-color="#d09d73" stop-opacity=".8"/></linearGradient><filter id="a" width="1280" height="281.679" x="3.452" y="0" color-interpolation-filters="sRGB" filterUnits="userSpaceOnUse"><feFlood flood-opacity="0" result="BackgroundImageFix"/><feBlend in="SourceGraphic" in2="BackgroundImageFix" result="shape"/><feColorMatrix in="SourceAlpha" result="hardAlpha" values="0 0 0 0 0 0 0 0 0 0 0 0 0 0 0 0 0 0 127 0"/><feOffset dy="4"/><feGaussianBlur stdDeviation="12.5"/><feComposite in2="hardAlpha" k2="-1" k3="1" operator="arithmetic"/><feColorMatrix values="0 0 0 0 0 0 0 0 0 0 0 0 0 0 0 0 0 0 0.25 0"/><feBlend in2="shape" result="effect1_innerShadow_2032_25"/></filter><filter id="d" width="332.316" height="50.958" x="876.897" y="51.91" color-interpolation-filters="sRGB" filterUnits="userSpaceOnUse"><feFlood flood-opacity="0" result="BackgroundImageFix"/><feColorMatrix in="SourceAlpha" result="hardAlpha" values="0 0 0 0 0 0 0 0 0 0 0 0 0 0 0 0 0 0 127 0"/><feOffset dy="4"/><feGaussianBlur stdDeviation="3"/><feColorMatrix values="0 0 0 0 0 0 0 0 0 0 0 0 0 0 0 0 0 0 0.25 0"/><feBlend in2="BackgroundImageFix" result="effect1_dropShadow_2032_25"/><feBlend in="SourceGraphic" in2="effect1_dropShadow_2032_25" result="shape"/></filter><filter id="f" width="604.695" height="93.691" x=".516" y="17.735" color-interpolation-filters="sRGB" filterUnits="userSpaceOnUse"><feFlood flood-opacity="0" result="BackgroundImageFix"/><feColorMatrix in="SourceAlpha" result="hardAlpha" values="0 0 0 0 0 0 0 0 0 0 0 0 0 0 0 0 0 0 127 0"/><feOffset dy="4"/><feGaussianBlur stdDeviation="3"/><feColorMatrix values="0 0 0 0 0 0 0 0 0 0 0 0 0 0 0 0 0 0 0.25 0"/><feBlend in2="BackgroundImageFix" result="effect1_dropShadow_2032_25"/><feBlend in="SourceGraphic" in2="effect1_dropShadow_2032_25" result="shape"/></filter><filter id="h" width="474.502" height="56.73" x="22.819" y="30.58" color-interpolation-filters="sRGB" filterUnits="userSpaceOnUse"><feFlood flood-opacity="0" result="BackgroundImageFix"/><feColorMatrix in="SourceAlpha" result="hardAlpha" values="0 0 0 0 0 0 0 0 0 0 0 0 0 0 0 0 0 0 127 0"/><feOffset dy="4"/><feGaussianBlur stdDeviation="3"/><feColorMatrix values="0 0 0 0 0 0 0 0 0 0 0 0 0 0 0 0 0 0 0.25 0"/><feBlend in2="BackgroundImageFix" result="effect1_dropShadow_2032_25"/><feBlend in="SourceGraphic" in2="effect1_dropShadow_2032_25" result="shape"/></filter><filter id="j" width="629.289" height="95.031" x="0" y="42.742" color-interpolation-filters="sRGB" filterUnits="userSpaceOnUse"><feFlood flood-opacity="0" result="BackgroundImageFix"/><feColorMatrix in="SourceAlpha" result="hardAlpha" values="0 0 0 0 0 0 0 0 0 0 0 0 0 0 0 0 0 0 127 0"/><feOffset dy="4"/><feGaussianBlur stdDeviation="3"/><feColorMatrix values="0 0 0 0 0 0 0 0 0 0 0 0 0 0 0 0 0 0 0.25 0"/><feBlend in2="BackgroundImageFix" result="effect1_dropShadow_2032_25"/><feBlend in="SourceGraphic" in2="effect1_dropShadow_2032_25" result="shape"/></filter><filter id="l" width="121.583" height="156.872" x="580.971" y="1.039" color-interpolation-filters="sRGB" filterUnits="userSpaceOnUse"><feFlood flood-opacity="0" result="BackgroundImageFix"/><feColorMatrix in="SourceAlpha" result="hardAlpha" values="0 0 0 0 0 0 0 0 0 0 0 0 0 0 0 0 0 0 127 0"/><feOffset dy="4"/><feGaussianBlur stdDeviation="3"/><feColorMatrix values="0 0 0 0 0 0 0 0 0 0 0 0 0 0 0 0 0 0 0.25 0"/><feBlend in2="BackgroundImageFix" result="effect1_dropShadow_2032_25"/><feBlend in="SourceGraphic" in2="effect1_dropShadow_2032_25" result="shape"/></filter><filter id="n" width="627.451" height="123.625" x="661.116" y="26.885" color-interpolation-filters="sRGB" filterUnits="userSpaceOnUse"><feFlood flood-opacity="0" result="BackgroundImageFix"/><feColorMatrix in="SourceAlpha" result="hardAlpha" values="0 0 0 0 0 0 0 0 0 0 0 0 0 0 0 0 0 0 127 0"/><feOffset dy="4"/><feGaussianBlur stdDeviation="3"/><feColorMatrix values="0 0 0 0 0 0 0 0 0 0 0 0 0 0 0 0 0 0 0.25 0"/><feBlend in2="BackgroundImageFix" result="effect1_dropShadow_2032_25"/><feBlend in="SourceGraphic" in2="effect1_dropShadow_2032_25" result="shape"/></filter><filter id="p" width="667.505" height="81.028" x="618.935" y="123.91" color-interpolation-filters="sRGB" filterUnits="userSpaceOnUse"><feFlood flood-opacity="0" result="BackgroundImageFix"/><feColorMatrix in="SourceAlpha" result="hardAlpha" values="0 0 0 0 0 0 0 0 0 0 0 0 0 0 0 0 0 0 127 0"/><feOffset dy="4"/><feGaussianBlur stdDeviation="3"/><feColorMatrix values="0 0 0 0 0 0 0 0 0 0 0 0 0 0 0 0 0 0 0.25 0"/><feBlend in2="BackgroundImageFix" result="effect1_dropShadow_2032_25"/><feBlend in="SourceGraphic" in2="effect1_dropShadow_2032_25" result="shape"/></filter><filter id="r" width="472.474" height="74.844" x="711.412" y="88.91" color-interpolation-filters="sRGB" filterUnits="userSpaceOnUse"><feFlood flood-opacity="0" result="BackgroundImageFix"/><feColorMatrix in="SourceAlpha" result="hardAlpha" values="0 0 0 0 0 0 0 0 0 0 0 0 0 0 0 0 0 0 127 0"/><feOffset dy="4"/><feGaussianBlur stdDeviation="3"/><feColorMatrix values="0 0 0 0 0 0 0 0 0 0 0 0 0 0 0 0 0 0 0.25 0"/><feBlend in2="BackgroundImageFix" result="effect1_dropShadow_2032_25"/><feBlend in="SourceGraphic" in2="effect1_dropShadow_2032_25" result="shape"/></filter><filter id="t" width="656.579" height="99.475" x="3.647" y="85.376" color-interpolation-filters="sRGB" filterUnits="userSpaceOnUse"><feFlood flood-opacity="0" result="BackgroundImageFix"/><feColorMatrix in="SourceAlpha" result="hardAlpha" values="0 0 0 0 0 0 0 0 0 0 0 0 0 0 0 0 0 0 127 0"/><feOffset dy="4"/><feGaussianBlur stdDeviation="3"/><feColorMatrix values="0 0 0 0 0 0 0 0 0 0 0 0 0 0 0 0 0 0 0.25 0"/><feBlend in2="BackgroundImageFix" result="effect1_dropShadow_2032_25"/><feBlend in="SourceGraphic" in2="effect1_dropShadow_2032_25" result="shape"/></filter><radialGradient id="b" cx="0" cy="0" r="1" gradientTransform="matrix(630.565 18.2236 -17.7397 647.766 206.652 165.959)" gradientUnits="userSpaceOnUse"><stop stop-color="#b48b6d"/><stop offset=".45" stop-color="#a87b66"/><stop offset="1" stop-color="#8c5455"/></radialGradient></defs></svg>