<svg xmlns="http://www.w3.org/2000/svg" width="1278" height="351" fill="none" viewBox="0 0 1278 351"><g filter="url(#a)"><path fill="#b8896e" d="m0 52.823 1.41 297.639H1278V5.384s-66.94 16.505-124.49 19.636c-57.55 3.13-166.327-12.054-219.589-10.52-53.255 1.54-67.18 10.657-99.329 10.52-32.142-.144-46.797-8.26-92.439-10.607-45.648-2.355-129.465 5.053-181.182 2.047C509.249 13.46 473.906.38 432.34.005c-41.566-.376-74.56 21.198-141.841 20.814-42.4-.242-83.143-18.181-133.077-13.878-39.109 3.37-70.788 23.479-102.03 26.329C19.669 36.528 0 52.823 0 52.823"/></g><path stroke="url(#b)" stroke-linecap="round" stroke-linejoin="round" stroke-opacity=".4" stroke-width="2" d="M432.33 1.005c20.687.187 39.836 3.534 60.34 7.227 20.491 3.691 42.313 7.722 68.243 9.226 25.915 1.506 59.849.403 92.961-.778 33.147-1.183 65.458-2.443 88.228-1.269 22.759 1.171 37.785 3.778 51.161 6.116 13.387 2.34 25.161 4.42 41.325 4.493 16.178.069 27.784-2.193 41.925-4.645 14.13-2.45 30.874-5.107 57.437-5.875 26.563-.765 67 2.64 108.08 5.855 41.02 3.212 82.68 6.233 111.53 4.664 28.84-1.57 60.01-6.488 83.96-11.01a940 940 0 0 0 29.34-6.022c3.59-.799 6.43-1.456 8.38-1.915.71-.166 1.3-.308 1.76-.419v342.81H2.406L1.002 53.307q.2-.157.51-.388a57 57 0 0 1 2.669-1.857c2.368-1.557 5.903-3.672 10.55-5.891 9.292-4.438 23.025-9.288 40.751-10.905 15.77-1.439 31.632-7.231 48.303-13.02C120.5 15.44 138.091 9.61 157.508 7.935c24.827-2.139 47.386 1.249 69.097 5.223 21.676 3.968 42.576 8.539 63.888 8.66 33.759.193 58.918-5.126 80.805-10.432C393.209 6.074 411.702.819 432.33 1.005"/><defs><linearGradient id="b" x1="428.098" x2="1097.93" y1="-68.244" y2="153.318" gradientUnits="userSpaceOnUse"><stop stop-color="#dca796"/><stop offset=".707" stop-color="#d09d73" stop-opacity=".8"/></linearGradient><filter id="a" width="1278" height="354.462" x="0" y="0" color-interpolation-filters="sRGB" filterUnits="userSpaceOnUse"><feFlood flood-opacity="0" result="BackgroundImageFix"/><feBlend in="SourceGraphic" in2="BackgroundImageFix" result="shape"/><feColorMatrix in="SourceAlpha" result="hardAlpha" values="0 0 0 0 0 0 0 0 0 0 0 0 0 0 0 0 0 0 127 0"/><feOffset dy="4"/><feGaussianBlur stdDeviation="12.5"/><feComposite in2="hardAlpha" k2="-1" k3="1" operator="arithmetic"/><feColorMatrix values="0 0 0 0 0 0 0 0 0 0 0 0 0 0 0 0 0 0 0.25 0"/><feBlend in2="shape" result="effect1_innerShadow_2032_18"/></filter></defs></svg>