<svg xmlns="http://www.w3.org/2000/svg" width="1280" height="410" fill="none" viewBox="0 0 1280 410"><g filter="url(#a)"><path fill="#ac847b" d="M0 30.206S96.336-1.597 142.603.063c46.268 1.659 81.55 18.046 114.937 19.242s59.702-8.527 98.671-7.025 92.177 43.747 151.695 45.075c59.517 1.32 69.146-10.72 112.707-10.094 43.566.62 111.126 17.714 147.322 17.432 36.203-.282 42.319-8.535 68.335-9.18 26.023-.638 55.824 8.623 86.975 7.345 31.152-1.277 65.877-16.31 98.515-16.517 32.63-.207 51.47 14.501 94.95 14.683 43.49.181 163.29-23.857 163.29-23.857l-8.26 372.539H0z"/></g><path stroke="url(#b)" stroke-linecap="round" stroke-linejoin="round" stroke-opacity=".4" stroke-width="2" d="M54.202 15.48C84.082 7.734 119.6.24 142.567 1.063c23.028.825 43.333 5.316 62.104 9.768 18.736 4.444 36.018 8.871 52.834 9.474 16.793.601 31.804-1.545 47.41-3.636 15.619-2.093 31.866-4.137 51.258-3.39 9.585.37 20.1 3.249 31.466 7.429s23.489 9.626 36.322 15.095c25.613 10.915 53.953 21.883 83.923 22.552 29.844.662 47.2-2.027 62.537-4.802 15.302-2.769 28.508-5.604 50.178-5.292 21.695.308 49.396 4.722 76.28 9.042 26.822 4.31 52.862 8.532 71.064 8.39 18.195-.141 28.851-2.29 38.207-4.48 9.033-2.115 16.76-4.243 28.952-4.664l1.193-.035c12.909-.317 26.769 1.82 41.398 3.901 14.595 2.075 29.916 4.085 45.593 3.442 15.693-.643 32.268-4.75 48.89-8.686 16.668-3.947 33.404-7.728 49.584-7.83 16.17-.102 28.91 3.483 43.16 7.164 14.24 3.68 29.92 7.427 51.79 7.518 21.85.092 62.76-5.89 98.12-11.874a2491 2491 0 0 0 60.13-10.967c1.68-.329 2.99-.588 3.88-.764l.13-.027-8.2 370.315H1V30.931l.401-.13a576 576 0 0 1 3.132-1.005c2.72-.865 6.66-2.1 11.532-3.576 9.746-2.953 23.22-6.872 38.137-10.74"/><defs><linearGradient id="b" x1="428.767" x2="1117.72" y1="-79.78" y2="115.459" gradientUnits="userSpaceOnUse"><stop stop-color="#dca796"/><stop offset=".707" stop-color="#d09d73" stop-opacity=".8"/></linearGradient><filter id="a" width="1280" height="413.706" x="0" y="0" color-interpolation-filters="sRGB" filterUnits="userSpaceOnUse"><feFlood flood-opacity="0" result="BackgroundImageFix"/><feBlend in="SourceGraphic" in2="BackgroundImageFix" result="shape"/><feColorMatrix in="SourceAlpha" result="hardAlpha" values="0 0 0 0 0 0 0 0 0 0 0 0 0 0 0 0 0 0 127 0"/><feOffset dy="4"/><feGaussianBlur stdDeviation="12.5"/><feComposite in2="hardAlpha" k2="-1" k3="1" operator="arithmetic"/><feColorMatrix values="0 0 0 0 0 0 0 0 0 0 0 0 0 0 0 0 0 0 0.25 0"/><feBlend in2="shape" result="effect1_innerShadow_2032_16"/></filter></defs></svg>