<svg width="1280" height="410" viewBox="0 0 1280 410" fill="none" xmlns="http://www.w3.org/2000/svg">
<g filter="url(#filter0_i_2032_16)">
<path d="M0 30.2063C0 30.2063 96.3362 -1.59656 142.603 0.0627429C188.871 1.72204 224.153 18.1089 257.54 19.305C290.927 20.5011 317.242 10.7779 356.211 12.2797C395.18 13.7816 448.388 56.027 507.906 57.3545C567.423 58.6757 577.052 46.6348 620.613 47.2609C664.179 47.8808 731.739 64.9747 767.935 64.6929C804.138 64.4112 810.254 56.1585 836.27 55.5135C862.293 54.8749 892.094 64.1357 923.245 62.8583C954.397 61.581 989.122 46.5471 1021.76 46.3405C1054.39 46.1338 1073.23 60.8421 1116.71 61.0237C1160.2 61.2053 1280 37.1674 1280 37.1674L1271.74 409.706H0V30.2063Z" fill="#AC847B"/>
</g>
<path d="M54.2021 15.4805C84.0817 7.73403 119.599 0.238841 142.567 1.0625C165.595 1.88835 185.9 6.37903 204.671 10.8311C223.407 15.275 240.689 19.7023 257.505 20.3047C274.298 20.9062 289.309 18.7602 304.915 16.6689C320.534 14.576 336.781 12.5319 356.173 13.2793C365.758 13.6487 376.273 16.5277 387.639 20.708C399.005 24.8889 411.128 30.334 423.961 35.8027C449.574 46.718 477.914 57.6861 507.884 58.3545C537.728 59.017 555.084 56.3276 570.421 53.5527C585.723 50.7841 598.929 47.9493 620.599 48.2607C642.294 48.5695 669.995 52.9832 696.879 57.3027C723.701 61.6124 749.741 65.8351 767.943 65.6934C786.138 65.5517 796.794 63.4036 806.15 61.2129C815.183 59.0979 822.91 56.9702 835.102 56.5488L836.295 56.5137C849.204 56.1969 863.064 58.3347 877.693 60.415C892.288 62.4903 907.609 64.5002 923.286 63.8574C938.979 63.2139 955.554 59.1071 972.176 55.1709C988.844 51.2238 1005.58 47.4433 1021.76 47.3408C1037.93 47.2385 1050.67 50.8244 1064.92 54.5049C1079.16 58.1853 1094.84 61.9321 1116.71 62.0234C1138.56 62.1146 1179.47 56.1327 1214.83 50.1494C1232.53 47.1547 1248.87 44.1548 1260.79 41.9033C1266.75 40.7776 1271.6 39.8389 1274.96 39.1816C1276.64 38.853 1277.95 38.5941 1278.84 38.418C1278.88 38.409 1278.93 38.3992 1278.97 38.3906L1270.77 408.706H1V30.9307C1.11883 30.892 1.25283 30.849 1.40137 30.8008C2.11652 30.5688 3.17285 30.2285 4.5332 29.7959C7.25392 28.9308 11.1933 27.696 16.0654 26.2197C25.8107 23.2669 39.2851 19.3478 54.2021 15.4805Z" stroke="url(#paint0_linear_2032_16)" stroke-opacity="0.4" stroke-width="2" stroke-linecap="round" stroke-linejoin="round"/>
<defs>
<filter id="filter0_i_2032_16" x="0" y="0" width="1280" height="413.706" filterUnits="userSpaceOnUse" color-interpolation-filters="sRGB">
<feFlood flood-opacity="0" result="BackgroundImageFix"/>
<feBlend mode="normal" in="SourceGraphic" in2="BackgroundImageFix" result="shape"/>
<feColorMatrix in="SourceAlpha" type="matrix" values="0 0 0 0 0 0 0 0 0 0 0 0 0 0 0 0 0 0 127 0" result="hardAlpha"/>
<feOffset dy="4"/>
<feGaussianBlur stdDeviation="12.5"/>
<feComposite in2="hardAlpha" operator="arithmetic" k2="-1" k3="1"/>
<feColorMatrix type="matrix" values="0 0 0 0 0 0 0 0 0 0 0 0 0 0 0 0 0 0 0.25 0"/>
<feBlend mode="normal" in2="shape" result="effect1_innerShadow_2032_16"/>
</filter>
<linearGradient id="paint0_linear_2032_16" x1="428.767" y1="-79.7802" x2="1117.72" y2="115.459" gradientUnits="userSpaceOnUse">
<stop stop-color="#DCA796"/>
<stop offset="0.706731" stop-color="#D09D73" stop-opacity="0.8"/>
</linearGradient>
</defs>
</svg>
