<svg width="1280" height="371" viewBox="0 0 1280 371" fill="none" xmlns="http://www.w3.org/2000/svg">
<g filter="url(#filter0_i_2032_20)">
<path d="M0 2.87543C0 2.87543 14.9327 -0.148873 37.8949 0.865492C60.8571 1.87986 100.621 15.6927 136.909 14.9351C173.196 14.1774 213.77 -1.56366 252.858 0.126944C291.946 1.81755 331.07 28.9089 362.646 34.3502C397.972 40.4364 463.982 34.8336 499.103 35.7453C554.635 37.187 581.323 79.0768 649.549 83.2602C702.256 86.492 742.424 75.7489 813.685 81.8365C872.561 86.866 888.439 100.955 946.556 105.575C985.591 108.678 1004.02 94.2826 1057.07 94.733C1098.09 95.0812 1155.09 120.394 1188.88 124.988C1219.72 129.179 1257.22 125.818 1280 124.353V370.155H0.635473L0 2.87543Z" fill="url(#paint0_radial_2032_20)"/>
</g>
<path d="M194.024 7.59473C213.594 3.77516 233.403 0.286437 252.814 1.12598C272.166 1.96295 291.574 9.09257 310.188 16.7568C328.726 24.3896 346.547 32.591 362.477 35.3359C380.248 38.3978 405.676 38.514 430.973 37.9883C456.326 37.4614 481.547 36.2901 499.077 36.7451C526.584 37.4592 546.945 48.1771 569.115 59.3672C591.275 70.5518 615.159 82.1538 649.488 84.2588C675.917 85.8793 699.207 83.9949 724.719 82.4756C750.238 80.9558 778.04 79.7953 813.6 82.833C842.953 85.3405 861.577 90.1037 880.158 94.8291C898.766 99.5612 917.331 104.256 946.477 106.572C966.143 108.136 980.629 105.285 996.749 102.13C1012.85 98.9782 1030.64 95.5091 1057.06 95.7334C1077.41 95.9062 1101.79 102.278 1125.4 109.228C1148.94 116.153 1171.75 123.668 1188.75 125.979C1219.23 130.122 1256.17 126.916 1279 125.421V369.154H1.63379L1.00098 3.70801C1.4411 3.63072 2.05843 3.5266 2.84277 3.40723C4.58435 3.14216 7.14998 2.79808 10.4316 2.48535C16.9957 1.85983 26.4225 1.35943 37.8506 1.86426C49.2299 2.36694 64.7876 6.04491 82.208 9.54492C99.5618 13.0315 118.668 16.3159 136.93 15.9346C155.181 15.5535 174.499 11.4056 194.024 7.59473Z" stroke="url(#paint1_linear_2032_20)" stroke-opacity="0.4" stroke-width="2" stroke-linecap="round" stroke-linejoin="round"/>
<defs>
<filter id="filter0_i_2032_20" x="0" y="0" width="1280" height="374.155" filterUnits="userSpaceOnUse" color-interpolation-filters="sRGB">
<feFlood flood-opacity="0" result="BackgroundImageFix"/>
<feBlend mode="normal" in="SourceGraphic" in2="BackgroundImageFix" result="shape"/>
<feColorMatrix in="SourceAlpha" type="matrix" values="0 0 0 0 0 0 0 0 0 0 0 0 0 0 0 0 0 0 127 0" result="hardAlpha"/>
<feOffset dy="4"/>
<feGaussianBlur stdDeviation="12.5"/>
<feComposite in2="hardAlpha" operator="arithmetic" k2="-1" k3="1"/>
<feColorMatrix type="matrix" values="0 0 0 0 0 0 0 0 0 0 0 0 0 0 0 0 0 0 0.25 0"/>
<feBlend mode="normal" in2="shape" result="effect1_innerShadow_2032_20"/>
</filter>
<radialGradient id="paint0_radial_2032_20" cx="0" cy="0" r="1" gradientTransform="matrix(-188.447 65.1512 -63.341 -193.833 244.628 29.5946)" gradientUnits="userSpaceOnUse">
<stop stop-color="#BA997F"/>
<stop offset="1" stop-color="#B3826A"/>
</radialGradient>
<linearGradient id="paint1_linear_2032_20" x1="428.767" y1="-72.0785" x2="1106.38" y2="140.466" gradientUnits="userSpaceOnUse">
<stop stop-color="#DCA796"/>
<stop offset="0.706731" stop-color="#D09D73" stop-opacity="0.8"/>
</linearGradient>
</defs>
</svg>
