<svg xmlns="http://www.w3.org/2000/svg" width="1280" height="371" fill="none" viewBox="0 0 1280 371"><g filter="url(#a)"><path fill="url(#b)" d="M0 2.875S14.933-.149 37.895.865s62.726 14.828 99.014 14.07S213.77-1.564 252.858.127 331.07 28.909 362.646 34.35c35.326 6.086 101.336.484 136.457 1.395 55.532 1.442 82.22 43.332 150.446 47.515 52.707 3.232 92.875-7.511 164.136-1.424 58.876 5.03 74.754 19.119 132.871 23.739 39.035 3.103 57.464-11.292 110.514-10.842 41.02.348 98.02 25.661 131.81 30.255 30.84 4.191 68.34.83 91.12-.635v245.802H.635z"/></g><path stroke="url(#c)" stroke-linecap="round" stroke-linejoin="round" stroke-opacity=".4" stroke-width="2" d="M194.024 7.595c19.57-3.82 39.379-7.309 58.79-6.469 19.352.837 38.76 7.967 57.374 15.63 18.538 7.634 36.359 15.835 52.289 18.58 17.771 3.062 43.199 3.178 68.496 2.652 25.353-.527 50.574-1.698 68.104-1.243 27.507.714 47.868 11.432 70.038 22.622 22.16 11.185 46.044 22.787 80.373 24.892 26.429 1.62 49.719-.264 75.231-1.783 25.519-1.52 53.321-2.68 88.881.357 29.353 2.508 47.977 7.27 66.558 11.996 18.608 4.732 37.173 9.427 66.319 11.743 19.666 1.564 34.152-1.287 50.272-4.442 16.101-3.152 33.891-6.62 60.311-6.397 20.35.173 44.73 6.545 68.34 13.495 23.54 6.925 46.35 14.44 63.35 16.751 30.48 4.143 67.42.937 90.25-.558v243.733H1.634L1 3.708a82 82 0 0 1 1.842-.3c1.741-.266 4.307-.61 7.589-.923 6.564-.625 15.99-1.126 27.419-.62 11.379.502 26.937 4.18 44.357 7.68 17.354 3.486 36.46 6.77 54.722 6.39 18.251-.382 37.569-4.53 57.094-8.34"/><defs><radialGradient id="b" cx="0" cy="0" r="1" gradientTransform="matrix(-188.447 65.1512 -63.341 -193.833 244.628 29.595)" gradientUnits="userSpaceOnUse"><stop stop-color="#ba997f"/><stop offset="1" stop-color="#b3826a"/></radialGradient><linearGradient id="c" x1="428.767" x2="1106.38" y1="-72.079" y2="140.466" gradientUnits="userSpaceOnUse"><stop stop-color="#dca796"/><stop offset=".707" stop-color="#d09d73" stop-opacity=".8"/></linearGradient><filter id="a" width="1280" height="374.155" x="0" y="0" color-interpolation-filters="sRGB" filterUnits="userSpaceOnUse"><feFlood flood-opacity="0" result="BackgroundImageFix"/><feBlend in="SourceGraphic" in2="BackgroundImageFix" result="shape"/><feColorMatrix in="SourceAlpha" result="hardAlpha" values="0 0 0 0 0 0 0 0 0 0 0 0 0 0 0 0 0 0 127 0"/><feOffset dy="4"/><feGaussianBlur stdDeviation="12.5"/><feComposite in2="hardAlpha" k2="-1" k3="1" operator="arithmetic"/><feColorMatrix values="0 0 0 0 0 0 0 0 0 0 0 0 0 0 0 0 0 0 0.25 0"/><feBlend in2="shape" result="effect1_innerShadow_2032_20"/></filter></defs></svg>