<?xml version="1.0" encoding="UTF-8" standalone="no"?>
<svg
  width="450"
  height="450"
  viewBox="0 0 450 450"
  fill="none"
  version="1.1"
  id="svg12"
  sodipodi:docname="moon.svg"
  inkscape:version="1.4.3 (0d15f75, 2025-12-25)"
  xmlns:inkscape="http://www.inkscape.org/namespaces/inkscape"
  xmlns:sodipodi="http://sodipodi.sourceforge.net/DTD/sodipodi-0.dtd"
  xmlns="http://www.w3.org/2000/svg"
  xmlns:svg="http://www.w3.org/2000/svg"
  xmlns:xhtml="http://www.w3.org/1999/xhtml"
>
  <sodipodi:namedview
    id="namedview12"
    pagecolor="#505050"
    bordercolor="#eeeeee"
    borderopacity="1"
    inkscape:showpageshadow="0"
    inkscape:pageopacity="0"
    inkscape:pagecheckerboard="0"
    inkscape:deskcolor="#505050"
    inkscape:zoom="0.95269629"
    inkscape:cx="182.63953"
    inkscape:cy="305.97369"
    inkscape:window-width="1710"
    inkscape:window-height="1044"
    inkscape:window-x="0"
    inkscape:window-y="40"
    inkscape:window-maximized="0"
    inkscape:current-layer="svg12"
  />
  <foreignObject x="-0.00019455" y="4.95911e-05" width="189.6" height="189.6">
    <xhtml:div
      style="
        backdrop-filter: blur(2.5px);
        clip-path: url(#bgblur_0_2_5_clip_path);
        height: 100%;
        width: 100%;
      "
    />
  </foreignObject>
  <g
    filter="url(#filter0_ddd_2_5)"
    data-figma-bg-blur-radius="5"
    id="g2"
    transform="matrix(2.3734197,0,0,2.3734197,2.671988e-4,-6.8109395e-5)"
  >
    <path
      d="m 96.8347,18.3 c -3.4542,0 -6.9041,0.2399 -10.3231,0.7177 -3.4188,0.478 -6.7981,1.1927 -10.112,2.1386 -3.3146,0.9456 -6.5555,2.1201 -9.6979,3.5145 -3.1418,1.3947 -6.1771,3.0057 -9.0827,4.8207 -2.9059,1.8151 -5.6747,3.8297 -8.2852,6.0283 -2.6103,2.1987 -5.0557,4.5757 -7.3175,7.1131 -2.262,2.5371 -4.3346,5.228 -6.2021,8.0521 -1.8674,2.8246 -3.5248,5.7752 -4.9596,8.8293 -1.4349,3.0536 -2.6436,6.203 -3.6167,9.4239 -0.9732,3.2216 -1.7084,6.5066 -2.2,9.83 -0.4915,3.3229 -0.7381,6.6758 -0.7381,10.0329 0,3.3571 0.2466,6.7099 0.7381,10.0329 0.4917,3.323 1.2269,6.607 2.2,9.828 0.9731,3.222 2.1817,6.372 3.6167,9.426 1.4349,3.053 3.0923,6.003 4.9596,8.827 1.8675,2.824 3.9401,5.515 6.2021,8.052 2.2618,2.538 4.7072,4.915 7.3175,7.113 2.6105,2.199 5.3793,4.213 8.2852,6.029 2.9056,1.815 5.9409,3.426 9.0827,4.82 3.1424,1.395 6.3833,2.569 9.6979,3.515 3.3139,0.946 6.6932,1.66 10.112,2.138 3.419,0.478 6.8689,0.718 10.3231,0.718 3.4533,0 6.9023,-0.24 10.3213,-0.718 3.419,-0.477 6.799,-1.192 10.114,-2.138 3.314,-0.946 6.554,-2.12 9.696,-3.515 3.141,-1.394 6.177,-3.005 9.082,-4.82 2.906,-1.816 5.675,-3.83 8.286,-6.029 2.61,-2.198 5.055,-4.575 7.317,-7.113 2.262,-2.537 4.335,-5.228 6.202,-8.052 1.868,-2.824 3.525,-5.774 4.96,-8.827 0.938,-2.121 1.767,-4.284 2.487,-6.484 -1.647,1.84 -3.423,3.567 -5.317,5.167 -2.412,1.968 -4.996,3.727 -7.723,5.258 -2.727,1.53 -5.586,2.826 -8.546,3.873 -2.959,1.047 -6.006,1.841 -9.107,2.373 -3.102,0.531 -6.245,0.798 -9.394,0.797 -3.149,0 -6.292,-0.266 -9.393,-0.797 -3.101,-0.532 -6.148,-1.326 -9.107,-2.373 -2.959,-1.047 -5.818,-2.343 -8.5456,-3.873 -2.727,-1.531 -5.3113,-3.29 -7.7234,-5.258 -2.4123,-1.967 -4.6433,-4.135 -6.6675,-6.479 -2.0243,-2.344 -3.834,-4.856 -5.4087,-7.507 -1.5748,-2.651 -2.9085,-5.4299 -3.9857,-8.3062 -1.0768,-2.876 -1.8932,-5.8378 -2.4399,-8.8518 -0.547,-3.0146 -0.8221,-6.0697 -0.8221,-9.1307 2e-4,-3.0604 0.2753,-6.1149 0.8221,-9.1287 0.5467,-3.014 1.3631,-5.9759 2.4399,-8.8518 1.0772,-2.8763 2.4109,-5.6557 3.9857,-8.3065 1.5747,-2.6505 3.3844,-5.1622 5.4087,-7.5067 2.0241,-2.345 4.2551,-4.5138 6.6675,-6.4815 2.4122,-1.9669 4.9965,-3.7254 7.7234,-5.2553 2.7276,-1.5305 5.5866,-2.8265 8.5456,-3.8734 2.959,-1.0469 6.006,-1.8407 9.107,-2.3724 3.097,-0.5302 6.234,-0.7971 9.378,-0.7976 -1.048,-0.4349 -2.106,-0.8458 -3.174,-1.2323 -1.148,-0.414 -2.308,-0.7996 -3.477,-1.1565 -1.169,-0.3563 -2.347,-0.6838 -3.532,-0.9821 -1.186,-0.2987 -2.38,-0.5681 -3.58,-0.8079 -1.2,-0.2395 -2.406,-0.4494 -3.617,-0.6295 -1.211,-0.1803 -2.426,-0.3307 -3.645,-0.4511 -1.219,-0.1203 -2.441,-0.2105 -3.664,-0.2707 C 99.2851,18.3314 98.06,18.3006 96.8347,18.3 Z"
      fill="url(#paint0_linear_2_5)"
      fill-opacity="0.396524"
      shape-rendering="geometricPrecision"
      stroke-linecap="round"
      stroke-linejoin="round"
      id="path1"
      style="fill: url(#paint0_linear_2_5)"
    />
    <path
      d="m 96.835,18.8 c 1.2169,6e-4 2.434,0.0314 3.649,0.0918 1.215,0.0598 2.429,0.1492 3.639,0.2686 1.211,0.1196 2.418,0.2692 3.621,0.4482 0.902,0.1342 1.802,0.2848 2.698,0.4522 l 0.895,0.1728 c 0.894,0.1787 1.784,0.3744 2.671,0.586 l 0.885,0.2168 c 0.883,0.2223 1.762,0.4611 2.636,0.7158 l 0.872,0.2598 c 1.161,0.3543 2.313,0.7364 3.453,1.1474 v 10e-4 c 0.288,0.1042 0.575,0.2097 0.862,0.3174 -1.944,0.0863 -3.883,0.2738 -5.807,0.5615 l -1.173,0.1875 c -3.129,0.5364 -6.204,1.3381 -9.19,2.3945 -2.986,1.0564 -5.871,2.3639 -8.6231,3.9082 -2.7519,1.544 -5.3604,3.3186 -7.795,5.3038 -2.4348,1.986 -4.6862,4.1758 -6.7295,6.5429 -2.0433,2.3666 -3.8712,4.9023 -5.4609,7.5781 -1.5897,2.6759 -2.9358,5.4819 -4.0234,8.3858 -1.0873,2.9038 -1.9119,5.895 -2.4639,8.9385 -0.5522,3.0431 -0.8299,6.1275 -0.8301,9.2177 1e-4,3.0909 0.2778,6.1759 0.8301,9.2198 0.552,3.0434 1.3766,6.0346 2.4639,8.9384 1.0876,2.9039 2.4337,5.7095 4.0234,8.3855 1.5897,2.676 3.4176,5.212 5.4609,7.578 1.7879,2.071 3.7353,4.005 5.8252,5.787 l 0.9043,0.753 c 2.4346,1.986 5.0429,3.762 7.795,5.307 2.7521,1.544 5.6371,2.852 8.6231,3.908 2.986,1.057 6.061,1.857 9.19,2.394 v 0.001 c 3.129,0.536 6.3,0.805 9.477,0.805 3.177,0 6.349,-0.269 9.478,-0.805 v -0.001 c 3.129,-0.537 6.204,-1.337 9.19,-2.394 2.986,-1.056 5.872,-2.363 8.624,-3.908 2.752,-1.545 5.36,-3.321 7.795,-5.307 l 0.007,-0.004 c 1.307,-1.106 2.557,-2.272 3.75,-3.493 -0.52,1.422 -1.084,2.828 -1.697,4.214 -1.424,3.032 -3.07,5.96 -4.923,8.764 -1.855,2.804 -3.913,5.476 -6.159,7.995 h -0.001 c -2.245,2.519 -4.673,4.88 -7.265,7.064 -2.593,2.183 -5.343,4.184 -8.229,5.987 -2.885,1.802 -5.9,3.402 -9.02,4.787 -2.731,1.212 -5.536,2.256 -8.4,3.128 l -1.23,0.363 c -3.292,0.94 -6.65,1.649 -10.046,2.124 -3.395,0.475 -6.822,0.713 -10.252,0.713 -3.431,0 -6.8579,-0.238 -10.2539,-0.713 -2.9713,-0.415 -5.9128,-1.01 -8.8067,-1.782 l -1.2373,-0.342 -1.2314,-0.363 c -2.8644,-0.872 -5.6705,-1.916 -8.4014,-3.128 -3.1203,-1.385 -6.1349,-2.985 -9.0205,-4.787 -2.8859,-1.803 -5.6352,-3.804 -8.2276,-5.987 -2.5921,-2.184 -5.0207,-4.544 -7.2666,-7.064 -2.246,-2.519 -4.304,-5.191 -6.1582,-7.995 -1.854,-2.804 -3.5002,-5.732 -4.9248,-8.764 -1.4246,-3.032 -2.6238,-6.16 -3.5898,-9.358 -0.966,-3.198 -1.6965,-6.458 -2.1846,-9.756 -0.4879,-3.2988 -0.7324,-6.6274 -0.7324,-9.96 0,-3.3326 0.2445,-6.6612 0.7324,-9.9599 0.488,-3.299 1.2185,-6.5598 2.1846,-9.7578 0.9661,-3.1977 2.1653,-6.3249 3.5898,-9.3565 1.4245,-3.0321 3.0708,-5.9612 4.9248,-8.7656 1.8542,-2.804 3.9122,-5.4759 6.1582,-7.9951 2.2459,-2.5195 4.6745,-4.8801 7.2666,-7.0635 2.5924,-2.1834 5.3417,-4.1847 8.2276,-5.9873 2.8856,-1.8025 5.9002,-3.402 9.0205,-4.7871 3.121,-1.385 6.3406,-2.5521 9.6328,-3.4912 3.2915,-0.9396 6.6483,-1.6493 10.044,-2.1241 C 89.9771,19.0383 93.404,18.8 96.835,18.8 Z"
      stroke="url(#paint1_linear_2_5)"
      shape-rendering="geometricPrecision"
      stroke-linecap="round"
      stroke-linejoin="round"
      id="path2"
      style="stroke: url(#paint1_linear_2_5)"
    />
  </g>
  <defs id="defs12">
    <filter
      id="filter0_ddd_2_5"
      x="-0.00019455"
      y="4.95911e-05"
      width="189.6"
      height="189.6"
      filterUnits="userSpaceOnUse"
      color-interpolation-filters="sRGB"
    >
      <feFlood flood-opacity="0" result="BackgroundImageFix" id="feFlood2" />
      <feColorMatrix
        in="SourceAlpha"
        type="matrix"
        values="0 0 0 0 0 0 0 0 0 0 0 0 0 0 0 0 0 0 127 0"
        result="hardAlpha"
        id="feColorMatrix2"
      />
      <feOffset dy="6" id="feOffset2" />
      <feGaussianBlur stdDeviation="12.15" id="feGaussianBlur2" />
      <feComposite in2="hardAlpha" operator="out" id="feComposite2" />
      <feColorMatrix
        type="matrix"
        values="0 0 0 0 0 0 0 0 0 0 0 0 0 0 0 0 0 0 0.46 0"
        id="feColorMatrix3"
      />
      <feBlend
        mode="normal"
        in2="BackgroundImageFix"
        result="effect1_dropShadow_2_5"
        id="feBlend3"
      />
      <feColorMatrix
        in="SourceAlpha"
        type="matrix"
        values="0 0 0 0 0 0 0 0 0 0 0 0 0 0 0 0 0 0 127 0"
        result="hardAlpha"
        id="feColorMatrix4"
      />
      <feOffset id="feOffset4" />
      <feGaussianBlur stdDeviation="0.85" id="feGaussianBlur4" />
      <feComposite in2="hardAlpha" operator="out" id="feComposite4" />
      <feColorMatrix
        type="matrix"
        values="0 0 0 0 0 0 0 0 0 0 0 0 0 0 0 0 0 0 0.8 0"
        id="feColorMatrix5"
      />
      <feBlend
        mode="normal"
        in2="effect1_dropShadow_2_5"
        result="effect2_dropShadow_2_5"
        id="feBlend5"
      />
      <feColorMatrix
        in="SourceAlpha"
        type="matrix"
        values="0 0 0 0 0 0 0 0 0 0 0 0 0 0 0 0 0 0 127 0"
        result="hardAlpha"
        id="feColorMatrix6"
      />
      <feOffset dy="4" id="feOffset6" />
      <feGaussianBlur stdDeviation="2" id="feGaussianBlur6" />
      <feComposite in2="hardAlpha" operator="out" id="feComposite6" />
      <feColorMatrix
        type="matrix"
        values="0 0 0 0 0 0 0 0 0 0 0 0 0 0 0 0 0 0 0.25 0"
        id="feColorMatrix7"
      />
      <feBlend
        mode="normal"
        in2="effect2_dropShadow_2_5"
        result="effect3_dropShadow_2_5"
        id="feBlend7"
      />
      <feBlend
        mode="normal"
        in="SourceGraphic"
        in2="effect3_dropShadow_2_5"
        result="shape"
        id="feBlend8"
      />
    </filter>
    <clipPath
      id="bgblur_0_2_5_clip_path"
      transform="translate(0.00019455 -4.95911e-05)"
    >
      <path
        d="M96.8347 18.3C93.3805 18.3 89.9306 18.5399 86.5116 19.0177C83.0928 19.4957 79.7135 20.2104 76.3996 21.1563C73.085 22.1019 69.8441 23.2764 66.7017 24.6708C63.5599 26.0655 60.5246 27.6765 57.619 29.4915C54.7131 31.3066 51.9443 33.3212 49.3338 35.5198C46.7235 37.7185 44.2781 40.0955 42.0163 42.6329C39.7543 45.17 37.6817 47.8609 35.8142 50.685C33.9468 53.5096 32.2894 56.4602 30.8546 59.5143C29.4197 62.5679 28.211 65.7173 27.2379 68.9382C26.2647 72.1598 25.5295 75.4448 25.0379 78.7682C24.5464 82.0911 24.2998 85.444 24.2998 88.8011C24.2998 92.1582 24.5464 95.511 25.0379 98.834C25.5296 102.157 26.2648 105.441 27.2379 108.662C28.211 111.884 29.4196 115.034 30.8546 118.088C32.2895 121.141 33.9469 124.091 35.8142 126.915C37.6817 129.739 39.7543 132.43 42.0163 134.967C44.2781 137.505 46.7235 139.882 49.3338 142.08C51.9443 144.279 54.7131 146.293 57.619 148.109C60.5246 149.924 63.5599 151.535 66.7017 152.929C69.8441 154.324 73.085 155.498 76.3996 156.444C79.7135 157.39 83.0928 158.104 86.5116 158.582C89.9306 159.06 93.3805 159.3 96.8347 159.3C100.288 159.3 103.737 159.06 107.156 158.582C110.575 158.105 113.955 157.39 117.27 156.444C120.584 155.498 123.824 154.324 126.966 152.929C130.107 151.535 133.143 149.924 136.048 148.109C138.954 146.293 141.723 144.279 144.334 142.08C146.944 139.882 149.389 137.505 151.651 134.967C153.913 132.43 155.986 129.739 157.853 126.915C159.721 124.091 161.378 121.141 162.813 118.088C163.751 115.967 164.58 113.804 165.3 111.604C163.653 113.444 161.877 115.171 159.983 116.771C157.571 118.739 154.987 120.498 152.26 122.029C149.533 123.559 146.674 124.855 143.714 125.902C140.755 126.949 137.708 127.743 134.607 128.275C131.505 128.806 128.362 129.073 125.213 129.072C122.064 129.072 118.921 128.806 115.82 128.275C112.719 127.743 109.672 126.949 106.713 125.902C103.754 124.855 100.895 123.559 98.1674 122.029C95.4404 120.498 92.8561 118.739 90.444 116.771C88.0317 114.804 85.8007 112.636 83.7765 110.292C81.7522 107.948 79.9425 105.436 78.3678 102.785C76.793 100.134 75.4593 97.3551 74.3821 94.4788C73.3053 91.6028 72.4889 88.641 71.9422 85.627C71.3952 82.6124 71.1201 79.5573 71.1201 76.4963C71.1203 73.4359 71.3954 70.3814 71.9422 67.3676C72.4889 64.3536 73.3053 61.3917 74.3821 58.5158C75.4593 55.6395 76.793 52.8601 78.3678 50.2093C79.9425 47.5588 81.7522 45.0471 83.7765 42.7026C85.8006 40.3576 88.0316 38.1888 90.444 36.2211C92.8562 34.2542 95.4405 32.4957 98.1674 30.9658C100.895 29.4353 103.754 28.1393 106.713 27.0924C109.672 26.0455 112.719 25.2517 115.82 24.72C118.917 24.1898 122.054 23.9229 125.198 23.9224C124.15 23.4875 123.092 23.0766 122.024 22.6901C120.876 22.2761 119.716 21.8905 118.547 21.5336C117.378 21.1773 116.2 20.8498 115.015 20.5515C113.829 20.2528 112.635 19.9834 111.435 19.7436C110.235 19.5041 109.029 19.2942 107.818 19.1141C106.607 18.9338 105.392 18.7834 104.173 18.663C102.954 18.5427 101.732 18.4525 100.509 18.3923C99.2851 18.3314 98.06 18.3006 96.8347 18.3Z"
        shape-rendering="geometricPrecision"
        stroke-linecap="round"
        stroke-linejoin="round"
        id="path8"
      />
    </clipPath>
    <linearGradient
      id="paint0_linear_2_5"
      x1="61.7936"
      y1="31.0271"
      x2="137.857"
      y2="135.504"
      gradientUnits="userSpaceOnUse"
    >
      <stop stop-color="#E1D7FF" stop-opacity="0.8" id="stop8" />
      <stop offset="0.368226" stop-color="white" id="stop9" />
      <stop offset="1" stop-color="#999999" stop-opacity="0.42" id="stop10" />
    </linearGradient>
    <linearGradient
      id="paint1_linear_2_5"
      x1="72.1977"
      y1="34.5435"
      x2="124.995"
      y2="147.26"
      gradientUnits="userSpaceOnUse"
    >
      <stop stop-color="white" stop-opacity="0.8" id="stop11" />
      <stop offset="1" stop-color="#999999" stop-opacity="0.09" id="stop12" />
    </linearGradient>
  </defs>
</svg>
