<svg xmlns="http://www.w3.org/2000/svg" width="1280" height="296" fill="none" viewBox="0 0 1280 296"><g filter="url(#a)"><path fill="url(#b)" d="M0 276.086V78.906S39.168 96.35 68.81 94.712c29.634-1.631 79.371-27.378 101.899-35.519s15.147-3.437 33.536-12.55C222.629 37.53 246.467-1.451 278.272.042c31.811 1.492 59.276 57.828 83.615 64.075 24.338 6.253 27.532-13.836 51.614-4.14 24.088 9.703 65.243 61.272 100.809 71.809 35.56 10.537 29.221 1.768 54.754 6.585 25.533 4.811 59.879 20.924 97.664 25.678 37.784 4.754 95.512-1.223 127.597-.897 32.086.333 40.016 4.497 64.884 1.794s54.882-19.964 82.743-20.616c27.861-.646 50.018 15.009 80.568 16.138 30.55 1.122 63.87-12.143 100.59-12.551 36.73-.407 156.89 19.569 156.89 19.569V296z"/></g><path stroke="url(#c)" stroke-linecap="round" stroke-linejoin="round" stroke-width="2" d="M236.884 20.118C249.097 9.438 262.745.314 278.226 1.041c7.666.36 15.153 4.03 22.507 9.563 7.351 5.53 14.474 12.848 21.413 20.37 6.915 7.496 13.666 15.216 20.192 21.43 6.307 6.004 12.546 10.746 18.704 12.519l.596.162c6.226 1.6 11.144 1.524 15.398.639 4.224-.88 7.765-2.554 11.158-4.054 3.419-1.511 6.712-2.858 10.609-3.263 3.879-.402 8.429.125 14.324 2.498 5.869 2.364 12.856 7.318 20.654 13.679 7.786 6.35 16.27 14.01 25.164 21.74 17.713 15.393 37.055 31.079 55.081 36.42 17.844 5.288 25.266 5.758 31.466 5.479 6.086-.275 10.758-1.252 23.386 1.131h.001c12.688 2.391 27.568 7.59 44.121 12.831 16.512 5.227 34.616 10.467 53.603 12.856 18.981 2.388 42.933 2.079 66.098 1.22 23.211-.861 45.603-2.271 61.614-2.109 15.998.166 25.956 1.285 35.077 2.032 9.14.748 17.408 1.117 29.925-.244 12.571-1.366 26.421-6.408 40.459-11.124 14.105-4.738 28.44-9.165 42.2-9.487 13.745-.319 26.102 3.381 38.956 7.359 12.821 3.969 26.118 8.209 41.548 8.779 15.41.566 31.49-2.497 48.21-5.719 16.75-3.23 34.18-6.628 52.44-6.831 18.27-.203 57.4 4.675 92.06 9.622a3215 3215 0 0 1 59.41 9.076c1.68.273 2.99.488 3.88.634l.52.085v126.649L1 275.101V80.423l.354.151c1.136.477 2.79 1.156 4.867 1.964a248 248 0 0 0 16.774 5.84c13.104 4.036 29.787 7.91 44.456 7.395l1.413-.063c15.005-.826 34.991-7.735 53.935-15.389 9.491-3.834 18.759-7.873 27.049-11.455 8.301-3.587 15.603-6.71 21.201-8.732 11.23-4.058 14.977-4.907 18.267-5.894 2.937-.88 5.46-1.86 12.208-5.145l3.165-1.556c4.74-2.35 9.77-6.588 15.084-11.498 5.36-4.952 11.002-10.581 17.111-15.923"/><defs><linearGradient id="b" x1="216.592" x2="284.342" y1="-50.585" y2="189.833" gradientUnits="userSpaceOnUse"><stop stop-color="#7e7677"/><stop offset="1" stop-color="#5a5253"/></linearGradient><linearGradient id="c" x1="232.653" x2="252.182" y1="-35.56" y2="185.975" gradientUnits="userSpaceOnUse"><stop stop-color="#fff" stop-opacity=".8"/><stop offset="1" stop-color="#999" stop-opacity=".08"/></linearGradient><filter id="a" width="1280" height="307" x="0" y="0" color-interpolation-filters="sRGB" filterUnits="userSpaceOnUse"><feFlood flood-opacity="0" result="BackgroundImageFix"/><feBlend in="SourceGraphic" in2="BackgroundImageFix" result="shape"/><feColorMatrix in="SourceAlpha" result="hardAlpha" values="0 0 0 0 0 0 0 0 0 0 0 0 0 0 0 0 0 0 127 0"/><feOffset dy="11"/><feGaussianBlur stdDeviation="7.5"/><feComposite in2="hardAlpha" k2="-1" k3="1" operator="arithmetic"/><feColorMatrix values="0 0 0 0 0.154034 0 0 0 0 0.144146 0 0 0 0 0.144146 0 0 0 0.25 0"/><feBlend in2="shape" result="effect1_innerShadow_2032_11"/></filter></defs></svg>