<svg width="1280" height="153" viewBox="0 0 1280 153" fill="none" xmlns="http://www.w3.org/2000/svg">
<path d="M956.896 1.00195C971.622 1.14628 984.861 8.64851 998.774 16.6367C1012.6 24.5761 1027.06 32.9675 1043.94 34.3418C1060.79 35.714 1078.36 30.1611 1095.95 24.3965C1113.62 18.6044 1131.34 12.5919 1148.79 12.7344C1166.27 12.8772 1186.17 18.1719 1204.57 23.6621C1213.74 26.399 1222.56 29.1894 1230.45 31.3818C1238.34 33.5731 1245.4 35.1955 1251.07 35.5771C1262.25 36.33 1269.55 35.7124 1274.09 34.8906C1276.36 34.4796 1277.93 34.0172 1278.96 33.6484C1278.97 33.6432 1278.99 33.637 1279 33.6318V152H1V71.4268C1.0679 71.4209 1.13953 71.4148 1.21484 71.4082C1.95992 71.3434 3.06694 71.2464 4.51465 71.1201C7.41048 70.8675 11.67 70.4952 17.123 70.0166C28.0294 69.0594 43.7126 67.6769 62.8174 65.9766C101.027 62.5758 152.926 57.9025 207.684 52.8125C317.183 42.6339 438.161 30.7851 483.928 24.1123C483.966 24.1067 484.004 24.0988 484.041 24.0889C492.202 21.9107 500.27 16.0005 507.986 10.8066C511.881 8.1852 515.702 5.73004 519.475 3.92773C523.246 2.12594 526.908 1.00649 530.485 1.00195H530.486C535.852 0.994537 541.739 2.97158 547.943 6.08789C554.139 9.19948 560.557 13.3972 566.979 17.7383C573.38 22.0656 579.796 26.5432 585.914 30.1475C592.023 33.7465 597.941 36.5418 603.372 37.4453C614.042 39.2202 619.736 37.9575 625.466 36.4131C630.912 34.9451 636.34 33.2419 646.4 33.6807L647.389 33.7295C652.675 34.0234 658.48 35.6517 664.771 37.9697C671.065 40.2892 677.749 43.2606 684.835 46.2197C698.73 52.022 714.059 57.7276 730.143 57.8105H730.909C747.288 57.7089 766.885 49.9438 785.317 42.2861C794.573 38.4408 803.548 34.6154 811.768 31.7305C819.742 28.9315 826.908 27.055 832.848 26.8838L833.418 26.8721C845.758 26.7478 852.663 28.1325 858.863 29.4512C865.117 30.7812 870.718 32.0606 880.319 31.6445C885.28 31.4295 890.719 29.3071 896.469 26.3594C902.224 23.4088 908.443 19.5458 914.923 15.7695C927.965 8.16819 942.17 0.857747 956.896 1.00195Z" fill="#645E5F" stroke="url(#paint0_linear_2032_8)" stroke-width="2" stroke-linecap="round" stroke-linejoin="round"/>
<defs>
<linearGradient id="paint0_linear_2032_8" x1="761.93" y1="-34.2623" x2="762.819" y2="118.665" gradientUnits="userSpaceOnUse">
<stop stop-color="white" stop-opacity="0.5"/>
<stop offset="1" stop-color="#999999" stop-opacity="0.09"/>
</linearGradient>
</defs>
</svg>
