<svg xmlns="http://www.w3.org/2000/svg" width="1280" height="226" fill="none" viewBox="0 0 1280 226"><path fill="url(#a)" stroke="url(#b)" stroke-linecap="round" stroke-linejoin="round" stroke-width="2" d="M254.226 2.016c2.161-.777 3.945-1.11 5.33-.993 12.296 1.054 18.938 6.646 25.211 13.034 6.272 6.387 12.279 13.73 23.142 17.582v-.001c10.774 3.823 22.979 4.065 35.911 4.392 12.986.33 26.79.742 41.029 4.794 14.243 4.051 31.412 13.48 48.047 22.603 8.293 4.548 16.445 9.014 23.982 12.657 7.057 3.411 13.63 6.13 19.32 7.514l1.126.258c11.81 2.557 18.63 1.566 24.29.375 5.6-1.178 9.805-2.47 16.708-.775h.001c1.907.468 6.441 1 13.162 1.595 6.76.598 15.819 1.267 26.846 1.993 22.055 1.452 52 3.136 87.206 4.956 70.413 3.64 161.882 7.828 253.376 11.791 179.597 7.78 359.337 14.702 380.087 14.955v106.008H1v-98.85l.908-.402 4.309-1.909 15.833-7.018c13.361-5.922 31.802-14.097 52.116-23.104 40.628-18.015 88.753-39.364 118.74-52.695 4.899-2.177 10.767-5.849 16.973-10.073 6.209-4.226 12.832-9.058 19.206-13.558 6.393-4.512 12.545-8.697 17.884-11.684 2.668-1.493 5.11-2.673 7.257-3.445"/><defs><linearGradient id="a" x1="266" x2="291.5" y1="20.754" y2="233.254" gradientUnits="userSpaceOnUse"><stop stop-color="#7e6f70"/><stop offset="1" stop-color="#2f292a"/></linearGradient><linearGradient id="b" x1="159.5" x2="182.21" y1="-62.246" y2="150.23" gradientUnits="userSpaceOnUse"><stop stop-color="#fff" stop-opacity=".8"/><stop offset="1" stop-color="#999" stop-opacity=".09"/></linearGradient></defs></svg>