<svg width="1280" height="296" viewBox="0 0 1280 296" fill="none" xmlns="http://www.w3.org/2000/svg">
<g filter="url(#filter0_i_2032_11)">
<path d="M0 276.086V78.9062C0 78.9062 39.168 96.3487 68.8091 94.7117C98.4442 93.081 148.181 67.3344 170.709 59.1933C193.237 51.0522 185.856 55.7561 204.245 46.6429C222.629 37.5296 246.467 -1.451 278.272 0.0417437C310.083 1.53449 337.548 57.8698 361.887 64.1167C386.225 70.3699 389.419 50.2807 413.501 59.9773C437.589 69.6801 478.744 121.249 514.31 131.786C549.87 142.323 543.531 133.554 569.064 138.371C594.597 143.182 628.943 159.295 666.728 164.049C704.512 168.803 762.24 162.826 794.325 163.152C826.411 163.485 834.341 167.649 859.209 164.946C884.078 162.243 914.091 144.982 941.952 144.33C969.813 143.684 991.97 159.339 1022.52 160.468C1053.07 161.59 1086.39 148.325 1123.11 147.917C1159.84 147.51 1280 167.486 1280 167.486V296L0 276.086Z" fill="url(#paint0_linear_2032_11)"/>
</g>
<path d="M236.884 20.1182C249.097 9.43796 262.745 0.314433 278.226 1.04102C285.892 1.40088 293.379 5.07059 300.733 10.6035C308.084 16.1335 315.207 23.4522 322.146 30.9746C329.061 38.4701 335.812 46.1903 342.338 52.4033C348.645 58.4077 354.884 63.1502 361.042 64.9229L361.638 65.085C367.864 66.6848 372.782 66.6085 377.036 65.7236C381.26 64.8449 384.801 63.1701 388.194 61.6699C391.613 60.1588 394.906 58.8117 398.803 58.4072C402.682 58.0047 407.232 58.5319 413.127 60.9053C418.996 63.2693 425.983 68.2233 433.781 74.584C441.567 80.9346 450.051 88.5939 458.945 96.3232C476.658 111.717 496 127.403 514.026 132.744C531.87 138.032 539.292 138.502 545.492 138.223C551.578 137.948 556.25 136.971 568.878 139.354L568.879 139.354C581.567 141.745 596.447 146.944 613 152.185C629.512 157.412 647.616 162.652 666.603 165.041C685.584 167.429 709.536 167.12 732.701 166.261C755.912 165.4 778.304 163.99 794.315 164.152C810.313 164.318 820.271 165.437 829.392 166.184C838.532 166.932 846.8 167.301 859.317 165.94C871.888 164.574 885.738 159.532 899.776 154.816C913.881 150.078 928.216 145.651 941.976 145.329C955.721 145.01 968.078 148.71 980.932 152.688C993.753 156.657 1007.05 160.897 1022.48 161.467C1037.89 162.033 1053.97 158.97 1070.69 155.748C1087.44 152.518 1104.87 149.12 1123.13 148.917C1141.4 148.714 1180.53 153.592 1215.19 158.539C1232.5 161.01 1248.66 163.493 1260.5 165.359C1266.41 166.292 1271.25 167.07 1274.6 167.615C1276.28 167.888 1277.59 168.103 1278.48 168.249C1278.67 168.281 1278.85 168.309 1279 168.334V294.983L1 275.101V80.4229C1.11185 80.4701 1.22913 80.522 1.35352 80.5742C2.48963 81.051 4.14424 81.7298 6.2207 82.5381C10.3729 84.1544 16.2187 86.2923 22.9951 88.3789C36.0995 92.4139 52.7823 96.2884 67.4512 95.7734L68.8643 95.71C83.8686 94.8843 103.855 87.9751 122.799 80.3213C132.29 76.4867 141.558 72.4484 149.848 68.8662C158.149 65.279 165.451 62.1566 171.049 60.1338C182.279 56.0756 186.026 55.2275 189.316 54.2402C192.253 53.3594 194.776 52.3803 201.524 49.0947L204.689 47.5391C209.429 45.1897 214.459 40.951 219.773 36.041C225.133 31.0886 230.775 25.4598 236.884 20.1182Z" stroke="url(#paint1_linear_2032_11)" stroke-width="2" stroke-linecap="round" stroke-linejoin="round"/>
<defs>
<filter id="filter0_i_2032_11" x="0" y="0" width="1280" height="307" filterUnits="userSpaceOnUse" color-interpolation-filters="sRGB">
<feFlood flood-opacity="0" result="BackgroundImageFix"/>
<feBlend mode="normal" in="SourceGraphic" in2="BackgroundImageFix" result="shape"/>
<feColorMatrix in="SourceAlpha" type="matrix" values="0 0 0 0 0 0 0 0 0 0 0 0 0 0 0 0 0 0 127 0" result="hardAlpha"/>
<feOffset dy="11"/>
<feGaussianBlur stdDeviation="7.5"/>
<feComposite in2="hardAlpha" operator="arithmetic" k2="-1" k3="1"/>
<feColorMatrix type="matrix" values="0 0 0 0 0.154034 0 0 0 0 0.144146 0 0 0 0 0.144146 0 0 0 0.25 0"/>
<feBlend mode="normal" in2="shape" result="effect1_innerShadow_2032_11"/>
</filter>
<linearGradient id="paint0_linear_2032_11" x1="216.592" y1="-50.5848" x2="284.342" y2="189.833" gradientUnits="userSpaceOnUse">
<stop stop-color="#7E7677"/>
<stop offset="1" stop-color="#5A5253"/>
</linearGradient>
<linearGradient id="paint1_linear_2032_11" x1="232.653" y1="-35.5596" x2="252.182" y2="185.975" gradientUnits="userSpaceOnUse">
<stop stop-color="white" stop-opacity="0.8"/>
<stop offset="1" stop-color="#999999" stop-opacity="0.08"/>
</linearGradient>
</defs>
</svg>
