<svg xmlns="http://www.w3.org/2000/svg" width="1280" height="153" fill="none" viewBox="0 0 1280 153"><path fill="#645e5f" stroke="url(#a)" stroke-linecap="round" stroke-linejoin="round" stroke-width="2" d="M956.896 1.002c14.726.144 27.965 7.647 41.878 15.635 13.826 7.94 28.286 16.33 45.166 17.705 16.85 1.372 34.42-4.18 52.01-9.945 17.67-5.793 35.39-11.805 52.84-11.663 17.48.143 37.38 5.438 55.78 10.928 9.17 2.737 17.99 5.527 25.88 7.72 7.89 2.191 14.95 3.814 20.62 4.195 11.18.753 18.48.135 23.02-.686 2.27-.411 3.84-.874 4.87-1.243l.04-.016V152H1V71.427l.215-.019 3.3-.288a37883.43 37883.43 0 0 0 58.303-5.143c38.209-3.401 90.108-8.074 144.866-13.164 109.499-10.18 230.477-22.028 276.244-28.7q.057-.009.113-.024c8.161-2.178 16.229-8.088 23.945-13.282 3.895-2.622 7.716-5.077 11.489-6.88 3.771-1.801 7.433-2.92 11.01-2.925h.001c5.366-.007 11.253 1.97 17.457 5.086 6.196 3.111 12.614 7.31 19.036 11.65 6.401 4.328 12.817 8.805 18.935 12.41 6.109 3.598 12.027 6.394 17.458 7.297 10.67 1.775 16.364.513 22.094-1.032 5.446-1.468 10.874-3.171 20.934-2.732l.989.049c5.286.293 11.091 1.922 17.382 4.24 6.294 2.32 12.978 5.29 20.064 8.25 13.895 5.802 29.224 11.508 45.308 11.59h.766c16.379-.101 35.976-7.866 54.408-15.524 9.256-3.845 18.231-7.67 26.451-10.556 7.974-2.799 15.14-4.675 21.08-4.846l.57-.012c12.34-.124 19.245 1.26 25.445 2.58 6.254 1.33 11.855 2.609 21.456 2.192 4.961-.214 10.4-2.337 16.15-5.285 5.755-2.95 11.974-6.813 18.454-10.59C927.965 8.17 942.17.859 956.896 1.003"/><defs><linearGradient id="a" x1="761.93" x2="762.819" y1="-34.262" y2="118.665" gradientUnits="userSpaceOnUse"><stop stop-color="#fff" stop-opacity=".5"/><stop offset="1" stop-color="#999" stop-opacity=".09"/></linearGradient></defs></svg>