<svg xmlns="http://www.w3.org/2000/svg" width="1154" height="427" fill="none" viewBox="0 0 1154 427"><path fill="#fff" fill-opacity=".4" d="M34.872 48.435a.794.794 0 1 0 0-1.587.794.794 0 0 0 0 1.587M16.586 6.69a.933.933 0 1 0 0-1.866.933.933 0 0 0 0 1.867M15.617 38.37a.933.933 0 1 0 0-1.866.933.933 0 0 0 0 1.866M50.205 80.718a.933.933 0 1 0 0-1.866.933.933 0 0 0 0 1.866M44.063 57.12a.933.933 0 1 0 0-1.867.933.933 0 0 0 0 1.867M50.554 73.98a1.282 1.282 0 1 0 0-2.564 1.282 1.282 0 0 0 0 2.565M53.944 3.825a.794.794 0 1 0 0-1.587.794.794 0 0 0 0 1.587M42.77 8.63a.933.933 0 1 0 0-1.866.933.933 0 0 0 0 1.866M51.102 15.6a1.282 1.282 0 1 0 0-2.564 1.282 1.282 0 0 0 0 2.565M52.692 200.429a.793.793 0 1 0 0-1.586.793.793 0 0 0 0 1.586M34.406 158.684a.933.933 0 1 0 0-1.867.933.933 0 0 0 0 1.867M33.436 190.364a.933.933 0 1 0 0-1.866.933.933 0 0 0 0 1.866M506.276 66.498a.793.793 0 1 0 1.329-.867.793.793 0 0 0-1.329.867M531.234 28.365a.934.934 0 1 0 1.563-1.02.934.934 0 0 0-1.563 1.02M504.177 44.871a.933.933 0 1 0 1.562-1.02.933.933 0 0 0-1.562 1.02M495.257 113.053a.933.933 0 1 0 1.562-1.02.933.933 0 0 0-1.562 1.02M504.028 78.941a.934.934 0 1 0 1.563-1.02.934.934 0 0 0-1.563 1.02M493.459 93.594a1.283 1.283 0 1 0 2.148-1.403 1.283 1.283 0 0 0-2.148 1.403M554.056 58.081a.793.793 0 1 0 1.329-.867.793.793 0 0 0-1.329.867M543.924 51.351a.933.933 0 1 0 1.562-1.02.933.933 0 0 0-1.562 1.02M542.64 62.138a1.283 1.283 0 1 0 2.148-1.403 1.283 1.283 0 0 0-2.148 1.403M388.746 164.509a.794.794 0 1 0 1.329-.869.794.794 0 0 0-1.329.869M413.705 126.376a.934.934 0 1 0 1.564-1.021.934.934 0 0 0-1.564 1.021M386.648 142.882a.932.932 0 1 0 1.562-1.02.932.932 0 1 0-1.562 1.02M876.472 196.139a.794.794 0 1 0 .984 1.245.794.794 0 0 0-.984-1.245M916.718 217.523a.933.933 0 1 0 1.16 1.462.933.933 0 0 0-1.16-1.462M897.817 192.081a.933.933 0 1 0 1.158 1.463.933.933 0 0 0-1.158-1.463M844.414 180.343a.933.933 0 1 0 1.158 1.464.933.933 0 0 0-1.158-1.464M863.876 195.034a.933.933 0 1 0 1.158 1.464.933.933 0 0 0-1.158-1.464M848.321 185.842a1.283 1.283 0 1 0 1.593 2.011 1.283 1.283 0 0 0-1.593-2.011M889.203 242.955a.794.794 0 1 0 .988 1.244.794.794 0 0 0-.988-1.244M894.983 232.252a.933.933 0 1 0 1.16 1.463.933.933 0 0 0-1.16-1.463M884.125 231.958a1.282 1.282 0 1 0 1.59 2.01 1.282 1.282 0 0 0-1.59-2.01M768.167 88.02a.794.794 0 1 0 .987 1.244.794.794 0 0 0-.987-1.243M808.415 109.404a.933.933 0 1 0 1.158 1.464.933.933 0 0 0-1.158-1.464M789.513 83.962a.933.933 0 1 0 1.159 1.462.933.933 0 0 0-1.159-1.462M294.517 218.072a.794.794 0 1 0 1.587.083.794.794 0 0 0-1.587-.083M337.185 202.055a.933.933 0 1 0 1.863.1.933.933 0 0 0-1.863-.1M305.603 199.384a.932.932 0 1 0 1.862.102.932.932 0 0 0-1.862-.102M261.459 231.648a.933.933 0 1 0 1.863.1.933.933 0 0 0-1.863-.1M285.353 226.783a.933.933 0 1 0 1.863.1.933.933 0 0 0-1.863-.1M268.166 232.359a1.283 1.283 0 1 0 2.562.137 1.283 1.283 0 0 0-2.562-.137M338.038 239.514a.794.794 0 1 0 1.585.085.794.794 0 0 0-1.585-.085M333.841 228.097a.933.933 0 1 0 1.863.1.933.933 0 0 0-1.863-.1M326.433 236.042a1.282 1.282 0 1 0 2.56.138 1.282 1.282 0 0 0-2.56-.138M141.789 227.7a.794.794 0 1 0 1.585.085.794.794 0 0 0-1.585-.085M184.454 211.683a.934.934 0 1 0 1.866.098.934.934 0 0 0-1.866-.098M152.873 209.012a.933.933 0 1 0 1.863.1.933.933 0 0 0-1.863-.1M628.463 237.569a.794.794 0 1 0 .922 1.293.794.794 0 0 0-.922-1.293M667.58 260.954a.934.934 0 1 0 1.084 1.521.934.934 0 0 0-1.084-1.521M649.985 234.592a.932.932 0 1 0 1.082 1.519.932.932 0 0 0-1.082-1.519M597.242 220.176a.933.933 0 1 0 1.081 1.52.933.933 0 0 0-1.081-1.52M615.938 235.83a.934.934 0 0 0 1.083 1.52.933.933 0 1 0-1.083-1.52M600.867 225.865a1.283 1.283 0 1 0 1.489 2.089 1.283 1.283 0 0 0-1.489-2.089M638.818 284.968a.793.793 0 1 0 .92 1.293.793.793 0 0 0-.92-1.293M645.13 274.57a.932.932 0 1 0 1.08 1.52.932.932 0 0 0-1.08-1.52M634.3 273.728a1.282 1.282 0 1 0 1.486 2.089 1.282 1.282 0 0 0-1.486-2.089M525.749 124.127a.793.793 0 1 0 .92 1.292.793.793 0 0 0-.92-1.292M564.866 147.512a.932.932 0 1 0 1.084 1.521.932.932 0 0 0-1.084-1.521M567.462 124.875a.932.932 0 1 0 1.08 1.52.932.932 0 0 0-1.08-1.52M1107.03 36.366c-.11.426.15.856.58.961.42.105.85-.154.96-.58a.8.8 0 0 0-.58-.96.79.79 0 0 0-.96.58M1151.94 28.634a.932.932 0 1 0 1.81.448.927.927 0 0 0-.68-1.13.93.93 0 0 0-1.13.682M1121.42 20.089a.932.932 0 1 0 1.81.448.927.927 0 0 0-.68-1.13.936.936 0 0 0-1.13.681M1072.01 43.502a.932.932 0 1 0 1.81.448.932.932 0 1 0-1.81-.448M1096.39 43.204a.932.932 0 1 0 1.81.448.927.927 0 0 0-.68-1.13.936.936 0 0 0-1.13.682M1078.47 45.458a1.278 1.278 0 1 0 2.48.616 1.278 1.278 0 1 0-2.48-.616M1145.76 65.589c-.11.425.15.855.58.96.42.106.85-.154.96-.58a.8.8 0 0 0-.58-.96.79.79 0 0 0-.96.58M1143.77 53.587a.936.936 0 0 0 1.82.448.936.936 0 0 0-1.82-.448M1130.31 73.245a1.282 1.282 0 1 0 2.49.614 1.282 1.282 0 0 0-2.49-.614M955.202 17.183a.793.793 0 1 0 1.539.383.793.793 0 0 0-1.539-.383M1000.12 9.451a.93.93 0 0 0 .68 1.13c.5.124 1-.182 1.13-.682a.932.932 0 1 0-1.81-.448M969.594.906a.933.933 0 1 0 1.812.448.933.933 0 0 0-1.812-.448"/><path fill="#fff" fill-opacity=".227" d="M493.55 376.932a.794.794 0 1 0 .922 1.293.794.794 0 0 0-.922-1.293M532.667 400.318a.932.932 0 1 0 1.08 1.52.932.932 0 0 0-1.08-1.52M515.072 373.955a.932.932 0 1 0 1.082 1.519.932.932 0 0 0-1.082-1.519M462.329 359.539a.934.934 0 1 0 1.083 1.521.934.934 0 0 0-1.083-1.521M481.026 375.193a.934.934 0 1 0 1.084 1.52.934.934 0 0 0-1.084-1.52M465.955 365.228a1.282 1.282 0 1 0 1.487 2.088 1.282 1.282 0 0 0-1.487-2.088M503.905 424.331a.793.793 0 1 0 .92 1.29.793.793 0 0 0-.92-1.29M510.218 413.933a.932.932 0 1 0 1.08 1.52.932.932 0 0 0-1.08-1.52M499.387 413.091a1.282 1.282 0 1 0 1.49 2.088 1.282 1.282 0 0 0-1.49-2.088M390.837 263.489a.794.794 0 1 0 .922 1.293.794.794 0 0 0-.922-1.293M429.954 286.875a.933.933 0 1 0 1.081 1.52.933.933 0 0 0-1.081-1.52M412.359 260.512a.932.932 0 1 0 1.082 1.519.932.932 0 0 0-1.082-1.519M749.315 222.842a.794.794 0 1 0 .922 1.293.794.794 0 0 0-.922-1.293M788.431 246.227a.932.932 0 1 0 1.083 1.522.932.932 0 0 0-1.083-1.522M770.839 219.864a.934.934 0 1 0 1.083 1.521.934.934 0 0 0-1.083-1.521M718.095 205.449a.933.933 0 1 0 1.084 1.52.933.933 0 0 0-1.084-1.52M736.791 221.103a.934.934 0 1 0 1.083 1.521.934.934 0 0 0-1.083-1.521M721.72 211.138a1.283 1.283 0 1 0 1.49 2.088 1.283 1.283 0 0 0-1.49-2.088M759.67 270.24a.794.794 0 1 0 .922 1.293.794.794 0 0 0-.922-1.293M765.982 259.843a.932.932 0 1 0 1.082 1.519.932.932 0 0 0-1.082-1.519M755.152 259a1.283 1.283 0 1 0 1.489 2.089 1.283 1.283 0 0 0-1.489-2.089M646.602 109.399a.794.794 0 1 0 .922 1.293.794.794 0 0 0-.922-1.293M685.719 132.785a.933.933 0 1 0 1.081 1.52.933.933 0 0 0-1.081-1.52M668.124 106.422a.933.933 0 1 0 1.081 1.52.933.933 0 0 0-1.081-1.52M1028.29 156.89a.795.795 0 0 0 1.57.249.795.795 0 0 0-1.57-.249M1072.39 145.378c-.09.509.26.987.77 1.068a.934.934 0 1 0 .29-1.843.924.924 0 0 0-1.06.775M1041.25 139.451c-.08.509.27.987.78 1.068a.93.93 0 0 0 1.06-.775.93.93 0 0 0-.77-1.068.934.934 0 0 0-1.07.775M994.002 166.969a.933.933 0 1 0 1.843.293.933.933 0 0 0-1.843-.293M1018.27 164.605c-.08.509.27.987.78 1.068a.925.925 0 0 0 1.06-.776.92.92 0 0 0-.77-1.068.935.935 0 0 0-1.07.776M1000.6 168.371c-.11.699.37 1.356 1.07 1.468s1.35-.366 1.46-1.066a1.28 1.28 0 0 0-1.06-1.467c-.7-.111-1.36.366-1.47 1.065M1069.36 182.724c-.07.433.22.839.65.908.44.069.84-.226.91-.659a.787.787 0 0 0-.66-.908.78.78 0 0 0-.9.659M1066.36 170.934a.937.937 0 0 0 1.85.293.936.936 0 0 0-1.85-.293M1058.17 178.069c-.11.699.37 1.356 1.07 1.467s1.35-.366 1.46-1.065a1.273 1.273 0 0 0-1.06-1.468c-.7-.111-1.36.366-1.47 1.066M875.384 150.648a.794.794 0 1 0 1.57.247.794.794 0 0 0-1.57-.247M919.481 139.136a.933.933 0 1 0 1.843.293.933.933 0 0 0-1.843-.293M888.345 133.208a.934.934 0 1 0 1.845.291.934.934 0 0 0-1.845-.291M91.228 157.497a.794.794 0 1 0-.655 1.447.794.794 0 0 0 .655-1.447M90.608 203.067a.934.934 0 1 0-.771 1.7.934.934 0 0 0 .771-1.7M104.595 174.626a.933.933 0 1 0-.77 1.7.933.933 0 0 0 .77-1.7M90.622 121.764a.933.933 0 1 0-.773 1.699.933.933 0 0 0 .773-1.699M86.452 145.789a.933.933 0 1 0-.773 1.7.933.933 0 0 0 .773-1.7M87.517 127.752a1.283 1.283 0 1 0-1.06 2.337 1.283 1.283 0 0 0 1.06-2.337M55.41 190.222a.794.794 0 1 0-.655 1.447.794.794 0 0 0 .656-1.447M67.572 190.47a.934.934 0 1 0-.771 1.7.934.934 0 0 0 .77-1.7M62.87 180.677a1.282 1.282 0 1 0-1.06 2.335 1.282 1.282 0 0 0 1.06-2.335M137.875 11.746a.793.793 0 1 0-.656 1.443.793.793 0 0 0 .656-1.443M137.256 57.316a.933.933 0 1 0-.772 1.698.933.933 0 0 0 .772-1.698M151.244 28.875a.934.934 0 1 0-.772 1.7.934.934 0 0 0 .772-1.7M201.741 210.58a.792.792 0 1 0 1.472-.592.792.792 0 1 0-1.472.592M233.65 178.04a.934.934 0 1 0 1.732-.697.934.934 0 0 0-1.732.697M203.895 188.959a.934.934 0 1 0 1.732-.697.934.934 0 0 0-1.732.697M177.509 236.85a.932.932 0 1 0 1.73-.695.932.932 0 0 0-1.73.695M197.113 222.347a.933.933 0 1 0 1.732-.696.933.933 0 0 0-1.732.696M183.89 234.661a1.282 1.282 0 1 0 2.38-.957 1.282 1.282 0 0 0-2.38.957M250.245 211.633a.795.795 0 0 0 1.033.44.794.794 0 1 0-1.033-.44M241.619 203.057a.932.932 0 1 0 1.731-.696.932.932 0 1 0-1.731.696M238.259 213.388a1.282 1.282 0 1 0 2.38-.957 1.282 1.282 0 0 0-2.38.957M67.37 283.819a.793.793 0 1 0 1.473-.592.793.793 0 0 0-1.472.592M99.28 251.279a.932.932 0 1 0 1.73-.695.932.932 0 0 0-1.73.695M69.526 262.198a.932.932 0 1 0 1.73-.695.932.932 0 0 0-1.73.695M515.715 92.905a.793.793 0 1 0 1.346.84.793.793 0 0 0-1.346-.84M560.819 99.432a.933.933 0 1 0 1.585.986.933.933 0 0 0-1.585-.986M534.432 81.873a.933.933 0 1 0 1.585.985.933.933 0 0 0-1.585-.985M480.205 88.87a.932.932 0 1 0 1.584.986.933.933 0 1 0-1.584-.986M503.486 96.122a.934.934 0 1 0 1.586.986.934.934 0 0 0-1.586-.986M486.037 95.448a1.283 1.283 0 1 0 2.178 1.355 1.283 1.283 0 0 0-2.178-1.355M543.516 132.666a.794.794 0 1 0 1.349.838.794.794 0 0 0-1.349-.838M545.339 120.64a.933.933 0 1 0 1.585.985.933.933 0 0 0-1.585-.985M535.02 124.031a1.282 1.282 0 1 0 2.176 1.354 1.282 1.282 0 0 0-2.176-1.354M377.25 27.741a.793.793 0 1 0 1.346.84.793.793 0 0 0-1.346-.84M422.353 34.268a.934.934 0 1 0 1.586.986.934.934 0 0 0-1.586-.986M395.967 16.709a.933.933 0 1 0 1.585.985.933.933 0 0 0-1.585-.985M767.308 25.22a.793.793 0 1 0 1.573-.203.793.793 0 0 0-1.573.203M806.351 1.715a.934.934 0 1 0 1.852-.242.934.934 0 0 0-1.852.242M774.811 4.83a.934.934 0 1 0 1.852-.243.934.934 0 0 0-1.852.242M737.266 44.58a.934.934 0 1 0 1.853-.243.934.934 0 0 0-1.853.242M759.878 35.452a.933.933 0 1 0 1.85-.239.933.933 0 0 0-1.85.24M743.992 44.059a1.282 1.282 0 1 0 2.542-.33 1.282 1.282 0 0 0-2.542.33M814.001 38.395a.793.793 0 1 0 1.573-.203.793.793 0 0 0-1.573.203M807.799 27.932a.933.933 0 1 0 1.85-.24.933.933 0 0 0-1.85.24M801.957 37.09a1.282 1.282 0 1 0 2.543-.329 1.282 1.282 0 0 0-2.543.33M618.872 62.447a.793.793 0 1 0 1.573-.203.793.793 0 0 0-1.573.203M657.917 38.942a.933.933 0 1 0 1.85-.24.933.933 0 0 0-1.85.24M626.376 42.055a.933.933 0 1 0 1.85-.239.933.933 0 0 0-1.85.24M1064.74 126.697c.34.271.84.212 1.11-.133a.8.8 0 0 0-.13-1.114.79.79 0 0 0-1.11.132.78.78 0 0 0 .13 1.115M1076.21 82.59c.4.319.99.25 1.31-.156a.93.93 0 0 0-.16-1.31.933.933 0 0 0-1.31.155.937.937 0 0 0 .16 1.31M1055.84 106.873c.41.319.99.249 1.31-.155a.936.936 0 0 0-.15-1.311.935.935 0 0 0-1.16 1.466M1056.8 161.543c.41.319.99.25 1.31-.155a.936.936 0 0 0-.15-1.311.935.935 0 0 0-1.16 1.466M1066.58 139.206c.41.319.99.249 1.31-.155a.936.936 0 0 0-.15-1.311.935.935 0 0 0-1.16 1.466M1061.25 156.468c.55.438 1.36.342 1.8-.214s.34-1.362-.22-1.801a1.283 1.283 0 0 0-1.8.214c-.44.556-.34 1.362.22 1.801M1107.33 103.46c.34.272.84.212 1.11-.132a.79.79 0 0 0-.13-1.114.79.79 0 0 0-1.11.132.79.79 0 0 0 .13 1.114M1095.58 100.319c.4.319.99.249 1.31-.156a.93.93 0 0 0-.16-1.31.933.933 0 0 0-1.31.155.93.93 0 0 0 .16 1.311M1097.81 110.951c.55.438 1.36.342 1.8-.214s.34-1.363-.22-1.801a1.28 1.28 0 0 0-1.8.214c-.44.556-.34 1.362.22 1.801M984.667 257.112a.795.795 0 1 0 .983-1.249.795.795 0 0 0-.983 1.249M996.139 213.005a.934.934 0 1 0 1.155-1.467.934.934 0 0 0-1.155 1.467M975.772 237.288a.933.933 0 1 0 1.156-1.466.933.933 0 0 0-1.156 1.466"/><path fill="#fff" fill-opacity=".12" d="M752.46 285.736a.794.794 0 1 0 .922 1.293.794.794 0 0 0-.922-1.293M791.577 309.121a.934.934 0 1 0 1.084 1.521.934.934 0 0 0-1.084-1.521M773.983 282.758a.934.934 0 1 0 1.084 1.52.934.934 0 0 0-1.084-1.52M721.239 268.343a.932.932 0 1 0 1.082 1.519.932.932 0 0 0-1.082-1.519M739.936 283.997a.933.933 0 1 0 1.084 1.52.933.933 0 0 0-1.084-1.52M724.864 274.032a1.282 1.282 0 1 0 1.487 2.088 1.282 1.282 0 0 0-1.487-2.088M762.815 333.134a.794.794 0 1 0 .922 1.293.794.794 0 0 0-.922-1.293M769.127 322.737a.932.932 0 1 0 1.08 1.52.932.932 0 0 0-1.08-1.52M758.297 321.894a1.284 1.284 0 1 0 1.487 2.087 1.284 1.284 0 0 0-1.487-2.087M649.746 172.293a.793.793 0 1 0 .92 1.292.793.793 0 0 0-.92-1.292M688.863 195.679a.932.932 0 1 0 1.082 1.519.932.932 0 0 0-1.082-1.519M671.269 169.316a.933.933 0 1 0 1.084 1.52.933.933 0 0 0-1.084-1.52"/><path fill="#fff" fill-opacity=".227" d="M453.718 159.948a.794.794 0 1 0 .922 1.293.794.794 0 0 0-.922-1.293M492.835 183.334a.932.932 0 1 0 1.08 1.52.932.932 0 0 0-1.08-1.52M475.24 156.971a.932.932 0 1 0 1.084 1.521.932.932 0 0 0-1.084-1.521M422.498 142.555a.933.933 0 1 0 1.081 1.52.933.933 0 0 0-1.081-1.52M441.193 158.209a.933.933 0 1 0 1.084 1.52.933.933 0 0 0-1.084-1.52M541.536 257.826a.794.794 0 1 0 1.563.275.794.794 0 0 0-1.563-.275M585.825 247.077a.933.933 0 1 0 1.838.325.933.933 0 0 0-1.838-.325M554.796 240.613a.932.932 0 1 0 1.838.325.933.933 0 0 0-1.838-.325M507.08 267.311a.932.932 0 1 0 1.836.325.932.932 0 0 0-1.836-.325M531.387 265.367a.933.933 0 1 0 1.838.325.933.933 0 0 0-1.838-.325M513.653 268.826a1.282 1.282 0 1 0 2.525.447 1.282 1.282 0 0 0-2.525-.447M582.149 284.365a.793.793 0 1 0 1.562.276.793.793 0 0 0-1.562-.276M579.361 272.525a.933.933 0 1 0 1.837.325.933.933 0 0 0-1.837-.325M571.047 279.517a1.281 1.281 0 1 0 2.523.448 1.281 1.281 0 0 0-2.523-.448M388.761 248.942a.795.795 0 1 0 1.565.275.795.795 0 0 0-1.565-.275M433.05 238.194a.932.932 0 1 0 1.838.325.933.933 0 0 0-1.838-.325M402.021 231.73a.934.934 0 1 0 1.84.323.934.934 0 0 0-1.84-.323M426.122 148.244a1.282 1.282 0 1 0 1.487 2.088 1.282 1.282 0 0 0-1.487-2.088M464.072 207.346a.794.794 0 1 0 .923 1.292.794.794 0 0 0-.923-1.292M470.385 196.949a.933.933 0 1 0 1.081 1.52.933.933 0 0 0-1.081-1.52M459.554 196.106a1.284 1.284 0 1 0 1.491 2.09 1.284 1.284 0 0 0-1.491-2.09M351.004 46.505a.794.794 0 1 0 .921 1.293.794.794 0 0 0-.921-1.293M390.121 69.891a.933.933 0 1 0 1.082 1.52.933.933 0 0 0-1.082-1.52M372.527 43.528a.933.933 0 1 0 1.083 1.52.933.933 0 0 0-1.083-1.52M152.912 60.937a.794.794 0 1 0 1.564.276.794.794 0 0 0-1.564-.276M197.2 50.19a.933.933 0 1 0 1.837.324.933.933 0 0 0-1.837-.325M166.173 43.725a.933.933 0 1 0 1.837.325.933.933 0 0 0-1.837-.325M118.455 70.423a.933.933 0 1 0 1.837.325.933.933 0 0 0-1.837-.325M142.762 68.478a.933.933 0 1 0 1.837.326.933.933 0 0 0-1.837-.326M125.029 71.938a1.282 1.282 0 1 0 2.525.446 1.282 1.282 0 0 0-2.525-.446M193.526 87.477a.794.794 0 1 0 1.564.276.794.794 0 0 0-1.564-.276M190.737 75.637a.933.933 0 1 0 1.839.324.933.933 0 0 0-1.839-.324M182.423 82.63a1.283 1.283 0 1 0 2.527.444 1.283 1.283 0 0 0-2.527-.445M.138 52.054a.794.794 0 1 0 1.563.276.794.794 0 0 0-1.563-.276M44.427 41.306a.933.933 0 1 0 1.838.324.933.933 0 0 0-1.838-.324M13.398 34.842a.933.933 0 1 0 1.838.324.933.933 0 0 0-1.838-.324M971.478 89.26a.794.794 0 1 0 1.563.276.794.794 0 0 0-1.563-.276M1015.77 78.512c-.09.507.25.992.75 1.081a.93.93 0 0 0 1.08-.757.926.926 0 0 0-.75-1.08.93.93 0 0 0-1.08.756M984.737 72.048a.933.933 0 1 0 1.839.324.933.933 0 0 0-1.839-.324M937.022 98.746a.933.933 0 1 0 1.839.324.933.933 0 0 0-1.839-.324M961.328 96.8a.933.933 0 1 0 1.837.326.933.933 0 0 0-1.837-.325M943.594 100.261a1.283 1.283 0 1 0 2.526.446 1.283 1.283 0 0 0-2.526-.446M1012.09 115.8a.79.79 0 0 0 .64.919c.44.077.85-.212.92-.643a.79.79 0 0 0-.64-.92.797.797 0 0 0-.92.644M1009.3 103.96a.934.934 0 1 0 1.84.322.934.934 0 0 0-1.84-.322M1000.99 110.952c-.12.698.34 1.363 1.04 1.486s1.36-.342 1.48-1.04a1.275 1.275 0 0 0-1.04-1.485 1.28 1.28 0 0 0-1.48 1.039M818.703 80.377a.792.792 0 1 0 1.562.276.793.793 0 1 0-1.562-.276M862.991 69.629a.933.933 0 1 0 1.837.325.933.933 0 0 0-1.837-.325M831.963 63.165a.933.933 0 1 0 1.837.325.933.933 0 0 0-1.837-.326M277.114 336.129a.79.79 0 0 0 .643.919.79.79 0 0 0 .919-.643.79.79 0 0 0-.643-.919.79.79 0 0 0-.919.643M321.402 325.381a.934.934 0 1 0 1.84.323.934.934 0 0 0-1.84-.323M290.373 318.917a.933.933 0 1 0 1.838.324.933.933 0 0 0-1.838-.324M242.657 345.614a.933.933 0 1 0 1.838.325.933.933 0 0 0-1.838-.325M266.964 343.67a.933.933 0 1 0 1.838.325.933.933 0 0 0-1.838-.325M249.23 347.13a1.283 1.283 0 1 0 2.527.445 1.283 1.283 0 0 0-2.527-.445M317.727 362.669a.794.794 0 1 0 1.563.275.794.794 0 0 0-1.563-.275M314.938 350.829a.934.934 0 1 0 1.84.323.934.934 0 0 0-1.84-.323M306.625 357.821a1.282 1.282 0 1 0 2.524.448 1.282 1.282 0 0 0-2.524-.448M124.338 327.246a.794.794 0 1 0 1.563.275.794.794 0 0 0-1.563-.275M168.627 316.497a.934.934 0 1 0 1.838.326.934.934 0 0 0-1.838-.326M137.598 310.033a.933.933 0 1 0 1.839.324.933.933 0 0 0-1.839-.324M995.183 320.656a.794.794 0 1 0 1.564.276.794.794 0 0 0-1.564-.276M1039.47 309.908c-.09.508.25.992.76 1.081a.934.934 0 1 0-.76-1.081M1008.44 303.444a.934.934 0 1 0 1.84.322.934.934 0 0 0-1.84-.322M960.726 330.142a.932.932 0 1 0 1.838.324.933.933 0 1 0-1.838-.324M985.033 328.197a.933.933 0 1 0 1.838.325.933.933 0 0 0-1.838-.325M967.3 331.657a1.283 1.283 0 1 0 2.526.446 1.283 1.283 0 0 0-2.526-.446M1035.8 347.196a.79.79 0 0 0 .64.919c.43.077.84-.212.92-.643a.792.792 0 1 0-1.56-.276M1033.01 335.356a.933.933 0 1 0 1.84.325.934.934 0 0 0-1.84-.325M1024.69 342.348a1.283 1.283 0 1 0 2.532.445 1.283 1.283 0 0 0-2.532-.445M842.409 311.773a.79.79 0 0 0 .643.919.79.79 0 0 0 .919-.643.79.79 0 0 0-.643-.919.79.79 0 0 0-.919.643M886.697 301.025a.933.933 0 1 0 1.839.324.933.933 0 0 0-1.839-.324M855.669 294.561a.933.933 0 1 0 1.838.325.933.933 0 0 0-1.838-.325M664.883 354.292a.794.794 0 1 0 1.564.276.794.794 0 0 0-1.564-.276M709.172 343.544a.933.933 0 1 0 1.838.325.933.933 0 0 0-1.838-.325M678.143 337.079a.933.933 0 1 0 1.839.327.933.933 0 0 0-1.839-.327M630.427 363.778a.933.933 0 1 0 1.838.325.933.933 0 0 0-1.838-.325M654.733 361.833a.933.933 0 1 0 1.837.325.933.933 0 0 0-1.837-.325M637.001 365.293a1.282 1.282 0 1 0 2.525.447 1.282 1.282 0 0 0-2.525-.447M705.497 380.832a.794.794 0 1 0 1.563.275.794.794 0 0 0-1.563-.275M702.709 368.992a.933.933 0 1 0 1.838.324.933.933 0 0 0-1.838-.324M694.396 375.984a1.282 1.282 0 1 0 2.525.447 1.282 1.282 0 0 0-2.525-.447M512.109 345.409a.793.793 0 1 0 1.562.276.793.793 0 0 0-1.562-.276M556.397 334.661a.934.934 0 1 0 1.84.323.934.934 0 0 0-1.84-.323M525.369 328.196a.933.933 0 1 0 1.838.325.933.933 0 0 0-1.838-.325M439.161 241.083a.793.793 0 1 0-.706-1.422.793.793 0 0 0 .706 1.422M404.234 211.807a.934.934 0 1 0-.829-1.673.934.934 0 0 0 .829 1.673M417.439 240.62a.934.934 0 1 0-.832-1.673.934.934 0 0 0 .832 1.673M467.238 263.194a.933.933 0 1 0-.827-1.672.933.933 0 0 0 .827 1.672M451.253 244.781a.933.933 0 1 0-.83-1.672.933.933 0 0 0 .83 1.672M464.559 257.003a1.283 1.283 0 1 0-1.14-2.298 1.283 1.283 0 0 0 1.14 2.298M436.431 192.644a.794.794 0 1 0-.707-1.422.794.794 0 0 0 .707 1.422M428.554 201.913a.933.933 0 1 0-.83-1.672.933.933 0 0 0 .83 1.672M439.115 204.457a1.281 1.281 0 1 0-1.139-2.298 1.282 1.282 0 1 0 1.139 2.298M522.644 369.34a.792.792 0 1 0-.705-1.422.794.794 0 0 0 .705 1.422M487.718 340.064a.933.933 0 1 0-.83-1.672.933.933 0 0 0 .83 1.672M500.922 368.877a.932.932 0 1 0-.828-1.67.932.932 0 0 0 .828 1.67M745.436 111.119a.795.795 0 0 0-.705-1.422.793.793 0 0 0 .705 1.422M710.51 81.842a.933.933 0 1 0-.829-1.671.933.933 0 0 0 .829 1.671M723.714 110.656a.933.933 0 1 0-.83-1.672.933.933 0 0 0 .83 1.672M773.514 133.23a.934.934 0 1 0-.832-1.673.934.934 0 0 0 .832 1.673M757.528 114.816a.932.932 0 1 0-.827-1.672.932.932 0 0 0 .827 1.672M770.834 127.039a1.282 1.282 0 1 0-1.14-2.297 1.282 1.282 0 0 0 1.14 2.297M742.707 62.679a.793.793 0 1 0-.704-1.42.793.793 0 0 0 .704 1.42M734.83 71.948a.933.933 0 1 0-.828-1.672.933.933 0 0 0 .828 1.672M745.391 74.492a1.283 1.283 0 1 0-1.142-2.298 1.283 1.283 0 0 0 1.142 2.298M828.921 239.376a.793.793 0 1 0-.706-1.421.793.793 0 0 0 .706 1.421M793.993 210.099a.933.933 0 1 0-.827-1.672.933.933 0 0 0 .827 1.672M807.197 238.912a.933.933 0 1 0-.827-1.672.933.933 0 0 0 .827 1.672"/></svg>