<svg width="1154" height="427" viewBox="0 0 1154 427" fill="none" xmlns="http://www.w3.org/2000/svg">
<path d="M34.8716 48.4354C35.3099 48.4354 35.6652 48.0802 35.6652 47.6419C35.6652 47.2037 35.3099 46.8484 34.8716 46.8484C34.4334 46.8484 34.0781 47.2037 34.0781 47.6419C34.0781 48.0802 34.4334 48.4354 34.8716 48.4354Z" fill="white" fill-opacity="0.399684"/>
<path d="M16.5855 6.69055C17.1009 6.69055 17.5187 6.27276 17.5187 5.75738C17.5187 5.24201 17.1009 4.82422 16.5855 4.82422C16.0701 4.82422 15.6523 5.24201 15.6523 5.75738C15.6523 6.27276 16.0701 6.69055 16.5855 6.69055Z" fill="white" fill-opacity="0.399684"/>
<path d="M15.6167 38.3702C16.1321 38.3702 16.5499 37.9524 16.5499 37.4371C16.5499 36.9217 16.1321 36.5039 15.6167 36.5039C15.1014 36.5039 14.6836 36.9217 14.6836 37.4371C14.6836 37.9524 15.1014 38.3702 15.6167 38.3702Z" fill="white" fill-opacity="0.399684"/>
<path d="M50.2046 80.7179C50.72 80.7179 51.1378 80.3001 51.1378 79.7847C51.1378 79.2694 50.72 78.8516 50.2046 78.8516C49.6893 78.8516 49.2715 79.2694 49.2715 79.7847C49.2715 80.3001 49.6893 80.7179 50.2046 80.7179Z" fill="white" fill-opacity="0.399684"/>
<path d="M44.063 57.1198C44.5784 57.1198 44.9962 56.702 44.9962 56.1866C44.9962 55.6712 44.5784 55.2534 44.063 55.2534C43.5477 55.2534 43.1299 55.6712 43.1299 56.1866C43.1299 56.702 43.5477 57.1198 44.063 57.1198Z" fill="white" fill-opacity="0.399684"/>
<path d="M50.5537 73.9808C51.2619 73.9808 51.836 73.4067 51.836 72.6985C51.836 71.9904 51.2619 71.4163 50.5537 71.4163C49.8456 71.4163 49.2715 71.9904 49.2715 72.6985C49.2715 73.4067 49.8456 73.9808 50.5537 73.9808Z" fill="white" fill-opacity="0.399684"/>
<path d="M53.9439 3.82508C54.3821 3.82508 54.7374 3.46981 54.7374 3.03156C54.7374 2.59331 54.3821 2.23804 53.9439 2.23804C53.5057 2.23804 53.1504 2.59331 53.1504 3.03156C53.1504 3.46981 53.5057 3.82508 53.9439 3.82508Z" fill="white" fill-opacity="0.399684"/>
<path d="M42.7701 8.63025C43.2854 8.63025 43.7032 8.21246 43.7032 7.69708C43.7032 7.18171 43.2854 6.76392 42.7701 6.76392C42.2547 6.76392 41.8369 7.18171 41.8369 7.69708C41.8369 8.21246 42.2547 8.63025 42.7701 8.63025Z" fill="white" fill-opacity="0.399684"/>
<path d="M51.1016 15.6009C51.8098 15.6009 52.3839 15.0268 52.3839 14.3187C52.3839 13.6105 51.8098 13.0364 51.1016 13.0364C50.3934 13.0364 49.8193 13.6105 49.8193 14.3187C49.8193 15.0268 50.3934 15.6009 51.1016 15.6009Z" fill="white" fill-opacity="0.399684"/>
<path d="M52.692 200.429C53.1302 200.429 53.4855 200.074 53.4855 199.636C53.4855 199.197 53.1302 198.842 52.692 198.842C52.2537 198.842 51.8984 199.197 51.8984 199.636C51.8984 200.074 52.2537 200.429 52.692 200.429Z" fill="white" fill-opacity="0.399684"/>
<path d="M34.4058 158.684C34.9212 158.684 35.339 158.266 35.339 157.751C35.339 157.235 34.9212 156.818 34.4058 156.818C33.8904 156.818 33.4727 157.235 33.4727 157.751C33.4727 158.266 33.8904 158.684 34.4058 158.684Z" fill="white" fill-opacity="0.399684"/>
<path d="M33.4361 190.364C33.9515 190.364 34.3692 189.946 34.3692 189.431C34.3692 188.915 33.9515 188.498 33.4361 188.498C32.9207 188.498 32.5029 188.915 32.5029 189.431C32.5029 189.946 32.9207 190.364 33.4361 190.364Z" fill="white" fill-opacity="0.399684"/>
<path d="M506.276 66.4976C506.515 66.8646 507.007 66.9679 507.374 66.7283C507.741 66.4887 507.844 65.997 507.605 65.63C507.365 65.2631 506.873 65.1598 506.506 65.3994C506.139 65.6389 506.036 66.1307 506.276 66.4976Z" fill="white" fill-opacity="0.399684"/>
<path d="M531.234 28.3654C531.516 28.7969 532.094 28.9184 532.526 28.6366C532.958 28.3549 533.079 27.7767 532.797 27.3451C532.516 26.9136 531.937 26.7921 531.506 27.0738C531.074 27.3556 530.953 27.9338 531.234 28.3654Z" fill="white" fill-opacity="0.399684"/>
<path d="M504.177 44.8712C504.459 45.3028 505.037 45.4242 505.468 45.1425C505.9 44.8608 506.021 44.2825 505.74 43.851C505.458 43.4194 504.88 43.298 504.448 43.5797C504.017 43.8614 503.895 44.4397 504.177 44.8712Z" fill="white" fill-opacity="0.399684"/>
<path d="M495.257 113.053C495.539 113.484 496.117 113.606 496.548 113.324C496.98 113.042 497.101 112.464 496.82 112.032C496.538 111.601 495.96 111.479 495.528 111.761C495.097 112.043 494.975 112.621 495.257 113.053Z" fill="white" fill-opacity="0.399684"/>
<path d="M504.028 78.9413C504.31 79.3729 504.888 79.4943 505.32 79.2126C505.751 78.9308 505.873 78.3526 505.591 77.921C505.309 77.4895 504.731 77.368 504.3 77.6498C503.868 77.9315 503.747 78.5098 504.028 78.9413Z" fill="white" fill-opacity="0.399684"/>
<path d="M493.459 93.5939C493.846 94.1869 494.641 94.3537 495.234 93.9666C495.826 93.5795 495.993 92.7849 495.606 92.1919C495.219 91.5989 494.425 91.432 493.832 91.8191C493.239 92.2063 493.072 93.0009 493.459 93.5939Z" fill="white" fill-opacity="0.399684"/>
<path d="M554.056 58.0814C554.296 58.4483 554.787 58.5516 555.154 58.312C555.521 58.0725 555.625 57.5808 555.385 57.2138C555.145 56.8468 554.654 56.7435 554.287 56.9831C553.92 57.2227 553.817 57.7144 554.056 58.0814Z" fill="white" fill-opacity="0.399684"/>
<path d="M543.924 51.3512C544.206 51.7828 544.784 51.9042 545.215 51.6225C545.647 51.3407 545.768 50.7625 545.487 50.331C545.205 49.8994 544.627 49.7779 544.195 50.0597C543.764 50.3414 543.642 50.9197 543.924 51.3512Z" fill="white" fill-opacity="0.399684"/>
<path d="M542.64 62.138C543.028 62.731 543.822 62.8979 544.415 62.5108C545.008 62.1237 545.175 61.3291 544.788 60.7361C544.401 60.1431 543.606 59.9762 543.013 60.3633C542.42 60.7505 542.253 61.545 542.64 62.138Z" fill="white" fill-opacity="0.399684"/>
<path d="M388.746 164.509C388.986 164.876 389.478 164.979 389.845 164.739C390.212 164.5 390.315 164.008 390.075 163.641C389.836 163.274 389.344 163.171 388.977 163.41C388.61 163.65 388.507 164.142 388.746 164.509Z" fill="white" fill-opacity="0.399684"/>
<path d="M413.705 126.376C413.987 126.808 414.565 126.929 414.997 126.648C415.428 126.366 415.55 125.788 415.268 125.356C414.986 124.925 414.408 124.803 413.976 125.085C413.545 125.367 413.423 125.945 413.705 126.376Z" fill="white" fill-opacity="0.399684"/>
<path d="M386.648 142.882C386.929 143.314 387.508 143.435 387.939 143.153C388.371 142.872 388.492 142.294 388.21 141.862C387.929 141.43 387.35 141.309 386.919 141.591C386.487 141.872 386.366 142.451 386.648 142.882Z" fill="white" fill-opacity="0.399684"/>
<path d="M876.472 196.139C876.128 196.411 876.07 196.91 876.342 197.254C876.614 197.598 877.113 197.656 877.457 197.384C877.801 197.112 877.859 196.613 877.587 196.269C877.315 195.925 876.816 195.867 876.472 196.139Z" fill="white" fill-opacity="0.399684"/>
<path d="M916.718 217.523C916.314 217.842 916.246 218.429 916.566 218.833C916.886 219.237 917.473 219.306 917.877 218.986C918.281 218.666 918.349 218.079 918.029 217.675C917.709 217.271 917.123 217.203 916.718 217.523Z" fill="white" fill-opacity="0.399684"/>
<path d="M897.817 192.081C897.413 192.4 897.345 192.987 897.664 193.391C897.984 193.796 898.571 193.864 898.975 193.544C899.379 193.224 899.448 192.637 899.128 192.233C898.808 191.829 898.221 191.761 897.817 192.081Z" fill="white" fill-opacity="0.399684"/>
<path d="M844.414 180.343C844.01 180.663 843.941 181.25 844.261 181.654C844.581 182.058 845.168 182.126 845.572 181.806C845.976 181.486 846.044 180.899 845.725 180.495C845.405 180.091 844.818 180.023 844.414 180.343Z" fill="white" fill-opacity="0.399684"/>
<path d="M863.876 195.034C863.472 195.354 863.403 195.941 863.723 196.345C864.043 196.749 864.63 196.817 865.034 196.498C865.438 196.178 865.506 195.591 865.186 195.187C864.867 194.783 864.28 194.714 863.876 195.034Z" fill="white" fill-opacity="0.399684"/>
<path d="M848.321 185.842C847.766 186.282 847.672 187.088 848.111 187.643C848.551 188.199 849.357 188.292 849.913 187.853C850.468 187.413 850.562 186.607 850.122 186.052C849.683 185.496 848.876 185.403 848.321 185.842Z" fill="white" fill-opacity="0.399684"/>
<path d="M889.203 242.955C888.86 243.227 888.802 243.726 889.074 244.07C889.346 244.414 889.845 244.472 890.188 244.2C890.532 243.928 890.59 243.429 890.318 243.085C890.046 242.741 889.547 242.683 889.203 242.955Z" fill="white" fill-opacity="0.399684"/>
<path d="M894.983 232.252C894.579 232.572 894.511 233.159 894.831 233.563C895.15 233.967 895.737 234.036 896.141 233.716C896.545 233.396 896.614 232.809 896.294 232.405C895.974 232.001 895.387 231.933 894.983 232.252Z" fill="white" fill-opacity="0.399684"/>
<path d="M884.125 231.958C883.569 232.397 883.476 233.204 883.915 233.759C884.355 234.314 885.161 234.408 885.716 233.968C886.272 233.529 886.365 232.722 885.926 232.167C885.486 231.612 884.68 231.518 884.125 231.958Z" fill="white" fill-opacity="0.399684"/>
<path d="M768.167 88.0206C767.824 88.2926 767.766 88.7916 768.038 89.1352C768.31 89.4789 768.809 89.5369 769.152 89.2649C769.496 88.9929 769.554 88.4939 769.282 88.1503C769.01 87.8066 768.511 87.7486 768.167 88.0206Z" fill="white" fill-opacity="0.399684"/>
<path d="M808.415 109.404C808.011 109.724 807.942 110.311 808.262 110.715C808.582 111.119 809.169 111.187 809.573 110.867C809.977 110.547 810.045 109.961 809.726 109.556C809.406 109.152 808.819 109.084 808.415 109.404Z" fill="white" fill-opacity="0.399684"/>
<path d="M789.513 83.9617C789.109 84.2816 789.041 84.8684 789.361 85.2725C789.681 85.6767 790.268 85.7449 790.672 85.4251C791.076 85.1052 791.144 84.5184 790.824 84.1143C790.504 83.7102 789.917 83.6419 789.513 83.9617Z" fill="white" fill-opacity="0.399684"/>
<path d="M294.517 218.072C294.494 218.509 294.829 218.883 295.267 218.907C295.705 218.93 296.078 218.595 296.102 218.157C296.125 217.72 295.79 217.346 295.352 217.322C294.915 217.299 294.541 217.634 294.517 218.072Z" fill="white" fill-opacity="0.399684"/>
<path d="M337.185 202.055C337.157 202.57 337.552 203.009 338.067 203.037C338.581 203.065 339.021 202.67 339.048 202.155C339.076 201.641 338.681 201.201 338.167 201.173C337.652 201.146 337.213 201.54 337.185 202.055Z" fill="white" fill-opacity="0.399684"/>
<path d="M305.603 199.384C305.575 199.899 305.97 200.339 306.485 200.366C306.999 200.394 307.439 199.999 307.466 199.485C307.494 198.97 307.099 198.53 306.585 198.503C306.07 198.475 305.631 198.87 305.603 199.384Z" fill="white" fill-opacity="0.399684"/>
<path d="M261.459 231.648C261.432 232.163 261.826 232.603 262.341 232.63C262.856 232.658 263.295 232.263 263.323 231.749C263.351 231.234 262.956 230.794 262.441 230.767C261.927 230.739 261.487 231.134 261.459 231.648Z" fill="white" fill-opacity="0.399684"/>
<path d="M285.353 226.783C285.325 227.298 285.72 227.737 286.235 227.765C286.749 227.793 287.189 227.398 287.216 226.883C287.244 226.369 286.849 225.929 286.335 225.902C285.82 225.874 285.381 226.269 285.353 226.783Z" fill="white" fill-opacity="0.399684"/>
<path d="M268.166 232.359C268.128 233.066 268.671 233.67 269.378 233.708C270.085 233.746 270.689 233.204 270.727 232.497C270.765 231.79 270.223 231.185 269.515 231.147C268.808 231.109 268.204 231.652 268.166 232.359Z" fill="white" fill-opacity="0.399684"/>
<path d="M338.038 239.514C338.014 239.951 338.35 240.325 338.787 240.349C339.225 240.372 339.599 240.036 339.622 239.599C339.646 239.161 339.31 238.787 338.873 238.764C338.435 238.74 338.061 239.076 338.038 239.514Z" fill="white" fill-opacity="0.399684"/>
<path d="M333.841 228.097C333.813 228.612 334.208 229.051 334.723 229.079C335.237 229.107 335.677 228.712 335.705 228.197C335.732 227.683 335.338 227.243 334.823 227.215C334.308 227.188 333.869 227.583 333.841 228.097Z" fill="white" fill-opacity="0.399684"/>
<path d="M326.433 236.042C326.395 236.749 326.937 237.353 327.644 237.391C328.351 237.429 328.956 236.887 328.994 236.18C329.032 235.472 328.489 234.868 327.782 234.83C327.075 234.792 326.471 235.335 326.433 236.042Z" fill="white" fill-opacity="0.399684"/>
<path d="M141.789 227.7C141.765 228.137 142.101 228.511 142.538 228.535C142.976 228.558 143.35 228.223 143.373 227.785C143.397 227.347 143.061 226.974 142.624 226.95C142.186 226.926 141.812 227.262 141.789 227.7Z" fill="white" fill-opacity="0.399684"/>
<path d="M184.454 211.683C184.427 212.197 184.821 212.637 185.336 212.665C185.851 212.692 186.29 212.298 186.318 211.783C186.346 211.269 185.951 210.829 185.436 210.801C184.922 210.773 184.482 211.168 184.454 211.683Z" fill="white" fill-opacity="0.399684"/>
<path d="M152.873 209.012C152.846 209.527 153.24 209.967 153.755 209.994C154.27 210.022 154.709 209.627 154.737 209.113C154.765 208.598 154.37 208.158 153.855 208.131C153.341 208.103 152.901 208.498 152.873 209.012Z" fill="white" fill-opacity="0.399684"/>
<path d="M628.463 237.569C628.106 237.823 628.023 238.319 628.277 238.676C628.532 239.033 629.027 239.116 629.384 238.862C629.741 238.607 629.824 238.112 629.57 237.755C629.315 237.398 628.82 237.315 628.463 237.569Z" fill="white" fill-opacity="0.399684"/>
<path d="M667.58 260.954C667.16 261.254 667.062 261.836 667.361 262.256C667.66 262.676 668.243 262.773 668.663 262.474C669.083 262.175 669.18 261.593 668.881 261.173C668.582 260.753 668 260.655 667.58 260.954Z" fill="white" fill-opacity="0.399684"/>
<path d="M649.985 234.592C649.565 234.891 649.468 235.474 649.767 235.893C650.066 236.313 650.648 236.411 651.068 236.112C651.488 235.813 651.586 235.23 651.287 234.81C650.988 234.391 650.405 234.293 649.985 234.592Z" fill="white" fill-opacity="0.399684"/>
<path d="M597.242 220.176C596.822 220.475 596.724 221.058 597.024 221.478C597.323 221.897 597.905 221.995 598.325 221.696C598.745 221.397 598.843 220.814 598.543 220.395C598.244 219.975 597.662 219.877 597.242 220.176Z" fill="white" fill-opacity="0.399684"/>
<path d="M615.938 235.83C615.519 236.129 615.421 236.712 615.72 237.132C616.019 237.551 616.602 237.649 617.021 237.35C617.441 237.051 617.539 236.468 617.24 236.049C616.941 235.629 616.358 235.531 615.938 235.83Z" fill="white" fill-opacity="0.399684"/>
<path d="M600.867 225.865C600.29 226.276 600.156 227.077 600.567 227.654C600.978 228.23 601.778 228.365 602.355 227.954C602.932 227.543 603.066 226.742 602.655 226.165C602.244 225.589 601.444 225.454 600.867 225.865Z" fill="white" fill-opacity="0.399684"/>
<path d="M638.818 284.968C638.461 285.222 638.377 285.718 638.632 286.075C638.886 286.431 639.382 286.515 639.739 286.26C640.095 286.006 640.179 285.51 639.924 285.154C639.67 284.797 639.174 284.714 638.818 284.968Z" fill="white" fill-opacity="0.399684"/>
<path d="M645.13 274.57C644.71 274.869 644.612 275.451 644.911 275.871C645.21 276.291 645.793 276.389 646.213 276.09C646.632 275.791 646.73 275.208 646.431 274.788C646.132 274.368 645.549 274.271 645.13 274.57Z" fill="white" fill-opacity="0.399684"/>
<path d="M634.3 273.728C633.723 274.139 633.588 274.939 633.999 275.516C634.41 276.093 635.211 276.227 635.788 275.816C636.364 275.405 636.499 274.604 636.088 274.028C635.677 273.451 634.876 273.317 634.3 273.728Z" fill="white" fill-opacity="0.399684"/>
<path d="M525.749 124.127C525.392 124.381 525.309 124.876 525.563 125.233C525.818 125.59 526.313 125.673 526.67 125.419C527.027 125.165 527.11 124.669 526.856 124.312C526.602 123.955 526.106 123.872 525.749 124.127Z" fill="white" fill-opacity="0.399684"/>
<path d="M564.866 147.512C564.446 147.811 564.348 148.394 564.648 148.813C564.947 149.233 565.529 149.331 565.949 149.032C566.369 148.733 566.467 148.15 566.167 147.73C565.868 147.311 565.286 147.213 564.866 147.512Z" fill="white" fill-opacity="0.399684"/>
<path d="M567.462 124.875C567.042 125.174 566.944 125.756 567.243 126.176C567.542 126.596 568.125 126.694 568.545 126.395C568.964 126.095 569.062 125.513 568.763 125.093C568.464 124.673 567.881 124.576 567.462 124.875Z" fill="white" fill-opacity="0.399684"/>
<path d="M1107.03 36.3662C1106.92 36.7917 1107.18 37.2218 1107.61 37.327C1108.03 37.4322 1108.46 37.1726 1108.57 36.7471C1108.67 36.3217 1108.41 35.8915 1107.99 35.7863C1107.56 35.6812 1107.13 35.9408 1107.03 36.3662Z" fill="white" fill-opacity="0.399684"/>
<path d="M1151.94 28.634C1151.82 29.1343 1152.12 29.6401 1152.62 29.7638C1153.12 29.8875 1153.63 29.5822 1153.75 29.0819C1153.88 28.5816 1153.57 28.0758 1153.07 27.9521C1152.57 27.8283 1152.06 28.1336 1151.94 28.634Z" fill="white" fill-opacity="0.399684"/>
<path d="M1121.42 20.0885C1121.3 20.5889 1121.6 21.0947 1122.1 21.2184C1122.6 21.3421 1123.11 21.0368 1123.23 20.5365C1123.36 20.0362 1123.05 19.5303 1122.55 19.4066C1122.05 19.2829 1121.55 19.5882 1121.42 20.0885Z" fill="white" fill-opacity="0.399684"/>
<path d="M1072.01 43.5024C1071.89 44.0027 1072.19 44.5085 1072.69 44.6322C1073.19 44.7559 1073.7 44.4506 1073.82 43.9503C1073.94 43.45 1073.64 42.9442 1073.14 42.8205C1072.64 42.6968 1072.13 43.0021 1072.01 43.5024Z" fill="white" fill-opacity="0.399684"/>
<path d="M1096.39 43.204C1096.27 43.7043 1096.57 44.2102 1097.07 44.3339C1097.57 44.4576 1098.08 44.1523 1098.2 43.652C1098.33 43.1517 1098.02 42.6458 1097.52 42.5221C1097.02 42.3984 1096.52 42.7037 1096.39 43.204Z" fill="white" fill-opacity="0.399684"/>
<path d="M1078.47 45.4583C1078.3 46.1458 1078.71 46.8409 1079.4 47.0109C1080.09 47.1809 1080.78 46.7614 1080.95 46.0739C1081.12 45.3864 1080.71 44.6913 1080.02 44.5213C1079.33 44.3513 1078.64 44.7708 1078.47 45.4583Z" fill="white" fill-opacity="0.399684"/>
<path d="M1145.76 65.5886C1145.65 66.0141 1145.91 66.4442 1146.34 66.5494C1146.76 66.6546 1147.19 66.395 1147.3 65.9696C1147.4 65.5441 1147.14 65.114 1146.72 65.0088C1146.29 64.9036 1145.86 65.1632 1145.76 65.5886Z" fill="white" fill-opacity="0.399684"/>
<path d="M1143.77 53.5873C1143.65 54.0876 1143.96 54.5935 1144.46 54.7172C1144.96 54.8409 1145.46 54.5356 1145.59 54.0353C1145.71 53.535 1145.4 53.0291 1144.9 52.9054C1144.4 52.7817 1143.9 53.087 1143.77 53.5873Z" fill="white" fill-opacity="0.399684"/>
<path d="M1130.31 73.2447C1130.14 73.9322 1130.56 74.6273 1131.25 74.7973C1131.93 74.9673 1132.63 74.5478 1132.8 73.8603C1132.97 73.1728 1132.55 72.4777 1131.86 72.3077C1131.17 72.1377 1130.48 72.5572 1130.31 73.2447Z" fill="white" fill-opacity="0.399684"/>
<path d="M955.202 17.1833C955.096 17.6088 955.356 18.0389 955.781 18.1441C956.207 18.2493 956.637 17.9897 956.742 17.5643C956.847 17.1388 956.588 16.7087 956.162 16.6035C955.737 16.4983 955.307 16.7579 955.202 17.1833Z" fill="white" fill-opacity="0.399684"/>
<path d="M1000.12 9.45108C999.992 9.95139 1000.3 10.4572 1000.8 10.5809C1001.3 10.7046 1001.8 10.3994 1001.93 9.89905C1002.05 9.39874 1001.75 8.89288 1001.25 8.76917C1000.75 8.64547 1000.24 8.95077 1000.12 9.45108Z" fill="white" fill-opacity="0.399684"/>
<path d="M969.594 0.905916C969.47 1.40622 969.776 1.91209 970.276 2.03579C970.776 2.15949 971.282 1.85419 971.406 1.35388C971.53 0.853572 971.224 0.347724 970.724 0.224023C970.224 0.100322 969.718 0.405607 969.594 0.905916Z" fill="white" fill-opacity="0.399684"/>
<path d="M493.55 376.932C493.193 377.187 493.11 377.682 493.364 378.039C493.619 378.396 494.114 378.479 494.471 378.225C494.828 377.97 494.911 377.475 494.657 377.118C494.402 376.761 493.907 376.678 493.55 376.932Z" fill="white" fill-opacity="0.227488"/>
<path d="M532.667 400.318C532.247 400.617 532.149 401.199 532.448 401.619C532.747 402.039 533.33 402.136 533.75 401.837C534.17 401.538 534.267 400.956 533.968 400.536C533.669 400.116 533.087 400.018 532.667 400.318Z" fill="white" fill-opacity="0.227488"/>
<path d="M515.072 373.955C514.652 374.254 514.555 374.836 514.854 375.256C515.153 375.676 515.735 375.774 516.155 375.475C516.575 375.176 516.673 374.593 516.374 374.173C516.074 373.753 515.492 373.656 515.072 373.955Z" fill="white" fill-opacity="0.227488"/>
<path d="M462.329 359.539C461.909 359.838 461.811 360.421 462.11 360.841C462.41 361.26 462.992 361.358 463.412 361.059C463.832 360.76 463.929 360.177 463.63 359.758C463.331 359.338 462.749 359.24 462.329 359.539Z" fill="white" fill-opacity="0.227488"/>
<path d="M481.026 375.193C480.606 375.493 480.509 376.075 480.808 376.495C481.107 376.915 481.689 377.012 482.109 376.713C482.529 376.414 482.627 375.832 482.328 375.412C482.029 374.992 481.446 374.894 481.026 375.193Z" fill="white" fill-opacity="0.227488"/>
<path d="M465.955 365.228C465.378 365.639 465.244 366.44 465.655 367.016C466.066 367.593 466.866 367.728 467.443 367.317C468.02 366.906 468.154 366.105 467.743 365.528C467.332 364.951 466.532 364.817 465.955 365.228Z" fill="white" fill-opacity="0.227488"/>
<path d="M503.905 424.331C503.549 424.585 503.465 425.08 503.72 425.437C503.974 425.794 504.47 425.877 504.826 425.623C505.183 425.369 505.267 424.873 505.012 424.516C504.758 424.159 504.262 424.076 503.905 424.331Z" fill="white" fill-opacity="0.227488"/>
<path d="M510.218 413.933C509.798 414.232 509.7 414.814 509.999 415.234C510.298 415.654 510.881 415.752 511.301 415.453C511.72 415.154 511.818 414.571 511.519 414.151C511.22 413.731 510.637 413.634 510.218 413.933Z" fill="white" fill-opacity="0.227488"/>
<path d="M499.387 413.091C498.811 413.502 498.676 414.302 499.087 414.879C499.498 415.456 500.299 415.59 500.876 415.179C501.452 414.768 501.587 413.968 501.176 413.391C500.765 412.814 499.964 412.68 499.387 413.091Z" fill="white" fill-opacity="0.227488"/>
<path d="M390.837 263.489C390.48 263.744 390.397 264.239 390.651 264.596C390.906 264.953 391.401 265.036 391.758 264.782C392.115 264.527 392.198 264.032 391.944 263.675C391.69 263.318 391.194 263.235 390.837 263.489Z" fill="white" fill-opacity="0.227488"/>
<path d="M429.954 286.875C429.534 287.174 429.436 287.757 429.735 288.176C430.035 288.596 430.617 288.694 431.037 288.395C431.457 288.096 431.554 287.513 431.255 287.093C430.956 286.674 430.374 286.576 429.954 286.875Z" fill="white" fill-opacity="0.227488"/>
<path d="M412.359 260.512C411.939 260.811 411.842 261.394 412.141 261.813C412.44 262.233 413.022 262.331 413.442 262.032C413.862 261.733 413.96 261.15 413.661 260.73C413.362 260.311 412.779 260.213 412.359 260.512Z" fill="white" fill-opacity="0.227488"/>
<path d="M749.315 222.842C748.958 223.096 748.875 223.592 749.129 223.949C749.383 224.305 749.879 224.389 750.236 224.134C750.593 223.88 750.676 223.385 750.421 223.028C750.167 222.671 749.672 222.588 749.315 222.842Z" fill="white" fill-opacity="0.227488"/>
<path d="M788.431 246.227C788.012 246.527 787.914 247.109 788.213 247.529C788.512 247.949 789.095 248.046 789.514 247.747C789.934 247.448 790.032 246.866 789.733 246.446C789.434 246.026 788.851 245.928 788.431 246.227Z" fill="white" fill-opacity="0.227488"/>
<path d="M770.839 219.864C770.419 220.163 770.321 220.746 770.62 221.166C770.919 221.586 771.502 221.683 771.922 221.384C772.341 221.085 772.439 220.502 772.14 220.083C771.841 219.663 771.258 219.565 770.839 219.864Z" fill="white" fill-opacity="0.227488"/>
<path d="M718.095 205.449C717.676 205.748 717.578 206.331 717.877 206.75C718.176 207.17 718.759 207.268 719.179 206.969C719.598 206.67 719.696 206.087 719.397 205.667C719.098 205.248 718.515 205.15 718.095 205.449Z" fill="white" fill-opacity="0.227488"/>
<path d="M736.791 221.103C736.371 221.402 736.273 221.985 736.572 222.405C736.871 222.824 737.454 222.922 737.874 222.623C738.294 222.324 738.391 221.741 738.092 221.322C737.793 220.902 737.21 220.804 736.791 221.103Z" fill="white" fill-opacity="0.227488"/>
<path d="M721.72 211.138C721.144 211.549 721.009 212.35 721.42 212.926C721.831 213.503 722.632 213.638 723.209 213.227C723.785 212.816 723.92 212.015 723.509 211.438C723.098 210.861 722.297 210.727 721.72 211.138Z" fill="white" fill-opacity="0.227488"/>
<path d="M759.67 270.24C759.313 270.495 759.23 270.99 759.484 271.347C759.739 271.704 760.234 271.787 760.591 271.533C760.948 271.279 761.031 270.783 760.777 270.426C760.523 270.069 760.027 269.986 759.67 270.24Z" fill="white" fill-opacity="0.227488"/>
<path d="M765.982 259.843C765.562 260.142 765.465 260.724 765.764 261.144C766.063 261.564 766.646 261.662 767.065 261.363C767.485 261.063 767.583 260.481 767.284 260.061C766.985 259.641 766.402 259.544 765.982 259.843Z" fill="white" fill-opacity="0.227488"/>
<path d="M755.152 259C754.575 259.411 754.441 260.212 754.852 260.789C755.263 261.365 756.064 261.5 756.64 261.089C757.217 260.678 757.351 259.877 756.94 259.3C756.53 258.724 755.729 258.589 755.152 259Z" fill="white" fill-opacity="0.227488"/>
<path d="M646.602 109.399C646.245 109.654 646.162 110.149 646.416 110.506C646.67 110.863 647.166 110.946 647.523 110.692C647.88 110.437 647.963 109.942 647.708 109.585C647.454 109.228 646.959 109.145 646.602 109.399Z" fill="white" fill-opacity="0.227488"/>
<path d="M685.719 132.785C685.299 133.084 685.201 133.667 685.5 134.086C685.799 134.506 686.382 134.604 686.802 134.305C687.221 134.006 687.319 133.423 687.02 133.003C686.721 132.584 686.138 132.486 685.719 132.785Z" fill="white" fill-opacity="0.227488"/>
<path d="M668.124 106.422C667.704 106.721 667.606 107.304 667.905 107.723C668.204 108.143 668.787 108.241 669.207 107.942C669.627 107.643 669.724 107.06 669.425 106.64C669.126 106.221 668.544 106.123 668.124 106.422Z" fill="white" fill-opacity="0.227488"/>
<path d="M1028.29 156.89C1028.22 157.323 1028.52 157.729 1028.95 157.798C1029.38 157.867 1029.79 157.572 1029.86 157.139C1029.93 156.706 1029.63 156.299 1029.2 156.231C1028.76 156.162 1028.36 156.457 1028.29 156.89Z" fill="white" fill-opacity="0.227488"/>
<path d="M1072.39 145.378C1072.3 145.887 1072.65 146.365 1073.16 146.446C1073.67 146.527 1074.15 146.18 1074.23 145.671C1074.31 145.162 1073.96 144.683 1073.45 144.603C1072.94 144.522 1072.47 144.869 1072.39 145.378Z" fill="white" fill-opacity="0.227488"/>
<path d="M1041.25 139.451C1041.17 139.96 1041.52 140.438 1042.03 140.519C1042.53 140.6 1043.01 140.253 1043.09 139.744C1043.17 139.235 1042.83 138.756 1042.32 138.676C1041.81 138.595 1041.33 138.942 1041.25 139.451Z" fill="white" fill-opacity="0.227488"/>
<path d="M994.002 166.969C993.921 167.478 994.268 167.956 994.777 168.037C995.286 168.118 995.764 167.771 995.845 167.262C995.926 166.753 995.579 166.275 995.07 166.194C994.561 166.113 994.083 166.46 994.002 166.969Z" fill="white" fill-opacity="0.227488"/>
<path d="M1018.27 164.605C1018.19 165.114 1018.54 165.592 1019.05 165.673C1019.56 165.754 1020.03 165.406 1020.11 164.897C1020.2 164.388 1019.85 163.91 1019.34 163.829C1018.83 163.749 1018.35 164.096 1018.27 164.605Z" fill="white" fill-opacity="0.227488"/>
<path d="M1000.6 168.371C1000.49 169.07 1000.97 169.727 1001.67 169.839C1002.37 169.95 1003.02 169.473 1003.13 168.773C1003.24 168.074 1002.77 167.417 1002.07 167.306C1001.37 167.195 1000.71 167.672 1000.6 168.371Z" fill="white" fill-opacity="0.227488"/>
<path d="M1069.36 182.724C1069.29 183.157 1069.58 183.563 1070.01 183.632C1070.45 183.701 1070.85 183.406 1070.92 182.973C1070.99 182.54 1070.7 182.133 1070.26 182.065C1069.83 181.996 1069.42 182.291 1069.36 182.724Z" fill="white" fill-opacity="0.227488"/>
<path d="M1066.36 170.934C1066.28 171.443 1066.63 171.921 1067.14 172.002C1067.65 172.083 1068.12 171.736 1068.21 171.227C1068.29 170.718 1067.94 170.239 1067.43 170.159C1066.92 170.078 1066.44 170.425 1066.36 170.934Z" fill="white" fill-opacity="0.227488"/>
<path d="M1058.17 178.069C1058.06 178.768 1058.54 179.425 1059.24 179.536C1059.94 179.647 1060.59 179.17 1060.7 178.471C1060.82 177.772 1060.34 177.115 1059.64 177.003C1058.94 176.892 1058.28 177.369 1058.17 178.069Z" fill="white" fill-opacity="0.227488"/>
<path d="M875.384 150.648C875.316 151.081 875.611 151.487 876.044 151.556C876.476 151.625 876.883 151.33 876.952 150.897C877.02 150.464 876.725 150.057 876.293 149.989C875.86 149.92 875.453 150.215 875.384 150.648Z" fill="white" fill-opacity="0.227488"/>
<path d="M919.481 139.136C919.4 139.645 919.747 140.123 920.256 140.204C920.765 140.285 921.243 139.937 921.324 139.428C921.405 138.919 921.058 138.441 920.549 138.36C920.04 138.28 919.562 138.627 919.481 139.136Z" fill="white" fill-opacity="0.227488"/>
<path d="M888.345 133.208C888.265 133.717 888.612 134.196 889.121 134.276C889.63 134.357 890.108 134.01 890.189 133.501C890.269 132.992 889.922 132.514 889.413 132.433C888.904 132.352 888.426 132.699 888.345 133.208Z" fill="white" fill-opacity="0.227488"/>
<path d="M91.228 157.497C90.829 157.316 90.3586 157.493 90.1773 157.892C89.996 158.291 90.1725 158.761 90.5715 158.942C90.9705 159.124 91.4409 158.947 91.6222 158.548C91.8035 158.149 91.627 157.679 91.228 157.497Z" fill="white" fill-opacity="0.227488"/>
<path d="M90.608 203.067C90.1388 202.854 89.5856 203.062 89.3724 203.531C89.1592 204 89.3668 204.553 89.836 204.767C90.3052 204.98 90.8584 204.772 91.0715 204.303C91.2847 203.834 91.0772 203.281 90.608 203.067Z" fill="white" fill-opacity="0.227488"/>
<path d="M104.595 174.626C104.126 174.413 103.573 174.621 103.36 175.09C103.147 175.559 103.354 176.112 103.823 176.325C104.292 176.539 104.846 176.331 105.059 175.862C105.272 175.393 105.064 174.839 104.595 174.626Z" fill="white" fill-opacity="0.227488"/>
<path d="M90.6216 121.764C90.1524 121.551 89.5992 121.758 89.3861 122.227C89.1729 122.696 89.3804 123.25 89.8496 123.463C90.3188 123.676 90.872 123.469 91.0852 122.999C91.2984 122.53 91.0908 121.977 90.6216 121.764Z" fill="white" fill-opacity="0.227488"/>
<path d="M86.4517 145.789C85.9825 145.576 85.4293 145.783 85.2161 146.252C85.003 146.722 85.2105 147.275 85.6797 147.488C86.1489 147.701 86.7021 147.494 86.9153 147.024C87.1285 146.555 86.9209 146.002 86.4517 145.789Z" fill="white" fill-opacity="0.227488"/>
<path d="M87.5165 127.752C86.8717 127.459 86.1116 127.745 85.8186 128.389C85.5257 129.034 85.8109 129.794 86.4556 130.087C87.1004 130.38 87.8605 130.095 88.1535 129.45C88.4464 128.805 88.1612 128.045 87.5165 127.752Z" fill="white" fill-opacity="0.227488"/>
<path d="M55.4106 190.222C55.0116 190.041 54.5412 190.218 54.3599 190.617C54.1786 191.016 54.3551 191.486 54.7541 191.667C55.1531 191.849 55.6235 191.672 55.8048 191.273C55.9861 190.874 55.8096 190.404 55.4106 190.222Z" fill="white" fill-opacity="0.227488"/>
<path d="M67.5718 190.47C67.1026 190.257 66.5495 190.465 66.3363 190.934C66.1231 191.403 66.3306 191.956 66.7998 192.17C67.2691 192.383 67.8222 192.175 68.0354 191.706C68.2486 191.237 68.0411 190.684 67.5718 190.47Z" fill="white" fill-opacity="0.227488"/>
<path d="M62.87 180.677C62.2252 180.385 61.4651 180.67 61.1721 181.314C60.8792 181.959 61.1644 182.719 61.8092 183.012C62.4539 183.305 63.214 183.02 63.507 182.375C63.7999 181.731 63.5147 180.97 62.87 180.677Z" fill="white" fill-opacity="0.227488"/>
<path d="M137.875 11.7457C137.476 11.5644 137.006 11.7409 136.825 12.1399C136.643 12.5389 136.82 13.0093 137.219 13.1906C137.618 13.3718 138.088 13.1953 138.27 12.7963C138.451 12.3973 138.274 11.9269 137.875 11.7457Z" fill="white" fill-opacity="0.227488"/>
<path d="M137.256 57.3159C136.787 57.1028 136.234 57.3103 136.021 57.7795C135.808 58.2487 136.015 58.8019 136.484 59.0151C136.954 59.2283 137.507 59.0208 137.72 58.5515C137.933 58.0823 137.726 57.5291 137.256 57.3159Z" fill="white" fill-opacity="0.227488"/>
<path d="M151.244 28.8748C150.775 28.6616 150.221 28.8691 150.008 29.3384C149.795 29.8076 150.003 30.3608 150.472 30.574C150.941 30.7871 151.494 30.5796 151.707 30.1104C151.92 29.6412 151.713 29.088 151.244 28.8748Z" fill="white" fill-opacity="0.227488"/>
<path d="M201.741 210.58C201.904 210.987 202.366 211.184 202.773 211.02C203.179 210.857 203.377 210.395 203.213 209.988C203.05 209.581 202.587 209.384 202.181 209.548C201.774 209.711 201.577 210.173 201.741 210.58Z" fill="white" fill-opacity="0.227488"/>
<path d="M233.65 178.04C233.842 178.518 234.386 178.75 234.864 178.558C235.342 178.366 235.574 177.822 235.381 177.344C235.189 176.866 234.646 176.634 234.167 176.826C233.689 177.018 233.458 177.562 233.65 178.04Z" fill="white" fill-opacity="0.227488"/>
<path d="M203.895 188.959C204.087 189.437 204.631 189.669 205.109 189.477C205.587 189.285 205.819 188.741 205.626 188.263C205.434 187.785 204.891 187.553 204.413 187.745C203.934 187.938 203.703 188.481 203.895 188.959Z" fill="white" fill-opacity="0.227488"/>
<path d="M177.509 236.85C177.701 237.328 178.245 237.56 178.723 237.367C179.201 237.175 179.433 236.632 179.241 236.153C179.048 235.675 178.505 235.443 178.027 235.636C177.549 235.828 177.317 236.372 177.509 236.85Z" fill="white" fill-opacity="0.227488"/>
<path d="M197.113 222.347C197.305 222.825 197.848 223.057 198.327 222.865C198.805 222.673 199.037 222.129 198.844 221.651C198.652 221.173 198.108 220.941 197.63 221.133C197.152 221.326 196.92 221.869 197.113 222.347Z" fill="white" fill-opacity="0.227488"/>
<path d="M183.89 234.661C184.154 235.318 184.901 235.636 185.558 235.372C186.215 235.108 186.534 234.361 186.269 233.704C186.005 233.047 185.258 232.728 184.601 232.993C183.944 233.257 183.626 234.004 183.89 234.661Z" fill="white" fill-opacity="0.227488"/>
<path d="M250.245 211.633C250.409 212.039 250.871 212.236 251.278 212.073C251.684 211.909 251.881 211.447 251.718 211.04C251.554 210.634 251.092 210.437 250.686 210.6C250.279 210.764 250.082 211.226 250.245 211.633Z" fill="white" fill-opacity="0.227488"/>
<path d="M241.619 203.057C241.811 203.536 242.354 203.767 242.832 203.575C243.311 203.383 243.542 202.839 243.35 202.361C243.158 201.883 242.614 201.651 242.136 201.844C241.658 202.036 241.426 202.579 241.619 203.057Z" fill="white" fill-opacity="0.227488"/>
<path d="M238.259 213.388C238.523 214.045 239.27 214.363 239.927 214.099C240.584 213.835 240.903 213.088 240.639 212.431C240.374 211.774 239.628 211.456 238.97 211.72C238.313 211.984 237.995 212.731 238.259 213.388Z" fill="white" fill-opacity="0.227488"/>
<path d="M67.3705 283.819C67.534 284.225 67.9961 284.423 68.4027 284.259C68.8093 284.095 69.0064 283.633 68.8429 283.227C68.6794 282.82 68.2173 282.623 67.8107 282.787C67.404 282.95 67.207 283.412 67.3705 283.819Z" fill="white" fill-opacity="0.227488"/>
<path d="M99.2797 251.279C99.4719 251.757 100.015 251.989 100.494 251.796C100.972 251.604 101.203 251.061 101.011 250.582C100.819 250.104 100.275 249.872 99.7973 250.065C99.3191 250.257 99.0874 250.8 99.2797 251.279Z" fill="white" fill-opacity="0.227488"/>
<path d="M69.5258 262.198C69.718 262.676 70.2615 262.908 70.7397 262.715C71.2178 262.523 71.4496 261.979 71.2573 261.501C71.065 261.023 70.5216 260.791 70.0434 260.984C69.5652 261.176 69.3335 261.719 69.5258 262.198Z" fill="white" fill-opacity="0.227488"/>
<path d="M515.715 92.9054C515.483 93.2775 515.597 93.7669 515.969 93.9984C516.341 94.2299 516.831 94.1159 517.062 93.7438C517.294 93.3717 517.18 92.8824 516.808 92.6509C516.436 92.4194 515.946 92.5333 515.715 92.9054Z" fill="white" fill-opacity="0.227488"/>
<path d="M560.819 99.4321C560.547 99.8697 560.681 100.445 561.118 100.717C561.556 100.99 562.131 100.856 562.404 100.418C562.676 99.9805 562.542 99.405 562.104 99.1328C561.667 98.8605 561.091 98.9945 560.819 99.4321Z" fill="white" fill-opacity="0.227488"/>
<path d="M534.432 81.8728C534.16 82.3104 534.294 82.8858 534.732 83.1581C535.169 83.4303 535.745 83.2963 536.017 82.8587C536.289 82.4211 536.155 81.8457 535.717 81.5734C535.28 81.3012 534.704 81.4352 534.432 81.8728Z" fill="white" fill-opacity="0.227488"/>
<path d="M480.205 88.8704C479.932 89.3079 480.066 89.8834 480.504 90.1556C480.942 90.4279 481.517 90.2939 481.789 89.8563C482.062 89.4187 481.927 88.8432 481.49 88.571C481.052 88.2987 480.477 88.4328 480.205 88.8704Z" fill="white" fill-opacity="0.227488"/>
<path d="M503.486 96.1218C503.214 96.5594 503.348 97.1349 503.785 97.4071C504.223 97.6794 504.798 97.5453 505.071 97.1078C505.343 96.6702 505.209 96.0947 504.771 95.8225C504.334 95.5502 503.758 95.6842 503.486 96.1218Z" fill="white" fill-opacity="0.227488"/>
<path d="M486.037 95.4478C485.663 96.0491 485.847 96.8398 486.448 97.214C487.049 97.5881 487.84 97.4039 488.214 96.8026C488.588 96.2013 488.404 95.4106 487.803 95.0365C487.202 94.6624 486.411 94.8465 486.037 95.4478Z" fill="white" fill-opacity="0.227488"/>
<path d="M543.516 132.666C543.285 133.039 543.399 133.528 543.771 133.759C544.143 133.991 544.632 133.877 544.864 133.505C545.096 133.133 544.982 132.643 544.609 132.412C544.237 132.18 543.748 132.294 543.516 132.666Z" fill="white" fill-opacity="0.227488"/>
<path d="M545.339 120.64C545.067 121.077 545.201 121.653 545.639 121.925C546.076 122.197 546.652 122.063 546.924 121.626C547.196 121.188 547.062 120.613 546.625 120.341C546.187 120.068 545.612 120.202 545.339 120.64Z" fill="white" fill-opacity="0.227488"/>
<path d="M535.02 124.031C534.646 124.633 534.83 125.423 535.432 125.797C536.033 126.172 536.824 125.987 537.198 125.386C537.572 124.785 537.388 123.994 536.786 123.62C536.185 123.246 535.394 123.43 535.02 124.031Z" fill="white" fill-opacity="0.227488"/>
<path d="M377.25 27.7413C377.018 28.1135 377.132 28.6028 377.504 28.8343C377.877 29.0658 378.366 28.9519 378.597 28.5798C378.829 28.2077 378.715 27.7183 378.343 27.4868C377.971 27.2553 377.481 27.3692 377.25 27.7413Z" fill="white" fill-opacity="0.227488"/>
<path d="M422.353 34.2681C422.081 34.7056 422.215 35.2811 422.652 35.5534C423.09 35.8256 423.665 35.6916 423.938 35.254C424.21 34.8164 424.076 34.241 423.638 33.9687C423.201 33.6964 422.625 33.8305 422.353 34.2681Z" fill="white" fill-opacity="0.227488"/>
<path d="M395.967 16.7087C395.695 17.1463 395.829 17.7218 396.267 17.994C396.704 18.2663 397.28 18.1323 397.552 17.6947C397.824 17.2571 397.69 16.6816 397.253 16.4094C396.815 16.1371 396.24 16.2711 395.967 16.7087Z" fill="white" fill-opacity="0.227488"/>
<path d="M767.308 25.2203C767.364 25.655 767.762 25.9616 768.197 25.9052C768.631 25.8488 768.938 25.4508 768.881 25.0162C768.825 24.5816 768.427 24.275 767.992 24.3313C767.558 24.3877 767.251 24.7857 767.308 25.2203Z" fill="white" fill-opacity="0.227488"/>
<path d="M806.351 1.71508C806.418 2.22617 806.886 2.58675 807.397 2.52045C807.908 2.45414 808.268 1.98606 808.202 1.47497C808.136 0.963876 807.668 0.603316 807.157 0.669621C806.646 0.735926 806.285 1.20399 806.351 1.71508Z" fill="white" fill-opacity="0.227488"/>
<path d="M774.811 4.82909C774.878 5.34019 775.346 5.70075 775.857 5.63445C776.368 5.56814 776.728 5.10007 776.662 4.58898C776.596 4.07789 776.128 3.71733 775.617 3.78363C775.105 3.84994 774.745 4.318 774.811 4.82909Z" fill="white" fill-opacity="0.227488"/>
<path d="M737.266 44.5791C737.333 45.0902 737.801 45.4508 738.312 45.3845C738.823 45.3181 739.183 44.8501 739.117 44.339C739.051 43.8279 738.583 43.4673 738.072 43.5336C737.561 43.5999 737.2 44.068 737.266 44.5791Z" fill="white" fill-opacity="0.227488"/>
<path d="M759.878 35.4521C759.944 35.9632 760.412 36.3238 760.923 36.2575C761.434 36.1912 761.795 35.7231 761.728 35.212C761.662 34.7009 761.194 34.3404 760.683 34.4067C760.172 34.473 759.811 34.941 759.878 35.4521Z" fill="white" fill-opacity="0.227488"/>
<path d="M743.992 44.0586C744.083 44.7609 744.726 45.2563 745.428 45.1652C746.131 45.0741 746.626 44.4309 746.535 43.7286C746.444 43.0264 745.801 42.5309 745.099 42.622C744.396 42.7131 743.901 43.3563 743.992 44.0586Z" fill="white" fill-opacity="0.227488"/>
<path d="M814.001 38.3947C814.057 38.8293 814.455 39.1359 814.89 39.0795C815.325 39.0231 815.631 38.6251 815.575 38.1905C815.518 37.7559 815.12 37.4493 814.686 37.5057C814.251 37.562 813.945 37.9601 814.001 38.3947Z" fill="white" fill-opacity="0.227488"/>
<path d="M807.799 27.9316C807.865 28.4427 808.333 28.8033 808.844 28.737C809.355 28.6707 809.716 28.2026 809.649 27.6915C809.583 27.1804 809.115 26.8199 808.604 26.8862C808.093 26.9525 807.732 27.4205 807.799 27.9316Z" fill="white" fill-opacity="0.227488"/>
<path d="M801.957 37.0903C802.048 37.7926 802.691 38.2881 803.393 38.197C804.096 38.1059 804.591 37.4627 804.5 36.7604C804.409 36.0581 803.766 35.5626 803.063 35.6537C802.361 35.7448 801.866 36.388 801.957 37.0903Z" fill="white" fill-opacity="0.227488"/>
<path d="M618.872 62.4467C618.928 62.8813 619.326 63.1879 619.761 63.1315C620.196 63.0751 620.502 62.6771 620.446 62.2425C620.389 61.8079 619.991 61.5013 619.557 61.5577C619.122 61.614 618.816 62.0121 618.872 62.4467Z" fill="white" fill-opacity="0.227488"/>
<path d="M657.917 38.9417C657.983 39.4527 658.451 39.8133 658.962 39.747C659.473 39.6807 659.834 39.2126 659.768 38.7015C659.701 38.1905 659.233 37.8299 658.722 37.8962C658.211 37.9625 657.85 38.4306 657.917 38.9417Z" fill="white" fill-opacity="0.227488"/>
<path d="M626.376 42.0554C626.442 42.5665 626.91 42.9271 627.421 42.8608C627.932 42.7945 628.293 42.3264 628.226 41.8153C628.16 41.3042 627.692 40.9436 627.181 41.01C626.67 41.0763 626.309 41.5443 626.376 42.0554Z" fill="white" fill-opacity="0.227488"/>
<path d="M1064.74 126.697C1065.08 126.968 1065.58 126.909 1065.85 126.564C1066.12 126.22 1066.06 125.721 1065.72 125.45C1065.38 125.179 1064.88 125.238 1064.61 125.582C1064.33 125.926 1064.39 126.425 1064.74 126.697Z" fill="white" fill-opacity="0.227488"/>
<path d="M1076.21 82.5899C1076.61 82.9088 1077.2 82.8393 1077.52 82.4344C1077.84 82.0296 1077.77 81.4429 1077.36 81.1239C1076.96 80.8049 1076.37 80.8746 1076.05 81.2794C1075.74 81.6842 1075.8 82.2709 1076.21 82.5899Z" fill="white" fill-opacity="0.227488"/>
<path d="M1055.84 106.873C1056.25 107.192 1056.83 107.122 1057.15 106.718C1057.47 106.313 1057.4 105.726 1057 105.407C1056.59 105.088 1056.01 105.158 1055.69 105.563C1055.37 105.967 1055.44 106.554 1055.84 106.873Z" fill="white" fill-opacity="0.227488"/>
<path d="M1056.8 161.543C1057.21 161.862 1057.79 161.793 1058.11 161.388C1058.43 160.983 1058.36 160.396 1057.96 160.077C1057.55 159.758 1056.97 159.828 1056.65 160.233C1056.33 160.638 1056.4 161.224 1056.8 161.543Z" fill="white" fill-opacity="0.227488"/>
<path d="M1066.58 139.206C1066.99 139.525 1067.57 139.455 1067.89 139.051C1068.21 138.646 1068.14 138.059 1067.74 137.74C1067.33 137.421 1066.75 137.491 1066.43 137.896C1066.11 138.3 1066.18 138.887 1066.58 139.206Z" fill="white" fill-opacity="0.227488"/>
<path d="M1061.25 156.468C1061.8 156.906 1062.61 156.81 1063.05 156.254C1063.49 155.698 1063.39 154.892 1062.83 154.453C1062.28 154.015 1061.47 154.111 1061.03 154.667C1060.59 155.223 1060.69 156.029 1061.25 156.468Z" fill="white" fill-opacity="0.227488"/>
<path d="M1107.33 103.46C1107.67 103.732 1108.17 103.672 1108.44 103.328C1108.71 102.984 1108.66 102.485 1108.31 102.214C1107.97 101.943 1107.47 102.002 1107.2 102.346C1106.93 102.69 1106.98 103.189 1107.33 103.46Z" fill="white" fill-opacity="0.227488"/>
<path d="M1095.58 100.319C1095.98 100.638 1096.57 100.568 1096.89 100.163C1097.21 99.7586 1097.14 99.1719 1096.73 98.853C1096.33 98.534 1095.74 98.6035 1095.42 99.0083C1095.1 99.4132 1095.17 100 1095.58 100.319Z" fill="white" fill-opacity="0.227488"/>
<path d="M1097.81 110.951C1098.36 111.389 1099.17 111.293 1099.61 110.737C1100.05 110.181 1099.95 109.374 1099.39 108.936C1098.84 108.498 1098.03 108.593 1097.59 109.15C1097.15 109.706 1097.25 110.512 1097.81 110.951Z" fill="white" fill-opacity="0.227488"/>
<path d="M984.667 257.112C985.012 257.383 985.511 257.324 985.782 256.98C986.053 256.636 985.994 256.137 985.65 255.865C985.305 255.594 984.806 255.653 984.535 255.998C984.264 256.342 984.323 256.841 984.667 257.112Z" fill="white" fill-opacity="0.227488"/>
<path d="M996.139 213.005C996.544 213.324 997.131 213.254 997.45 212.849C997.769 212.445 997.699 211.858 997.294 211.539C996.89 211.22 996.303 211.29 995.984 211.694C995.665 212.099 995.735 212.686 996.139 213.005Z" fill="white" fill-opacity="0.227488"/>
<path d="M975.772 237.288C976.177 237.607 976.764 237.538 977.083 237.133C977.402 236.728 977.332 236.141 976.927 235.822C976.522 235.503 975.936 235.573 975.617 235.978C975.298 236.383 975.367 236.969 975.772 237.288Z" fill="white" fill-opacity="0.227488"/>
<path d="M752.46 285.736C752.103 285.99 752.02 286.486 752.274 286.843C752.529 287.2 753.024 287.283 753.381 287.028C753.738 286.774 753.821 286.279 753.567 285.922C753.313 285.565 752.817 285.482 752.46 285.736Z" fill="white" fill-opacity="0.120063"/>
<path d="M791.577 309.121C791.157 309.421 791.059 310.003 791.358 310.423C791.658 310.843 792.24 310.94 792.66 310.641C793.08 310.342 793.177 309.76 792.878 309.34C792.579 308.92 791.997 308.822 791.577 309.121Z" fill="white" fill-opacity="0.120063"/>
<path d="M773.983 282.758C773.563 283.058 773.466 283.64 773.765 284.06C774.064 284.48 774.646 284.577 775.066 284.278C775.486 283.979 775.584 283.397 775.285 282.977C774.986 282.557 774.403 282.459 773.983 282.758Z" fill="white" fill-opacity="0.120063"/>
<path d="M721.239 268.343C720.819 268.642 720.722 269.225 721.021 269.644C721.32 270.064 721.902 270.162 722.322 269.863C722.742 269.564 722.84 268.981 722.541 268.561C722.241 268.142 721.659 268.044 721.239 268.343Z" fill="white" fill-opacity="0.120063"/>
<path d="M739.936 283.997C739.517 284.296 739.419 284.879 739.718 285.298C740.017 285.718 740.6 285.816 741.019 285.517C741.439 285.218 741.537 284.635 741.238 284.215C740.939 283.796 740.356 283.698 739.936 283.997Z" fill="white" fill-opacity="0.120063"/>
<path d="M724.864 274.032C724.287 274.443 724.153 275.244 724.564 275.82C724.975 276.397 725.775 276.532 726.352 276.121C726.929 275.71 727.063 274.909 726.652 274.332C726.241 273.755 725.441 273.621 724.864 274.032Z" fill="white" fill-opacity="0.120063"/>
<path d="M762.815 333.134C762.458 333.389 762.375 333.884 762.629 334.241C762.883 334.598 763.379 334.681 763.736 334.427C764.092 334.172 764.176 333.677 763.921 333.32C763.667 332.963 763.172 332.88 762.815 333.134Z" fill="white" fill-opacity="0.120063"/>
<path d="M769.127 322.737C768.707 323.036 768.609 323.618 768.908 324.038C769.207 324.458 769.79 324.556 770.21 324.257C770.629 323.958 770.727 323.375 770.428 322.955C770.129 322.535 769.546 322.438 769.127 322.737Z" fill="white" fill-opacity="0.120063"/>
<path d="M758.297 321.894C757.72 322.305 757.586 323.106 757.996 323.683C758.407 324.259 759.208 324.394 759.785 323.983C760.362 323.572 760.496 322.771 760.085 322.194C759.674 321.618 758.873 321.483 758.297 321.894Z" fill="white" fill-opacity="0.120063"/>
<path d="M649.746 172.293C649.389 172.547 649.306 173.043 649.561 173.4C649.815 173.757 650.31 173.84 650.667 173.585C651.024 173.331 651.107 172.836 650.853 172.479C650.599 172.122 650.103 172.039 649.746 172.293Z" fill="white" fill-opacity="0.120063"/>
<path d="M688.863 195.679C688.443 195.978 688.346 196.56 688.645 196.98C688.944 197.4 689.526 197.498 689.946 197.198C690.366 196.899 690.464 196.317 690.165 195.897C689.865 195.477 689.283 195.38 688.863 195.679Z" fill="white" fill-opacity="0.120063"/>
<path d="M671.269 169.316C670.85 169.615 670.752 170.198 671.051 170.617C671.35 171.037 671.933 171.135 672.352 170.836C672.772 170.537 672.87 169.954 672.571 169.534C672.272 169.115 671.689 169.017 671.269 169.316Z" fill="white" fill-opacity="0.120063"/>
<path d="M453.718 159.948C453.361 160.202 453.278 160.698 453.532 161.055C453.787 161.412 454.282 161.495 454.639 161.241C454.996 160.986 455.079 160.491 454.825 160.134C454.57 159.777 454.075 159.694 453.718 159.948Z" fill="white" fill-opacity="0.227488"/>
<path d="M492.835 183.334C492.415 183.633 492.317 184.215 492.616 184.635C492.915 185.055 493.498 185.153 493.918 184.854C494.337 184.554 494.435 183.972 494.136 183.552C493.837 183.132 493.254 183.035 492.835 183.334Z" fill="white" fill-opacity="0.227488"/>
<path d="M475.24 156.971C474.82 157.27 474.722 157.852 475.022 158.272C475.321 158.692 475.903 158.79 476.323 158.491C476.743 158.191 476.841 157.609 476.542 157.189C476.242 156.769 475.66 156.671 475.24 156.971Z" fill="white" fill-opacity="0.227488"/>
<path d="M422.498 142.555C422.078 142.854 421.98 143.437 422.279 143.856C422.578 144.276 423.161 144.374 423.581 144.075C424.001 143.776 424.098 143.193 423.799 142.773C423.5 142.354 422.918 142.256 422.498 142.555Z" fill="white" fill-opacity="0.227488"/>
<path d="M441.193 158.209C440.773 158.508 440.676 159.091 440.975 159.511C441.274 159.931 441.856 160.028 442.276 159.729C442.696 159.43 442.794 158.847 442.495 158.428C442.196 158.008 441.613 157.91 441.193 158.209Z" fill="white" fill-opacity="0.227488"/>
<path d="M541.536 257.826C541.46 258.257 541.748 258.669 542.18 258.745C542.611 258.821 543.023 258.533 543.099 258.102C543.176 257.67 542.887 257.259 542.456 257.182C542.024 257.106 541.613 257.394 541.536 257.826Z" fill="white" fill-opacity="0.227488"/>
<path d="M585.825 247.077C585.735 247.585 586.074 248.069 586.582 248.159C587.089 248.248 587.573 247.909 587.663 247.402C587.753 246.894 587.414 246.41 586.906 246.321C586.399 246.231 585.915 246.57 585.825 247.077Z" fill="white" fill-opacity="0.227488"/>
<path d="M554.796 240.613C554.706 241.121 555.045 241.605 555.552 241.694C556.06 241.784 556.544 241.445 556.634 240.938C556.723 240.43 556.384 239.946 555.877 239.857C555.369 239.767 554.885 240.106 554.796 240.613Z" fill="white" fill-opacity="0.227488"/>
<path d="M507.08 267.311C506.99 267.818 507.329 268.303 507.837 268.392C508.344 268.482 508.828 268.143 508.918 267.636C509.007 267.128 508.669 266.644 508.161 266.554C507.654 266.465 507.17 266.803 507.08 267.311Z" fill="white" fill-opacity="0.227488"/>
<path d="M531.387 265.367C531.297 265.874 531.636 266.358 532.143 266.448C532.651 266.537 533.135 266.199 533.224 265.691C533.314 265.184 532.975 264.7 532.468 264.61C531.96 264.52 531.476 264.859 531.387 265.367Z" fill="white" fill-opacity="0.227488"/>
<path d="M513.653 268.826C513.53 269.524 513.995 270.189 514.693 270.312C515.39 270.435 516.055 269.97 516.178 269.272C516.302 268.575 515.836 267.91 515.139 267.787C514.441 267.663 513.776 268.129 513.653 268.826Z" fill="white" fill-opacity="0.227488"/>
<path d="M582.149 284.365C582.073 284.797 582.361 285.208 582.792 285.284C583.224 285.361 583.635 285.073 583.712 284.641C583.788 284.209 583.5 283.798 583.068 283.722C582.637 283.645 582.225 283.933 582.149 284.365Z" fill="white" fill-opacity="0.227488"/>
<path d="M579.361 272.525C579.272 273.033 579.61 273.517 580.118 273.606C580.625 273.696 581.109 273.357 581.199 272.85C581.289 272.342 580.95 271.858 580.442 271.768C579.935 271.679 579.451 272.018 579.361 272.525Z" fill="white" fill-opacity="0.227488"/>
<path d="M571.047 279.517C570.923 280.215 571.389 280.88 572.086 281.003C572.784 281.126 573.449 280.661 573.572 279.963C573.695 279.266 573.23 278.601 572.532 278.478C571.835 278.355 571.17 278.82 571.047 279.517Z" fill="white" fill-opacity="0.227488"/>
<path d="M388.761 248.942C388.685 249.374 388.973 249.785 389.405 249.862C389.836 249.938 390.248 249.65 390.324 249.218C390.4 248.787 390.112 248.375 389.681 248.299C389.249 248.223 388.837 248.511 388.761 248.942Z" fill="white" fill-opacity="0.227488"/>
<path d="M433.05 238.194C432.96 238.702 433.299 239.186 433.806 239.275C434.314 239.365 434.798 239.026 434.888 238.519C434.977 238.011 434.638 237.527 434.131 237.438C433.623 237.348 433.139 237.687 433.05 238.194Z" fill="white" fill-opacity="0.227488"/>
<path d="M402.021 231.73C401.932 232.237 402.27 232.721 402.778 232.811C403.286 232.901 403.77 232.562 403.859 232.054C403.949 231.547 403.61 231.063 403.103 230.973C402.595 230.884 402.111 231.222 402.021 231.73Z" fill="white" fill-opacity="0.227488"/>
<path d="M426.122 148.244C425.545 148.655 425.411 149.456 425.822 150.032C426.233 150.609 427.033 150.743 427.61 150.332C428.187 149.922 428.321 149.121 427.91 148.544C427.499 147.967 426.699 147.833 426.122 148.244Z" fill="white" fill-opacity="0.227488"/>
<path d="M464.072 207.346C463.716 207.601 463.632 208.096 463.887 208.453C464.141 208.81 464.637 208.893 464.993 208.639C465.35 208.385 465.433 207.889 465.179 207.532C464.925 207.175 464.429 207.092 464.072 207.346Z" fill="white" fill-opacity="0.227488"/>
<path d="M470.385 196.949C469.965 197.248 469.867 197.831 470.166 198.25C470.465 198.67 471.048 198.768 471.468 198.469C471.887 198.17 471.985 197.587 471.686 197.167C471.387 196.748 470.804 196.65 470.385 196.949Z" fill="white" fill-opacity="0.227488"/>
<path d="M459.554 196.106C458.978 196.517 458.843 197.318 459.254 197.895C459.665 198.472 460.466 198.606 461.043 198.195C461.619 197.784 461.754 196.983 461.343 196.407C460.932 195.83 460.131 195.696 459.554 196.106Z" fill="white" fill-opacity="0.227488"/>
<path d="M351.004 46.5054C350.647 46.7597 350.564 47.2552 350.818 47.6121C351.073 47.969 351.568 48.0522 351.925 47.7979C352.282 47.5436 352.365 47.0481 352.111 46.6912C351.856 46.3342 351.361 46.2511 351.004 46.5054Z" fill="white" fill-opacity="0.227488"/>
<path d="M390.121 69.891C389.701 70.19 389.603 70.7727 389.902 71.1925C390.201 71.6122 390.784 71.71 391.204 71.4109C391.624 71.1118 391.721 70.5291 391.422 70.1094C391.123 69.6897 390.541 69.5919 390.121 69.891Z" fill="white" fill-opacity="0.227488"/>
<path d="M372.527 43.5279C372.107 43.827 372.01 44.4097 372.309 44.8294C372.608 45.2491 373.19 45.3469 373.61 45.0479C374.03 44.7488 374.128 44.1661 373.829 43.7464C373.53 43.3266 372.947 43.2288 372.527 43.5279Z" fill="white" fill-opacity="0.227488"/>
<path d="M152.912 60.9373C152.836 61.3689 153.124 61.7805 153.556 61.8568C153.987 61.933 154.399 61.6449 154.475 61.2133C154.552 60.7817 154.263 60.3701 153.832 60.2939C153.4 60.2177 152.989 60.5058 152.912 60.9373Z" fill="white" fill-opacity="0.227488"/>
<path d="M197.2 50.1891C197.11 50.6966 197.449 51.1807 197.957 51.2703C198.464 51.36 198.948 51.0212 199.038 50.5137C199.128 50.0062 198.789 49.5221 198.281 49.4324C197.774 49.3428 197.29 49.6816 197.2 50.1891Z" fill="white" fill-opacity="0.227488"/>
<path d="M166.173 43.725C166.083 44.2325 166.422 44.7166 166.929 44.8062C167.437 44.8959 167.921 44.5571 168.011 44.0496C168.1 43.542 167.761 43.058 167.254 42.9683C166.746 42.8787 166.262 43.2175 166.173 43.725Z" fill="white" fill-opacity="0.227488"/>
<path d="M118.455 70.423C118.365 70.9305 118.704 71.4146 119.212 71.5042C119.719 71.5939 120.203 71.2551 120.293 70.7476C120.382 70.24 120.044 69.756 119.536 69.6663C119.029 69.5767 118.545 69.9155 118.455 70.423Z" fill="white" fill-opacity="0.227488"/>
<path d="M142.762 68.4782C142.672 68.9857 143.011 69.4698 143.518 69.5594C144.026 69.649 144.51 69.3103 144.599 68.8027C144.689 68.2952 144.35 67.8111 143.843 67.7215C143.335 67.6319 142.851 67.9707 142.762 68.4782Z" fill="white" fill-opacity="0.227488"/>
<path d="M125.029 71.9384C124.906 72.6357 125.371 73.3009 126.069 73.4241C126.766 73.5472 127.431 73.0817 127.554 72.3843C127.678 71.6869 127.212 71.0217 126.515 70.8986C125.817 70.7754 125.152 71.241 125.029 71.9384Z" fill="white" fill-opacity="0.227488"/>
<path d="M193.526 87.4771C193.45 87.9087 193.738 88.3203 194.169 88.3966C194.601 88.4728 195.012 88.1847 195.089 87.7531C195.165 87.3215 194.877 86.9099 194.445 86.8337C194.014 86.7575 193.602 87.0456 193.526 87.4771Z" fill="white" fill-opacity="0.227488"/>
<path d="M190.737 75.6374C190.648 76.1449 190.986 76.629 191.494 76.7186C192.001 76.8082 192.485 76.4694 192.575 75.9619C192.665 75.4544 192.326 74.9703 191.818 74.8807C191.311 74.7911 190.827 75.1298 190.737 75.6374Z" fill="white" fill-opacity="0.227488"/>
<path d="M182.423 82.6295C182.3 83.3269 182.766 83.9921 183.463 84.1152C184.161 84.2384 184.826 83.7729 184.949 83.0755C185.072 82.3781 184.607 81.7129 183.909 81.5898C183.212 81.4666 182.547 81.9321 182.423 82.6295Z" fill="white" fill-opacity="0.227488"/>
<path d="M0.13803 52.0543C0.0618192 52.4858 0.349893 52.8975 0.781461 52.9737C1.21303 53.0499 1.62466 52.7618 1.70088 52.3303C1.77709 51.8987 1.48901 51.487 1.05744 51.4108C0.625877 51.3346 0.214241 51.6227 0.13803 52.0543Z" fill="white" fill-opacity="0.227488"/>
<path d="M44.4266 41.3058C44.337 41.8133 44.6758 42.2974 45.1833 42.387C45.6908 42.4767 46.1749 42.1379 46.2645 41.6304C46.3541 41.1229 46.0153 40.6388 45.5078 40.5491C45.0003 40.4595 44.5162 40.7983 44.4266 41.3058Z" fill="white" fill-opacity="0.227488"/>
<path d="M13.3983 34.8417C13.3087 35.3492 13.6474 35.8333 14.1549 35.9229C14.6625 36.0126 15.1465 35.6738 15.2362 35.1663C15.3258 34.6587 14.987 34.1747 14.4795 34.085C13.972 33.9954 13.4879 34.3342 13.3983 34.8417Z" fill="white" fill-opacity="0.227488"/>
<path d="M971.478 89.2601C971.402 89.6917 971.69 90.1033 972.121 90.1795C972.553 90.2557 972.965 89.9676 973.041 89.5361C973.117 89.1045 972.829 88.6929 972.397 88.6166C971.966 88.5404 971.554 88.8285 971.478 89.2601Z" fill="white" fill-opacity="0.227488"/>
<path d="M1015.77 78.5119C1015.68 79.0194 1016.02 79.5035 1016.52 79.5931C1017.03 79.6827 1017.51 79.344 1017.6 78.8364C1017.69 78.3289 1017.36 77.8448 1016.85 77.7552C1016.34 77.6656 1015.86 78.0044 1015.77 78.5119Z" fill="white" fill-opacity="0.227488"/>
<path d="M984.737 72.0478C984.648 72.5553 984.986 73.0394 985.494 73.129C986.001 73.2186 986.485 72.8798 986.575 72.3723C986.665 71.8648 986.326 71.3807 985.818 71.2911C985.311 71.2015 984.827 71.5402 984.737 72.0478Z" fill="white" fill-opacity="0.227488"/>
<path d="M937.022 98.7458C936.933 99.2533 937.271 99.7374 937.779 99.827C938.287 99.9166 938.771 99.5778 938.86 99.0703C938.95 98.5628 938.611 98.0787 938.104 97.9891C937.596 97.8995 937.112 98.2382 937.022 98.7458Z" fill="white" fill-opacity="0.227488"/>
<path d="M961.328 96.8009C961.238 97.3085 961.577 97.7925 962.085 97.8822C962.592 97.9718 963.076 97.633 963.166 97.1255C963.255 96.618 962.917 96.1339 962.409 96.0443C961.902 95.9546 961.418 96.2934 961.328 96.8009Z" fill="white" fill-opacity="0.227488"/>
<path d="M943.594 100.261C943.471 100.959 943.937 101.624 944.634 101.747C945.331 101.87 945.997 101.404 946.12 100.707C946.243 100.01 945.777 99.3445 945.08 99.2214C944.383 99.0982 943.718 99.5637 943.594 100.261Z" fill="white" fill-opacity="0.227488"/>
<path d="M1012.09 115.8C1012.01 116.231 1012.3 116.643 1012.73 116.719C1013.17 116.796 1013.58 116.507 1013.65 116.076C1013.73 115.644 1013.44 115.233 1013.01 115.156C1012.58 115.08 1012.17 115.368 1012.09 115.8Z" fill="white" fill-opacity="0.227488"/>
<path d="M1009.3 103.96C1009.21 104.467 1009.55 104.951 1010.06 105.041C1010.57 105.131 1011.05 104.792 1011.14 104.284C1011.23 103.777 1010.89 103.293 1010.38 103.203C1009.88 103.114 1009.39 103.452 1009.3 103.96Z" fill="white" fill-opacity="0.227488"/>
<path d="M1000.99 110.952C1000.87 111.65 1001.33 112.315 1002.03 112.438C1002.73 112.561 1003.39 112.096 1003.51 111.398C1003.64 110.701 1003.17 110.036 1002.47 109.913C1001.78 109.789 1001.11 110.255 1000.99 110.952Z" fill="white" fill-opacity="0.227488"/>
<path d="M818.703 80.377C818.626 80.8086 818.914 81.2202 819.346 81.2965C819.778 81.3727 820.189 81.0846 820.265 80.653C820.342 80.2214 820.053 79.8098 819.622 79.7336C819.19 79.6574 818.779 79.9455 818.703 80.377Z" fill="white" fill-opacity="0.227488"/>
<path d="M862.991 69.6286C862.901 70.1361 863.24 70.6202 863.748 70.7098C864.255 70.7994 864.739 70.4606 864.829 69.9531C864.919 69.4456 864.58 68.9615 864.072 68.8719C863.565 68.7823 863.081 69.1211 862.991 69.6286Z" fill="white" fill-opacity="0.227488"/>
<path d="M831.963 63.1645C831.873 63.672 832.212 64.1561 832.719 64.2457C833.227 64.3353 833.711 63.9965 833.801 63.489C833.89 62.9815 833.551 62.4974 833.044 62.4078C832.536 62.3182 832.052 62.6569 831.963 63.1645Z" fill="white" fill-opacity="0.227488"/>
<path d="M277.114 336.129C277.037 336.561 277.325 336.972 277.757 337.048C278.189 337.125 278.6 336.837 278.676 336.405C278.753 335.973 278.465 335.562 278.033 335.486C277.601 335.409 277.19 335.697 277.114 336.129Z" fill="white" fill-opacity="0.227488"/>
<path d="M321.402 325.381C321.313 325.888 321.651 326.372 322.159 326.462C322.666 326.551 323.15 326.213 323.24 325.705C323.33 325.198 322.991 324.713 322.483 324.624C321.976 324.534 321.492 324.873 321.402 325.381Z" fill="white" fill-opacity="0.227488"/>
<path d="M290.373 318.917C290.283 319.424 290.622 319.908 291.13 319.998C291.637 320.088 292.121 319.749 292.211 319.241C292.3 318.734 291.962 318.25 291.454 318.16C290.947 318.07 290.462 318.409 290.373 318.917Z" fill="white" fill-opacity="0.227488"/>
<path d="M242.657 345.614C242.567 346.122 242.906 346.606 243.414 346.696C243.921 346.785 244.405 346.446 244.495 345.939C244.585 345.431 244.246 344.947 243.738 344.858C243.231 344.768 242.747 345.107 242.657 345.614Z" fill="white" fill-opacity="0.227488"/>
<path d="M266.964 343.67C266.874 344.177 267.213 344.661 267.72 344.751C268.228 344.841 268.712 344.502 268.802 343.994C268.891 343.487 268.552 343.003 268.045 342.913C267.537 342.824 267.053 343.162 266.964 343.67Z" fill="white" fill-opacity="0.227488"/>
<path d="M249.23 347.13C249.107 347.827 249.572 348.492 250.27 348.616C250.967 348.739 251.632 348.273 251.756 347.576C251.879 346.878 251.413 346.213 250.716 346.09C250.018 345.967 249.353 346.432 249.23 347.13Z" fill="white" fill-opacity="0.227488"/>
<path d="M317.727 362.669C317.651 363.1 317.939 363.512 318.37 363.588C318.802 363.664 319.214 363.376 319.29 362.945C319.366 362.513 319.078 362.101 318.646 362.025C318.215 361.949 317.803 362.237 317.727 362.669Z" fill="white" fill-opacity="0.227488"/>
<path d="M314.938 350.829C314.849 351.336 315.187 351.82 315.695 351.91C316.202 352 316.687 351.661 316.776 351.153C316.866 350.646 316.527 350.162 316.02 350.072C315.512 349.982 315.028 350.321 314.938 350.829Z" fill="white" fill-opacity="0.227488"/>
<path d="M306.625 357.821C306.501 358.518 306.967 359.184 307.664 359.307C308.362 359.43 309.027 358.964 309.15 358.267C309.273 357.57 308.808 356.904 308.11 356.781C307.413 356.658 306.748 357.124 306.625 357.821Z" fill="white" fill-opacity="0.227488"/>
<path d="M124.338 327.246C124.262 327.677 124.55 328.089 124.982 328.165C125.413 328.241 125.825 327.953 125.901 327.522C125.977 327.09 125.689 326.678 125.258 326.602C124.826 326.526 124.414 326.814 124.338 327.246Z" fill="white" fill-opacity="0.227488"/>
<path d="M168.627 316.497C168.537 317.005 168.876 317.489 169.383 317.579C169.891 317.668 170.375 317.33 170.465 316.822C170.554 316.315 170.216 315.83 169.708 315.741C169.201 315.651 168.716 315.99 168.627 316.497Z" fill="white" fill-opacity="0.227488"/>
<path d="M137.598 310.033C137.509 310.541 137.848 311.025 138.355 311.114C138.863 311.204 139.347 310.865 139.436 310.358C139.526 309.85 139.187 309.366 138.68 309.276C138.172 309.187 137.688 309.526 137.598 310.033Z" fill="white" fill-opacity="0.227488"/>
<path d="M995.183 320.656C995.107 321.088 995.395 321.5 995.826 321.576C996.258 321.652 996.67 321.364 996.746 320.932C996.822 320.501 996.534 320.089 996.102 320.013C995.671 319.937 995.259 320.225 995.183 320.656Z" fill="white" fill-opacity="0.227488"/>
<path d="M1039.47 309.908C1039.38 310.416 1039.72 310.9 1040.23 310.989C1040.74 311.079 1041.22 310.74 1041.31 310.233C1041.4 309.725 1041.06 309.241 1040.55 309.151C1040.05 309.062 1039.56 309.401 1039.47 309.908Z" fill="white" fill-opacity="0.227488"/>
<path d="M1008.44 303.444C1008.35 303.951 1008.69 304.435 1009.2 304.525C1009.71 304.615 1010.19 304.276 1010.28 303.768C1010.37 303.261 1010.03 302.777 1009.52 302.687C1009.02 302.597 1008.53 302.936 1008.44 303.444Z" fill="white" fill-opacity="0.227488"/>
<path d="M960.726 330.142C960.637 330.649 960.976 331.133 961.483 331.223C961.991 331.313 962.475 330.974 962.564 330.466C962.654 329.959 962.315 329.475 961.808 329.385C961.3 329.295 960.816 329.634 960.726 330.142Z" fill="white" fill-opacity="0.227488"/>
<path d="M985.033 328.197C984.943 328.705 985.282 329.189 985.79 329.279C986.297 329.368 986.781 329.029 986.871 328.522C986.961 328.014 986.622 327.53 986.114 327.441C985.607 327.351 985.123 327.69 985.033 328.197Z" fill="white" fill-opacity="0.227488"/>
<path d="M967.3 331.657C967.177 332.355 967.643 333.02 968.34 333.143C969.037 333.266 969.703 332.801 969.826 332.103C969.949 331.406 969.483 330.741 968.786 330.618C968.089 330.494 967.423 330.96 967.3 331.657Z" fill="white" fill-opacity="0.227488"/>
<path d="M1035.8 347.196C1035.72 347.627 1036.01 348.039 1036.44 348.115C1036.87 348.192 1037.28 347.903 1037.36 347.472C1037.44 347.04 1037.15 346.629 1036.72 346.552C1036.29 346.476 1035.87 346.764 1035.8 347.196Z" fill="white" fill-opacity="0.227488"/>
<path d="M1033.01 335.356C1032.92 335.864 1033.26 336.348 1033.76 336.437C1034.27 336.527 1034.76 336.188 1034.85 335.681C1034.94 335.173 1034.6 334.689 1034.09 334.599C1033.58 334.51 1033.1 334.849 1033.01 335.356Z" fill="white" fill-opacity="0.227488"/>
<path d="M1024.69 342.348C1024.57 343.046 1025.04 343.711 1025.73 343.834C1026.43 343.957 1027.1 343.492 1027.22 342.794C1027.34 342.097 1026.88 341.432 1026.18 341.308C1025.48 341.185 1024.82 341.651 1024.69 342.348Z" fill="white" fill-opacity="0.227488"/>
<path d="M842.409 311.773C842.332 312.205 842.62 312.616 843.052 312.692C843.484 312.769 843.895 312.481 843.971 312.049C844.048 311.617 843.76 311.206 843.328 311.13C842.896 311.053 842.485 311.341 842.409 311.773Z" fill="white" fill-opacity="0.227488"/>
<path d="M886.697 301.025C886.607 301.533 886.946 302.017 887.454 302.106C887.961 302.196 888.445 301.857 888.535 301.35C888.625 300.842 888.286 300.358 887.778 300.268C887.271 300.179 886.787 300.518 886.697 301.025Z" fill="white" fill-opacity="0.227488"/>
<path d="M855.669 294.561C855.579 295.068 855.918 295.552 856.425 295.642C856.933 295.732 857.417 295.393 857.507 294.885C857.596 294.378 857.257 293.894 856.75 293.804C856.242 293.714 855.758 294.053 855.669 294.561Z" fill="white" fill-opacity="0.227488"/>
<path d="M664.883 354.292C664.807 354.724 665.095 355.136 665.527 355.212C665.958 355.288 666.37 355 666.446 354.568C666.522 354.137 666.234 353.725 665.803 353.649C665.371 353.573 664.959 353.861 664.883 354.292Z" fill="white" fill-opacity="0.227488"/>
<path d="M709.172 343.544C709.082 344.051 709.421 344.535 709.928 344.625C710.436 344.715 710.92 344.376 711.01 343.868C711.099 343.361 710.76 342.877 710.253 342.787C709.745 342.698 709.261 343.036 709.172 343.544Z" fill="white" fill-opacity="0.227488"/>
<path d="M678.143 337.079C678.054 337.587 678.393 338.071 678.9 338.161C679.408 338.25 679.892 337.912 679.981 337.404C680.071 336.897 679.732 336.412 679.225 336.323C678.717 336.233 678.233 336.572 678.143 337.079Z" fill="white" fill-opacity="0.227488"/>
<path d="M630.427 363.778C630.337 364.285 630.676 364.769 631.183 364.859C631.691 364.948 632.175 364.61 632.264 364.102C632.354 363.595 632.015 363.11 631.508 363.021C631 362.931 630.516 363.27 630.427 363.778Z" fill="white" fill-opacity="0.227488"/>
<path d="M654.733 361.833C654.644 362.341 654.982 362.825 655.49 362.914C655.997 363.004 656.481 362.665 656.571 362.158C656.661 361.65 656.322 361.166 655.814 361.076C655.307 360.987 654.823 361.326 654.733 361.833Z" fill="white" fill-opacity="0.227488"/>
<path d="M637.001 365.293C636.877 365.99 637.343 366.655 638.04 366.779C638.738 366.902 639.403 366.436 639.526 365.739C639.649 365.041 639.184 364.376 638.486 364.253C637.789 364.13 637.124 364.595 637.001 365.293Z" fill="white" fill-opacity="0.227488"/>
<path d="M705.497 380.832C705.421 381.263 705.709 381.675 706.141 381.751C706.572 381.827 706.984 381.539 707.06 381.108C707.136 380.676 706.848 380.264 706.417 380.188C705.985 380.112 705.574 380.4 705.497 380.832Z" fill="white" fill-opacity="0.227488"/>
<path d="M702.709 368.992C702.619 369.499 702.958 369.983 703.466 370.073C703.973 370.163 704.457 369.824 704.547 369.316C704.636 368.809 704.298 368.325 703.79 368.235C703.283 368.146 702.798 368.484 702.709 368.992Z" fill="white" fill-opacity="0.227488"/>
<path d="M694.396 375.984C694.273 376.682 694.738 377.347 695.436 377.47C696.133 377.593 696.798 377.128 696.922 376.43C697.045 375.733 696.579 375.068 695.882 374.944C695.184 374.821 694.519 375.287 694.396 375.984Z" fill="white" fill-opacity="0.227488"/>
<path d="M512.109 345.409C512.033 345.841 512.321 346.252 512.752 346.328C513.184 346.405 513.595 346.117 513.672 345.685C513.748 345.253 513.46 344.842 513.028 344.766C512.597 344.689 512.185 344.977 512.109 345.409Z" fill="white" fill-opacity="0.227488"/>
<path d="M556.397 334.661C556.308 335.168 556.646 335.652 557.154 335.742C557.661 335.831 558.146 335.493 558.235 334.985C558.325 334.478 557.986 333.994 557.478 333.904C556.971 333.814 556.487 334.153 556.397 334.661Z" fill="white" fill-opacity="0.227488"/>
<path d="M525.369 328.196C525.279 328.704 525.618 329.188 526.126 329.278C526.633 329.367 527.117 329.029 527.207 328.521C527.296 328.013 526.958 327.529 526.45 327.44C525.943 327.35 525.459 327.689 525.369 328.196Z" fill="white" fill-opacity="0.227488"/>
<path d="M439.161 241.083C439.554 240.889 439.714 240.412 439.519 240.02C439.325 239.627 438.849 239.467 438.456 239.661C438.063 239.856 437.903 240.332 438.098 240.725C438.292 241.117 438.768 241.278 439.161 241.083Z" fill="white" fill-opacity="0.227488"/>
<path d="M404.234 211.807C404.696 211.578 404.885 211.018 404.656 210.556C404.427 210.094 403.867 209.906 403.405 210.135C402.944 210.363 402.755 210.923 402.984 211.385C403.213 211.847 403.773 212.036 404.234 211.807Z" fill="white" fill-opacity="0.227488"/>
<path d="M417.439 240.62C417.9 240.391 418.089 239.831 417.86 239.369C417.631 238.908 417.071 238.719 416.609 238.948C416.148 239.177 415.959 239.737 416.188 240.198C416.417 240.66 416.977 240.849 417.439 240.62Z" fill="white" fill-opacity="0.227488"/>
<path d="M467.238 263.194C467.7 262.965 467.889 262.405 467.66 261.944C467.431 261.482 466.871 261.293 466.409 261.522C465.948 261.751 465.759 262.311 465.988 262.773C466.217 263.235 466.777 263.423 467.238 263.194Z" fill="white" fill-opacity="0.227488"/>
<path d="M451.253 244.781C451.715 244.552 451.903 243.992 451.674 243.53C451.446 243.068 450.886 242.88 450.424 243.109C449.962 243.338 449.773 243.898 450.002 244.359C450.231 244.821 450.791 245.01 451.253 244.781Z" fill="white" fill-opacity="0.227488"/>
<path d="M464.559 257.003C465.193 256.689 465.452 255.919 465.138 255.285C464.823 254.65 464.054 254.391 463.419 254.706C462.785 255.02 462.526 255.79 462.84 256.424C463.155 257.059 463.924 257.318 464.559 257.003Z" fill="white" fill-opacity="0.227488"/>
<path d="M436.431 192.644C436.823 192.449 436.984 191.973 436.789 191.58C436.594 191.188 436.118 191.027 435.726 191.222C435.333 191.417 435.172 191.893 435.367 192.285C435.562 192.678 436.038 192.838 436.431 192.644Z" fill="white" fill-opacity="0.227488"/>
<path d="M428.554 201.913C429.016 201.684 429.204 201.124 428.975 200.662C428.746 200.2 428.186 200.012 427.725 200.24C427.263 200.469 427.074 201.029 427.303 201.491C427.532 201.953 428.092 202.142 428.554 201.913Z" fill="white" fill-opacity="0.227488"/>
<path d="M439.115 204.457C439.75 204.142 440.009 203.373 439.694 202.739C439.38 202.104 438.61 201.845 437.976 202.159C437.341 202.474 437.082 203.243 437.397 203.878C437.711 204.512 438.481 204.772 439.115 204.457Z" fill="white" fill-opacity="0.227488"/>
<path d="M522.644 369.34C523.037 369.146 523.198 368.67 523.003 368.277C522.808 367.884 522.332 367.724 521.939 367.918C521.547 368.113 521.386 368.589 521.581 368.982C521.776 369.375 522.252 369.535 522.644 369.34Z" fill="white" fill-opacity="0.227488"/>
<path d="M487.718 340.064C488.18 339.835 488.368 339.275 488.139 338.813C487.91 338.352 487.35 338.163 486.889 338.392C486.427 338.621 486.238 339.181 486.467 339.642C486.696 340.104 487.256 340.293 487.718 340.064Z" fill="white" fill-opacity="0.227488"/>
<path d="M500.922 368.877C501.384 368.648 501.572 368.088 501.343 367.627C501.114 367.165 500.555 366.976 500.093 367.205C499.631 367.434 499.442 367.994 499.671 368.456C499.9 368.917 500.46 369.106 500.922 368.877Z" fill="white" fill-opacity="0.227488"/>
<path d="M745.436 111.119C745.829 110.924 745.989 110.448 745.795 110.055C745.6 109.663 745.124 109.502 744.731 109.697C744.339 109.892 744.178 110.368 744.373 110.76C744.568 111.153 745.044 111.313 745.436 111.119Z" fill="white" fill-opacity="0.227488"/>
<path d="M710.51 81.842C710.972 81.6131 711.16 81.0532 710.931 80.5914C710.702 80.1297 710.142 79.941 709.681 80.1699C709.219 80.3989 709.03 80.9588 709.259 81.4205C709.488 81.8822 710.048 82.071 710.51 81.842Z" fill="white" fill-opacity="0.227488"/>
<path d="M723.714 110.656C724.176 110.427 724.364 109.867 724.135 109.405C723.906 108.943 723.347 108.754 722.885 108.983C722.423 109.212 722.234 109.772 722.463 110.234C722.692 110.696 723.252 110.884 723.714 110.656Z" fill="white" fill-opacity="0.227488"/>
<path d="M773.514 133.23C773.975 133.001 774.164 132.441 773.935 131.979C773.706 131.517 773.146 131.329 772.685 131.558C772.223 131.787 772.034 132.346 772.263 132.808C772.492 133.27 773.052 133.459 773.514 133.23Z" fill="white" fill-opacity="0.227488"/>
<path d="M757.528 114.816C757.99 114.587 758.179 114.028 757.95 113.566C757.721 113.104 757.161 112.915 756.699 113.144C756.238 113.373 756.049 113.933 756.278 114.395C756.507 114.857 757.067 115.045 757.528 114.816Z" fill="white" fill-opacity="0.227488"/>
<path d="M770.834 127.039C771.468 126.724 771.728 125.955 771.413 125.321C771.098 124.686 770.329 124.427 769.695 124.741C769.06 125.056 768.801 125.825 769.116 126.46C769.43 127.094 770.199 127.354 770.834 127.039Z" fill="white" fill-opacity="0.227488"/>
<path d="M742.707 62.679C743.1 62.4843 743.26 62.0082 743.065 61.6155C742.871 61.2229 742.395 61.0624 742.002 61.2571C741.609 61.4518 741.449 61.9279 741.644 62.3206C741.838 62.7132 742.314 62.8737 742.707 62.679Z" fill="white" fill-opacity="0.227488"/>
<path d="M734.83 71.9482C735.292 71.7193 735.481 71.1594 735.252 70.6976C735.023 70.2359 734.463 70.0472 734.001 70.2761C733.539 70.5051 733.351 71.065 733.58 71.5267C733.809 71.9885 734.368 72.1772 734.83 71.9482Z" fill="white" fill-opacity="0.227488"/>
<path d="M745.391 74.4922C746.025 74.1776 746.284 73.4082 745.97 72.7737C745.655 72.1393 744.886 71.88 744.251 72.1945C743.617 72.5091 743.358 73.2785 743.672 73.913C743.987 74.5474 744.756 74.8068 745.391 74.4922Z" fill="white" fill-opacity="0.227488"/>
<path d="M828.921 239.376C829.313 239.181 829.474 238.705 829.279 238.313C829.085 237.92 828.608 237.759 828.216 237.954C827.823 238.149 827.663 238.625 827.857 239.018C828.052 239.41 828.528 239.571 828.921 239.376Z" fill="white" fill-opacity="0.227488"/>
<path d="M793.993 210.099C794.455 209.87 794.644 209.31 794.415 208.849C794.186 208.387 793.626 208.198 793.164 208.427C792.702 208.656 792.514 209.216 792.743 209.678C792.972 210.139 793.531 210.328 793.993 210.099Z" fill="white" fill-opacity="0.227488"/>
<path d="M807.197 238.912C807.659 238.683 807.848 238.123 807.619 237.662C807.39 237.2 806.83 237.011 806.368 237.24C805.907 237.469 805.718 238.029 805.947 238.491C806.176 238.953 806.736 239.141 807.197 238.912Z" fill="white" fill-opacity="0.227488"/>
</svg>
