<svg xmlns="http://www.w3.org/2000/svg" xmlns:xhtml="http://www.w3.org/1999/xhtml" width="135" height="130" fill="none" viewBox="0 0 135 130"><foreignObject width="43.885" height="43.806" x="-8.9" y="-12.9"><xhtml:div style="backdrop-filter:blur(6.45px);clip-path:url(#a);height:100%;width:100%"/></foreignObject><g data-figma-bg-blur-radius="12.9" filter="url(#b)" shape-rendering="geometricPrecision" transform="translate(28.795 38.282)scale(2.96761)"><path fill="url(#c)" d="M4.372 8.233c4.512-1.417 6.674-3.37 8.137-7.862.162-.497.942-.494 1.1.005 1.434 4.531 3.6 6.412 8.112 7.877.483.157.486.884.006 1.048-4.708 1.6-6.687 3.796-8.145 8.339-.156.485-.888.49-1.05.007-1.608-4.794-3.735-6.914-8.161-8.338-.495-.159-.495-.92 0-1.076" style="fill:url(#c)"/><path stroke="url(#d)" stroke-linecap="round" stroke-linejoin="round" d="M13.059.5c.031 0 .054.01.064.016q.008.004.009.01c.733 2.317 1.669 4.004 3.034 5.3 1.362 1.293 3.111 2.159 5.401 2.902l.006.003.002.002a.1.1 0 0 1 .01.044.1.1 0 0 1-.01.044l-.002.003h-.002q0 .002-.006.004c-2.398.815-4.15 1.799-5.49 3.193-1.338 1.393-2.228 3.157-2.97 5.466l-.002.006-.003.003a.1.1 0 0 1-.044.01.1.1 0 0 1-.044-.01l-.003-.001-.001-.001-.002-.006c-.817-2.437-1.783-4.243-3.142-5.624-1.361-1.384-3.08-2.304-5.34-3.03l-.005-.003h-.002l-.003-.005A.1.1 0 0 1 4.5 8.77c0-.028.008-.047.013-.055l.002-.003h.002l.004-.003c2.295-.72 4.043-1.592 5.408-2.892 1.366-1.302 2.308-2.996 3.055-5.291q.001-.007.01-.01A.13.13 0 0 1 13.058.5" style="stroke:url(#d)"/></g><defs><linearGradient id="c" x1="5.945" x2="22.458" y1="-.274" y2="18.957" gradientUnits="userSpaceOnUse"><stop offset=".08" stop-color="#fff" stop-opacity=".77"/><stop offset=".495" stop-color="#c9c9c9" stop-opacity=".68"/><stop offset=".925" stop-color="#fff" stop-opacity=".49"/></linearGradient><linearGradient id="d" x1="9.596" x2="17.459" y1=".826" y2="17.613" gradientUnits="userSpaceOnUse"><stop stop-color="#fff" stop-opacity=".8"/><stop offset="1" stop-color="#999" stop-opacity=".09"/></linearGradient><clipPath id="a" transform="translate(8.9 12.9)"><path stroke-linecap="round" stroke-linejoin="round" d="M4.372 8.233c4.512-1.417 6.674-3.37 8.137-7.862.162-.497.942-.494 1.1.005 1.434 4.531 3.6 6.412 8.112 7.877.483.157.486.884.006 1.048-4.708 1.6-6.687 3.796-8.145 8.339-.156.485-.888.49-1.05.007-1.608-4.794-3.735-6.914-8.161-8.338-.495-.159-.495-.92 0-1.076" shape-rendering="geometricPrecision"/></clipPath><filter id="b" width="43.885" height="43.806" x="-8.9" y="-12.9" color-interpolation-filters="sRGB" filterUnits="userSpaceOnUse"><feFlood flood-opacity="0" result="BackgroundImageFix"/><feColorMatrix in="SourceAlpha" result="hardAlpha" values="0 0 0 0 0 0 0 0 0 0 0 0 0 0 0 0 0 0 127 0"/><feOffset dy="4"/><feGaussianBlur stdDeviation="2"/><feComposite in2="hardAlpha" operator="out"/><feColorMatrix values="0 0 0 0 0 0 0 0 0 0 0 0 0 0 0 0 0 0 0.25 0"/><feBlend in2="BackgroundImageFix" result="effect1_dropShadow_9_6"/><feColorMatrix in="SourceAlpha" result="hardAlpha" values="0 0 0 0 0 0 0 0 0 0 0 0 0 0 0 0 0 0 127 0"/><feOffset dy="4"/><feGaussianBlur stdDeviation="2"/><feComposite in2="hardAlpha" operator="out"/><feColorMatrix values="0 0 0 0 0 0 0 0 0 0 0 0 0 0 0 0 0 0 0.25 0"/><feBlend in2="effect1_dropShadow_9_6" result="effect2_dropShadow_9_6"/><feColorMatrix in="SourceAlpha" result="hardAlpha" values="0 0 0 0 0 0 0 0 0 0 0 0 0 0 0 0 0 0 127 0"/><feOffset dy="4"/><feGaussianBlur stdDeviation="2"/><feComposite in2="hardAlpha" operator="out"/><feColorMatrix values="0 0 0 0 0 0 0 0 0 0 0 0 0 0 0 0 0 0 0.25 0"/><feBlend in2="effect2_dropShadow_9_6" result="effect3_dropShadow_9_6"/><feBlend in="SourceGraphic" in2="effect3_dropShadow_9_6" result="shape"/></filter></defs></svg>