<svg
  xmlns="http://www.w3.org/2000/svg"
  version="1.1"
  xmlns:xlink="http://www.w3.org/1999/xlink"
  width="1000"
  height="1000"
>
  <g clip-path="url(#SvgjsClipPath1165)">
    <rect width="1000" height="1000" fill="#ffffff"></rect>
    <g transform="matrix(5.555555555555555,0,0,5.555555555555555,0,0)">
      <svg
        xmlns="http://www.w3.org/2000/svg"
        version="1.1"
        xmlns:xlink="http://www.w3.org/1999/xlink"
        width="180"
        height="180"
      >
        <svg
          width="180"
          height="180"
          viewBox="0 0 47.625 47.625001"
          version="1.1"
          id="svg5"
          xmlns="http://www.w3.org/2000/svg"
          xmlns:svg="http://www.w3.org/2000/svg"
        >
          <defs id="defs2">
            <clipPath id="SvgjsClipPath1165">
              <rect
                width="1000"
                height="1000"
                x="0"
                y="0"
                rx="150"
                ry="150"
              ></rect>
            </clipPath>
          </defs>
          <g
            id="layer3"
            transform="matrix(1.0336793,0,0,1.0336793,-89.122158,-27.859433)"
          >
            <g id="layer2" style="display: none">
              <path
                style="
                  fill: #3a6ca9;
                  fill-opacity: 1;
                  stroke: none;
                  stroke-width: 1;
                  stroke-dasharray: none;
                  stroke-opacity: 1;
                  stop-color: #000000;
                "
                d="m 116.41666,47.625 6.61459,2.645834 -6.61459,2.645833 v 3.96875 l 13.22917,-5.291666 V 48.947918 L 116.41666,43.65625 Z"
                id="path3728"
              ></path>
              <path
                style="
                  display: inline;
                  fill: #3a6ca9;
                  fill-opacity: 1;
                  stroke: none;
                  stroke-width: 1;
                  stroke-dasharray: none;
                  stroke-opacity: 1;
                  stop-color: #000000;
                "
                d="m 111.125,56.885417 v -3.96875 h 3.96875 v 3.96875 L 111.125,62.177084 V 59.53125 l 1.32291,-2.645833 z"
                id="path4166"
              ></path>
            </g>
            <g id="layer1-8" style="display: none">
              <rect
                style="
                  font-variation-settings: normal;
                  display: inline;
                  opacity: 1;
                  fill: #ffcd00;
                  fill-opacity: 1;
                  fill-rule: nonzero;
                  stroke: none;
                  stroke-width: 0.101464;
                  stroke-linecap: butt;
                  stroke-linejoin: miter;
                  stroke-miterlimit: 4;
                  stroke-dasharray: none;
                  stroke-dashoffset: 0;
                  stroke-opacity: 1;
                "
                id="rect5-2"
                width="10.641585"
                height="12.576434"
                x="117.17577"
                y="43.397823"
              ></rect>
              <rect
                style="
                  font-variation-settings: normal;
                  display: inline;
                  fill: #43ff00;
                  fill-opacity: 1;
                  fill-rule: nonzero;
                  stroke: none;
                  stroke-width: 0.101464;
                  stroke-linecap: butt;
                  stroke-linejoin: miter;
                  stroke-miterlimit: 4;
                  stroke-dasharray: none;
                  stroke-dashoffset: 0;
                  stroke-opacity: 1;
                "
                id="rect4-1-7"
                width="10.64158"
                height="3.8696721"
                x="117.17576"
                y="43.397823"
              ></rect>
              <rect
                style="
                  font-variation-settings: normal;
                  display: inline;
                  fill: #43ff00;
                  fill-opacity: 1;
                  fill-rule: nonzero;
                  stroke: none;
                  stroke-width: 0.101464;
                  stroke-linecap: butt;
                  stroke-linejoin: miter;
                  stroke-miterlimit: 4;
                  stroke-dasharray: none;
                  stroke-dashoffset: 0;
                  stroke-opacity: 1;
                "
                id="rect4-1-3-4"
                width="10.64158"
                height="3.8696721"
                x="117.17576"
                y="52.104588"
              ></rect>
              <ellipse
                style="
                  font-variation-settings: normal;
                  display: inline;
                  opacity: 1;
                  vector-effect: none;
                  fill: #ff00ea;
                  fill-opacity: 0.752089;
                  fill-rule: nonzero;
                  stroke: none;
                  stroke-width: 0.0832619;
                  stroke-linecap: butt;
                  stroke-linejoin: miter;
                  stroke-miterlimit: 4;
                  stroke-dasharray: none;
                  stroke-dashoffset: 0;
                  stroke-opacity: 1;
                  -inkscape-stroke: none;
                  stop-color: #000000;
                  stop-opacity: 1;
                "
                id="path5-9-8"
                cx="122.49657"
                cy="49.686043"
                rx="5.3207932"
                ry="6.2891707"
              ></ellipse>
              <ellipse
                style="
                  font-variation-settings: normal;
                  display: inline;
                  vector-effect: none;
                  fill: #ff00ea;
                  fill-opacity: 0.752089;
                  fill-rule: nonzero;
                  stroke: none;
                  stroke-width: 0.0320064;
                  stroke-linecap: butt;
                  stroke-linejoin: miter;
                  stroke-miterlimit: 4;
                  stroke-dasharray: none;
                  stroke-dashoffset: 0;
                  stroke-opacity: 1;
                  -inkscape-stroke: none;
                  stop-color: #000000;
                "
                id="path5-9-5-5"
                cx="122.49657"
                cy="49.686993"
                rx="2.0453448"
                ry="2.4175949"
              ></ellipse>
            </g>
            <g id="g1" transform="translate(-1.1535405,1.1072859)">
              <path
                d="m 117.17587,44.191571 v 2.281936 a 0.79375,0.79375 45 0 0 0.79375,0.79375 l 3.13762,0 c 0.43838,0 1.16884,-0.01178 1.561,0.175823 0.54765,0.261989 0.97754,0.795987 1.16976,1.460254 0.12147,0.419751 0.12379,1.14735 0.005,1.567811 -0.2095,0.740059 -0.70649,1.24676 -1.25039,1.483115 -0.39858,0.173203 -1.12777,0.150292 -1.56615,0.150292 l -3.05663,0 a 0.79375,0.79375 135 0 0 -0.79375,0.79375 v 2.282435 a 0.79375,0.79375 45 0 0 0.79375,0.79375 h 3.82571 c 0.43838,0 1.15214,-0.0075 1.57993,-0.100186 0.9957,-0.215692 2.70245,-0.895437 3.73032,-3.036943 0.18949,-0.394787 0.42539,-1.067776 0.52397,-1.49469 0.0655,-0.283792 0.11414,-0.572679 0.14546,-0.864524 0.0468,-0.435663 0.0468,-1.148818 0,-1.584483 -0.0313,-0.291844 -0.0799,-0.58073 -0.14546,-0.864523 -0.0986,-0.426912 -0.33493,-1.100113 -0.52752,-1.493645 -0.79449,-1.623435 -2.1633,-2.742938 -3.72488,-3.052148 -0.42946,-0.08504 -1.14344,-0.08552 -1.58182,-0.08552 l -3.82568,0 a 0.79375,0.79375 135 0 0 -0.79375,0.79375 z"
                style="
                  display: inline;
                  fill: #007eff;
                  fill-opacity: 1;
                  stroke: none;
                  stroke-width: 0.0967418;
                  stroke-dasharray: none;
                  stroke-opacity: 1;
                "
                id="path8"
                transform="matrix(2.0012435,0,0,2.0012435,-129.88938,-54.285536)"
              ></path>
              <path
                style="
                  font-variation-settings: normal;
                  display: inline;
                  opacity: 1;
                  fill: #000000;
                  fill-opacity: 1;
                  fill-rule: nonzero;
                  stroke: none;
                  stroke-width: 0.0967419;
                  stroke-linecap: butt;
                  stroke-linejoin: miter;
                  stroke-miterlimit: 4;
                  stroke-dasharray: none;
                  stroke-dashoffset: 0;
                  stroke-opacity: 1;
                "
                id="rect4"
                width="3.8696723"
                height="3.8696721"
                x="112.33867"
                y="43.397823"
                d="m 113.13242,43.397823 h 2.28217 a 0.79375,0.79375 45 0 1 0.79375,0.79375 v 2.282172 a 0.79375,0.79375 135 0 1 -0.79375,0.79375 l -2.28217,0 a 0.79375,0.79375 45 0 1 -0.79375,-0.79375 v -2.282172 a 0.79375,0.79375 135 0 1 0.79375,-0.79375 z"
                transform="matrix(2.0012435,0,0,2.0012435,-129.88938,-54.285536)"
              ></path>
              <path
                d="m 112.33858,52.898302 v 2.282435 a 0.79375,0.79375 45 0 0 0.79375,0.79375 c 0.36094,0 0.55351,0.354781 0.28464,0.698074 -0.20957,0.267565 -0.47902,0.485463 -0.78905,0.634379 -0.15498,0.07444 -0.28934,0.25432 -0.28934,0.426383 v 1.549157 c 0,0.28219 0.22751,0.47981 0.5,0.407023 1.73114,-0.462417 3.0484,-1.911508 3.31944,-3.715016 0.033,-0.219472 0.0499,-0.441061 0.0505,-0.662987 2e-5,-0.0069 2e-5,-0.01797 2e-5,-0.02483 l 0,-2.38837 a 0.79375,0.79375 45 0 0 -0.79375,-0.79375 h -2.28244 a 0.79375,0.79375 135 0 0 -0.79375,0.79375 z"
                style="
                  fill: #000000;
                  fill-opacity: 1;
                  stroke: none;
                  stroke-width: 0.0967419;
                "
                id="path6"
                transform="matrix(2.0012435,0,0,2.0012435,-129.88938,-54.285536)"
              ></path>
            </g>
          </g>
        </svg>
      </svg>
    </g>
  </g>
</svg>
